%TF.GenerationSoftware,KiCad,Pcbnew,9.0.6-9.0.6~ubuntu22.04.1*%
%TF.CreationDate,2025-12-31T15:52:40+01:00*%
%TF.ProjectId,Symmetric_Wilson_Current_Mirror_Plain,53796d6d-6574-4726-9963-5f57696c736f,rev?*%
%TF.SameCoordinates,Original*%
%TF.FileFunction,Copper,L1,Top*%
%TF.FilePolarity,Positive*%
%FSLAX46Y46*%
G04 Gerber Fmt 4.6, Leading zero omitted, Abs format (unit mm)*
G04 Created by KiCad (PCBNEW 9.0.6-9.0.6~ubuntu22.04.1) date 2025-12-31 15:52:40*
%MOMM*%
%LPD*%
G01*
G04 APERTURE LIST*
%TA.AperFunction,NonConductor*%
%ADD10C,0.200000*%
%TD*%
%TA.AperFunction,Conductor*%
%ADD11C,0.200000*%
%TD*%
%TA.AperFunction,ComponentPad*%
%ADD12R,1.500000X1.500000*%
%TD*%
%TA.AperFunction,ComponentPad*%
%ADD13C,1.500000*%
%TD*%
%TA.AperFunction,ComponentPad*%
%ADD14R,1.700000X1.700000*%
%TD*%
%TA.AperFunction,ComponentPad*%
%ADD15C,1.700000*%
%TD*%
%TA.AperFunction,ComponentPad*%
%ADD16C,1.600000*%
%TD*%
%TA.AperFunction,ComponentPad*%
%ADD17C,1.440000*%
%TD*%
%TA.AperFunction,ViaPad*%
%ADD18C,1.300000*%
%TD*%
%TA.AperFunction,Conductor*%
%ADD19C,1.000000*%
%TD*%
G04 APERTURE END LIST*
D10*
X184630000Y-153670000D02*
G75*
G02*
X181130000Y-153670000I-1750000J0D01*
G01*
X181130000Y-153670000D02*
G75*
G02*
X184630000Y-153670000I1750000J0D01*
G01*
D11*
%TO.N,Gnd*%
X149860000Y-153035000D02*
X160020000Y-153035000D01*
X139700000Y-153035000D02*
X139790000Y-150495000D01*
X149860000Y-153035000D02*
X139700000Y-153035000D01*
X137160000Y-83820000D02*
X137160000Y-74930000D01*
D10*
X131290000Y-73660000D02*
G75*
G02*
X127790000Y-73660000I-1750000J0D01*
G01*
X127790000Y-73660000D02*
G75*
G02*
X131290000Y-73660000I1750000J0D01*
G01*
X131290000Y-153670000D02*
G75*
G02*
X127790000Y-153670000I-1750000J0D01*
G01*
X127790000Y-153670000D02*
G75*
G02*
X131290000Y-153670000I1750000J0D01*
G01*
D11*
X160020000Y-153035000D02*
X167640000Y-153035000D01*
D10*
X184630000Y-73660000D02*
G75*
G02*
X181130000Y-73660000I-1750000J0D01*
G01*
X181130000Y-73660000D02*
G75*
G02*
X184630000Y-73660000I1750000J0D01*
G01*
D11*
X160060000Y-144780000D02*
X160060000Y-152400000D01*
%TD*%
D12*
%TO.P,Q3,1,C*%
%TO.N,Vout*%
X160020000Y-135255000D03*
D13*
%TO.P,Q3,2,B*%
%TO.N,Net-(J4-Pin_1)*%
X160020000Y-132715000D03*
%TO.P,Q3,3,E*%
%TO.N,Net-(J10-Pin_1)*%
X160020000Y-130175000D03*
%TD*%
D14*
%TO.P,J11,1,Pin_1*%
%TO.N,Vout*%
X160100000Y-142335000D03*
D15*
%TO.P,J11,2,Pin_2*%
%TO.N,Gnd*%
X160100000Y-144875000D03*
%TD*%
D16*
%TO.P,R1,1*%
%TO.N,Net-(J1-Pin_1)*%
X139700000Y-89535000D03*
%TO.P,R1,2*%
%TO.N,Net-(J14-Pin_1)*%
X139700000Y-99695000D03*
%TD*%
D12*
%TO.P,Q2,1,C*%
%TO.N,Net-(J10-Pin_1)*%
X160020000Y-118745000D03*
D13*
%TO.P,Q2,2,B*%
X160020000Y-116205000D03*
%TO.P,Q2,3,E*%
%TO.N,Net-(J15-Pin_1)*%
X160020000Y-113665000D03*
%TD*%
D14*
%TO.P,J15,1,Pin_1*%
%TO.N,Net-(J15-Pin_1)*%
X160020000Y-107315000D03*
%TD*%
D16*
%TO.P,C1,1*%
%TO.N,Net-(J1-Pin_1)*%
X149860000Y-83185000D03*
%TO.P,C1,2*%
%TO.N,Gnd*%
X149860000Y-78185000D03*
%TD*%
D17*
%TO.P,RV1,1,1*%
%TO.N,Net-(J4-Pin_1)*%
X139700000Y-147955000D03*
%TO.P,RV1,2,2*%
%TO.N,Gnd*%
X139700000Y-150495000D03*
%TO.P,RV1,3,3*%
X139700000Y-153035000D03*
%TD*%
D14*
%TO.P,J14,1,Pin_1*%
%TO.N,Net-(J14-Pin_1)*%
X139700000Y-107315000D03*
%TD*%
%TO.P,J5,1,Pin_1*%
%TO.N,Net-(J1-Pin_1)*%
X160020000Y-83185000D03*
%TD*%
D12*
%TO.P,Q1,1,C*%
%TO.N,Net-(J3-Pin_1)*%
X139700000Y-118745000D03*
D13*
%TO.P,Q1,2,B*%
%TO.N,Net-(J10-Pin_1)*%
X139700000Y-116205000D03*
%TO.P,Q1,3,E*%
%TO.N,Net-(J14-Pin_1)*%
X139700000Y-113665000D03*
%TD*%
D14*
%TO.P,J10,1,Pin_1*%
%TO.N,Net-(J10-Pin_1)*%
X160020000Y-123825000D03*
%TD*%
%TO.P,J8,1,Pin_1*%
%TO.N,Gnd*%
X149860000Y-153035000D03*
%TD*%
%TO.P,J6,1,Pin_1*%
%TO.N,Net-(J10-Pin_1)*%
X149860000Y-116205000D03*
%TD*%
%TO.P,J3,1,Pin_1*%
%TO.N,Net-(J3-Pin_1)*%
X139700000Y-123825000D03*
%TD*%
%TO.P,J4,1,Pin_1*%
%TO.N,Net-(J4-Pin_1)*%
X139700000Y-142875000D03*
%TD*%
D16*
%TO.P,R2,1*%
%TO.N,Net-(J1-Pin_1)*%
X160020000Y-89535000D03*
%TO.P,R2,2*%
%TO.N,Net-(J15-Pin_1)*%
X160020000Y-99695000D03*
%TD*%
D14*
%TO.P,J9,1,Pin_1*%
%TO.N,Gnd*%
X160020000Y-153035000D03*
%TD*%
D12*
%TO.P,Q4,1,C*%
%TO.N,Net-(J4-Pin_1)*%
X139700000Y-135255000D03*
D13*
%TO.P,Q4,2,B*%
X139700000Y-132715000D03*
%TO.P,Q4,3,E*%
%TO.N,Net-(J3-Pin_1)*%
X139700000Y-130175000D03*
%TD*%
D14*
%TO.P,J7,1,Pin_1*%
%TO.N,Net-(J4-Pin_1)*%
X149860000Y-132715000D03*
%TD*%
%TO.P,J1,1,Pin_1*%
%TO.N,Net-(J1-Pin_1)*%
X139700000Y-75565000D03*
D15*
%TO.P,J1,2,Pin_2*%
%TO.N,Gnd*%
X137160000Y-75565000D03*
%TD*%
D14*
%TO.P,J2,1,Pin_1*%
%TO.N,Net-(J1-Pin_1)*%
X139700000Y-83185000D03*
D15*
%TO.P,J2,2,Pin_2*%
%TO.N,Gnd*%
X137160000Y-83185000D03*
%TD*%
D14*
%TO.P,J12,1,Pin_1*%
%TO.N,Net-(J1-Pin_1)*%
X172720000Y-153035000D03*
D15*
%TO.P,J12,2,Pin_2*%
%TO.N,Vout*%
X170180000Y-153035000D03*
%TO.P,J12,3,Pin_3*%
%TO.N,Gnd*%
X167640000Y-153035000D03*
%TD*%
D14*
%TO.P,J13,1,Pin_1*%
%TO.N,Net-(J1-Pin_1)*%
X172720000Y-142900000D03*
D15*
%TO.P,J13,2,Pin_2*%
%TO.N,Gnd*%
X172720000Y-145440000D03*
%TD*%
D18*
%TO.N,Gnd*%
X154940000Y-118745000D03*
X154940000Y-86995000D03*
X167640000Y-73025000D03*
X182880000Y-135255000D03*
X167640000Y-109855000D03*
X182880000Y-109855000D03*
X154940000Y-127635000D03*
X182880000Y-146685000D03*
X154940000Y-98425000D03*
X129540000Y-86995000D03*
X167640000Y-135255000D03*
X167640000Y-86995000D03*
X144780000Y-98425000D03*
X144780000Y-155575000D03*
X152400000Y-146685000D03*
X154940000Y-135255000D03*
X182880000Y-86995000D03*
X167640000Y-98425000D03*
X144780000Y-135255000D03*
X144780000Y-86995000D03*
X144780000Y-127635000D03*
X144780000Y-118745000D03*
X144780000Y-146685000D03*
X182880000Y-122555000D03*
X129540000Y-122555000D03*
X154940000Y-109855000D03*
X129540000Y-146685000D03*
X129540000Y-109855000D03*
X167640000Y-122555000D03*
X182880000Y-98425000D03*
X129540000Y-98425000D03*
X144780000Y-109855000D03*
X154940000Y-155575000D03*
X154940000Y-73025000D03*
X129540000Y-135255000D03*
%TD*%
D19*
%TO.N,Gnd*%
X160100000Y-152955000D02*
X160020000Y-153035000D01*
%TO.N,Net-(J4-Pin_1)*%
X149895000Y-132750000D02*
X149860000Y-132715000D01*
%TO.N,Vout*%
X160020000Y-142255000D02*
X160100000Y-142335000D01*
%TD*%
%TA.AperFunction,Conductor*%
%TO.N,Gnd*%
G36*
X148509501Y-133612876D02*
G01*
X148515908Y-133672483D01*
X148566202Y-133807328D01*
X148566206Y-133807335D01*
X148652452Y-133922544D01*
X148652455Y-133922547D01*
X148767664Y-134008793D01*
X148767671Y-134008797D01*
X148902517Y-134059091D01*
X148902516Y-134059091D01*
X148909444Y-134059835D01*
X148962127Y-134065500D01*
X149860000Y-134065499D01*
X149860000Y-138430000D01*
X144780000Y-142875000D01*
X141050500Y-142875000D01*
X141050499Y-141977129D01*
X141050498Y-141977123D01*
X141044091Y-141917516D01*
X140993797Y-141782671D01*
X140993793Y-141782664D01*
X140907547Y-141667455D01*
X140907544Y-141667452D01*
X140792335Y-141581206D01*
X140792328Y-141581202D01*
X140657482Y-141530908D01*
X140657483Y-141530908D01*
X140597883Y-141524501D01*
X140597881Y-141524500D01*
X140597873Y-141524500D01*
X140597865Y-141524500D01*
X139700000Y-141524500D01*
X139700000Y-136505499D01*
X140497872Y-136505499D01*
X140557483Y-136499091D01*
X140692331Y-136448796D01*
X140807546Y-136362546D01*
X140893796Y-136247331D01*
X140944091Y-136112483D01*
X140950500Y-136052873D01*
X140950499Y-134457128D01*
X140944091Y-134397517D01*
X140893796Y-134262669D01*
X140893795Y-134262668D01*
X140893793Y-134262664D01*
X140807547Y-134147455D01*
X140807544Y-134147452D01*
X140692335Y-134061206D01*
X140692328Y-134061202D01*
X140557482Y-134010908D01*
X140557483Y-134010908D01*
X140497883Y-134004501D01*
X140497881Y-134004500D01*
X140497873Y-134004500D01*
X140497865Y-134004500D01*
X140434267Y-134004500D01*
X140367228Y-133984815D01*
X140321473Y-133932011D01*
X140311529Y-133862853D01*
X140340554Y-133799297D01*
X140361381Y-133780182D01*
X140514646Y-133668828D01*
X140653828Y-133529646D01*
X140769524Y-133370405D01*
X140779921Y-133350000D01*
X148509501Y-133350000D01*
X148509501Y-133612876D01*
G37*
%TD.AperFunction*%
%TD*%
%TA.AperFunction,Conductor*%
%TO.N,Gnd*%
G36*
X148509500Y-117102870D02*
G01*
X148509501Y-117102876D01*
X148515908Y-117162483D01*
X148566202Y-117297328D01*
X148566206Y-117297335D01*
X148652452Y-117412544D01*
X148652455Y-117412547D01*
X148767664Y-117498793D01*
X148767671Y-117498797D01*
X148902517Y-117549091D01*
X148902516Y-117549091D01*
X148909444Y-117549835D01*
X148962127Y-117555500D01*
X150757872Y-117555499D01*
X150817483Y-117549091D01*
X150952331Y-117498796D01*
X151067546Y-117412546D01*
X151153796Y-117297331D01*
X151204091Y-117162483D01*
X151210500Y-117102873D01*
X151210499Y-116205000D01*
X158769500Y-116205000D01*
X158769500Y-116303422D01*
X158800290Y-116497826D01*
X158861117Y-116685029D01*
X158950476Y-116860405D01*
X159066172Y-117019646D01*
X159205354Y-117158828D01*
X159358621Y-117270184D01*
X159401285Y-117325512D01*
X159407264Y-117395125D01*
X159374658Y-117456920D01*
X159313819Y-117491278D01*
X159285736Y-117494500D01*
X159222130Y-117494500D01*
X159222123Y-117494501D01*
X159162516Y-117500908D01*
X159027671Y-117551202D01*
X159027664Y-117551206D01*
X158912455Y-117637452D01*
X158912452Y-117637455D01*
X158826206Y-117752664D01*
X158826202Y-117752671D01*
X158775908Y-117887517D01*
X158769501Y-117947116D01*
X158769501Y-117947123D01*
X158769500Y-117947135D01*
X158769500Y-119542870D01*
X158769501Y-119542876D01*
X158775908Y-119602483D01*
X158826202Y-119737328D01*
X158826206Y-119737335D01*
X158912452Y-119852544D01*
X158912455Y-119852547D01*
X159027664Y-119938793D01*
X159027671Y-119938797D01*
X159072618Y-119955561D01*
X159162517Y-119989091D01*
X159222127Y-119995500D01*
X159660000Y-119995499D01*
X159660000Y-122474500D01*
X159122129Y-122474500D01*
X159122123Y-122474501D01*
X159062516Y-122480908D01*
X158927671Y-122531202D01*
X158927664Y-122531206D01*
X158812455Y-122617452D01*
X158812452Y-122617455D01*
X158726206Y-122732664D01*
X158726202Y-122732671D01*
X158675908Y-122867517D01*
X158669501Y-122927116D01*
X158669501Y-122927123D01*
X158669500Y-122927135D01*
X158669500Y-124722870D01*
X158669501Y-124722876D01*
X158675908Y-124782483D01*
X158726202Y-124917328D01*
X158726206Y-124917335D01*
X158812452Y-125032544D01*
X158812455Y-125032547D01*
X158927664Y-125118793D01*
X158927671Y-125118797D01*
X159062517Y-125169091D01*
X159062516Y-125169091D01*
X159069444Y-125169835D01*
X159122127Y-125175500D01*
X159660000Y-125175499D01*
X159660000Y-128977117D01*
X159539972Y-129016117D01*
X159364594Y-129105476D01*
X159273741Y-129171485D01*
X159205354Y-129221172D01*
X159205352Y-129221174D01*
X159205351Y-129221174D01*
X159066174Y-129360351D01*
X159066174Y-129360352D01*
X159066172Y-129360354D01*
X159016485Y-129428741D01*
X158950476Y-129519594D01*
X158861117Y-129694970D01*
X158800290Y-129882173D01*
X158769500Y-130076577D01*
X158769500Y-130273422D01*
X158800290Y-130467826D01*
X158861117Y-130655029D01*
X158950476Y-130830405D01*
X159066172Y-130989646D01*
X159205354Y-131128828D01*
X159364595Y-131244524D01*
X159487992Y-131307397D01*
X159541213Y-131334515D01*
X159592009Y-131382489D01*
X159608804Y-131450310D01*
X159586267Y-131516445D01*
X159541213Y-131555485D01*
X159364594Y-131645476D01*
X159273741Y-131711485D01*
X159205354Y-131761172D01*
X159205352Y-131761174D01*
X159205351Y-131761174D01*
X159066174Y-131900351D01*
X159066174Y-131900352D01*
X159066172Y-131900354D01*
X159016485Y-131968741D01*
X158950476Y-132059594D01*
X158861117Y-132234970D01*
X158800290Y-132422173D01*
X158769500Y-132616577D01*
X158769500Y-132715000D01*
X151210500Y-132715000D01*
X151210499Y-131817129D01*
X151210498Y-131817123D01*
X151210497Y-131817116D01*
X151204091Y-131757517D01*
X151162302Y-131645476D01*
X151153797Y-131622671D01*
X151153793Y-131622664D01*
X151067547Y-131507455D01*
X151067544Y-131507452D01*
X150952335Y-131421206D01*
X150952328Y-131421202D01*
X150817482Y-131370908D01*
X150817483Y-131370908D01*
X150757883Y-131364501D01*
X150757881Y-131364500D01*
X150757873Y-131364500D01*
X150757864Y-131364500D01*
X148962129Y-131364500D01*
X148962123Y-131364501D01*
X148902516Y-131370908D01*
X148767671Y-131421202D01*
X148767664Y-131421206D01*
X148652455Y-131507452D01*
X148652452Y-131507455D01*
X148566206Y-131622664D01*
X148566202Y-131622671D01*
X148515908Y-131757517D01*
X148509501Y-131817116D01*
X148509500Y-131817127D01*
X148509500Y-132616583D01*
X148509501Y-132715000D01*
X140950500Y-132715000D01*
X140950500Y-132616577D01*
X140919709Y-132422173D01*
X140858882Y-132234970D01*
X140769523Y-132059594D01*
X140653828Y-131900354D01*
X140514646Y-131761172D01*
X140435025Y-131703324D01*
X140355403Y-131645474D01*
X140178787Y-131555485D01*
X140127990Y-131507511D01*
X140111195Y-131439690D01*
X140133732Y-131373555D01*
X140178787Y-131334515D01*
X140355403Y-131244525D01*
X140355402Y-131244525D01*
X140355405Y-131244524D01*
X140514646Y-131128828D01*
X140653828Y-130989646D01*
X140769524Y-130830405D01*
X140858884Y-130655025D01*
X140919709Y-130467826D01*
X140950500Y-130273422D01*
X140950500Y-130076577D01*
X140919709Y-129882173D01*
X140858882Y-129694970D01*
X140769523Y-129519594D01*
X140653828Y-129360354D01*
X140514646Y-129221172D01*
X140355405Y-129105476D01*
X140180029Y-129016117D01*
X139992826Y-128955290D01*
X139798422Y-128924500D01*
X139798417Y-128924500D01*
X139601583Y-128924500D01*
X139601578Y-128924500D01*
X139407173Y-128955290D01*
X139340000Y-128977116D01*
X139340000Y-125175499D01*
X140597872Y-125175499D01*
X140657483Y-125169091D01*
X140792331Y-125118796D01*
X140907546Y-125032546D01*
X140993796Y-124917331D01*
X141044091Y-124782483D01*
X141050500Y-124722873D01*
X141050499Y-122927128D01*
X141044091Y-122867517D01*
X140993796Y-122732669D01*
X140993795Y-122732668D01*
X140993793Y-122732664D01*
X140907547Y-122617455D01*
X140907544Y-122617452D01*
X140792335Y-122531206D01*
X140792328Y-122531202D01*
X140657482Y-122480908D01*
X140657483Y-122480908D01*
X140597883Y-122474501D01*
X140597881Y-122474500D01*
X140597873Y-122474500D01*
X140597865Y-122474500D01*
X139340000Y-122474500D01*
X139340000Y-119995499D01*
X140497872Y-119995499D01*
X140557483Y-119989091D01*
X140692331Y-119938796D01*
X140807546Y-119852546D01*
X140893796Y-119737331D01*
X140944091Y-119602483D01*
X140950500Y-119542873D01*
X140950499Y-117947128D01*
X140944091Y-117887517D01*
X140893796Y-117752669D01*
X140893795Y-117752668D01*
X140893793Y-117752664D01*
X140807547Y-117637455D01*
X140807544Y-117637452D01*
X140692335Y-117551206D01*
X140692328Y-117551202D01*
X140557482Y-117500908D01*
X140557483Y-117500908D01*
X140497883Y-117494501D01*
X140497881Y-117494500D01*
X140497873Y-117494500D01*
X140497865Y-117494500D01*
X140434267Y-117494500D01*
X140367228Y-117474815D01*
X140321473Y-117422011D01*
X140311529Y-117352853D01*
X140340554Y-117289297D01*
X140361381Y-117270182D01*
X140514646Y-117158828D01*
X140653828Y-117019646D01*
X140769524Y-116860405D01*
X140858884Y-116685025D01*
X140919709Y-116497826D01*
X140950500Y-116303422D01*
X140950500Y-116205000D01*
X148509500Y-116205000D01*
X148509500Y-117102870D01*
G37*
%TD.AperFunction*%
%TD*%
%TA.AperFunction,Conductor*%
%TO.N,Gnd*%
G36*
X148509500Y-133350000D02*
G01*
X140779921Y-133350000D01*
X140858884Y-133195025D01*
X140919709Y-133007826D01*
X140950500Y-132813422D01*
X140950500Y-132715000D01*
X148509500Y-132715000D01*
X148509500Y-133350000D01*
G37*
%TD.AperFunction*%
%TA.AperFunction,Conductor*%
G36*
X186633039Y-69869685D02*
G01*
X186678794Y-69922489D01*
X186690000Y-69974000D01*
X186690000Y-157356000D01*
X186670315Y-157423039D01*
X186617511Y-157468794D01*
X186566000Y-157480000D01*
X125854000Y-157480000D01*
X125786961Y-157460315D01*
X125741206Y-157407511D01*
X125730000Y-157356000D01*
X125730000Y-153515946D01*
X127189500Y-153515946D01*
X127189500Y-153824053D01*
X127189501Y-153824069D01*
X127229717Y-154129542D01*
X127309464Y-154427162D01*
X127427376Y-154711826D01*
X127427381Y-154711837D01*
X127520014Y-154872280D01*
X127581438Y-154978670D01*
X127581440Y-154978673D01*
X127581441Y-154978674D01*
X127769007Y-155223115D01*
X127769013Y-155223122D01*
X127986877Y-155440986D01*
X127986883Y-155440991D01*
X128231330Y-155628562D01*
X128402830Y-155727578D01*
X128498162Y-155782618D01*
X128498167Y-155782620D01*
X128498170Y-155782622D01*
X128782836Y-155900535D01*
X129080456Y-155980282D01*
X129385940Y-156020500D01*
X129385947Y-156020500D01*
X129694053Y-156020500D01*
X129694060Y-156020500D01*
X129999544Y-155980282D01*
X130297164Y-155900535D01*
X130581830Y-155782622D01*
X130848670Y-155628562D01*
X131093117Y-155440991D01*
X131310991Y-155223117D01*
X131498562Y-154978670D01*
X131652622Y-154711830D01*
X131770535Y-154427164D01*
X131850282Y-154129544D01*
X131890500Y-153824060D01*
X131890500Y-153515940D01*
X131850282Y-153210456D01*
X131770535Y-152912836D01*
X131652622Y-152628170D01*
X131652620Y-152628167D01*
X131652618Y-152628162D01*
X131588200Y-152516588D01*
X131498562Y-152361330D01*
X131328408Y-152139581D01*
X131325312Y-152135546D01*
X131325310Y-152135544D01*
X131312178Y-152118430D01*
X131310991Y-152116883D01*
X131310989Y-152116881D01*
X131310986Y-152116877D01*
X131093122Y-151899013D01*
X131093115Y-151899007D01*
X130848674Y-151711441D01*
X130848673Y-151711440D01*
X130848670Y-151711438D01*
X130700022Y-151625616D01*
X130581837Y-151557381D01*
X130581826Y-151557376D01*
X130297162Y-151439464D01*
X129999542Y-151359717D01*
X129694069Y-151319501D01*
X129694066Y-151319500D01*
X129694060Y-151319500D01*
X129385940Y-151319500D01*
X129385934Y-151319500D01*
X129385930Y-151319501D01*
X129080457Y-151359717D01*
X128782837Y-151439464D01*
X128498173Y-151557376D01*
X128498162Y-151557381D01*
X128231325Y-151711441D01*
X127986884Y-151899007D01*
X127986877Y-151899013D01*
X127769013Y-152116877D01*
X127769007Y-152116884D01*
X127581441Y-152361325D01*
X127427381Y-152628162D01*
X127427376Y-152628173D01*
X127309464Y-152912837D01*
X127229717Y-153210457D01*
X127189501Y-153515930D01*
X127189500Y-153515946D01*
X125730000Y-153515946D01*
X125730000Y-147858945D01*
X138479500Y-147858945D01*
X138479500Y-148051054D01*
X138509553Y-148240802D01*
X138568916Y-148423506D01*
X138568918Y-148423509D01*
X138656135Y-148594681D01*
X138769055Y-148750102D01*
X138904898Y-148885945D01*
X139060319Y-148998865D01*
X139231491Y-149086082D01*
X139231495Y-149086084D01*
X139296890Y-149107332D01*
X139354566Y-149146769D01*
X139381765Y-149211127D01*
X139369851Y-149279974D01*
X139322607Y-149331450D01*
X139296893Y-149343194D01*
X139231677Y-149364384D01*
X139060578Y-149451564D01*
X139031352Y-149472798D01*
X139031351Y-149472798D01*
X139653554Y-150095000D01*
X139647339Y-150095000D01*
X139545606Y-150122259D01*
X139454394Y-150174920D01*
X139379920Y-150249394D01*
X139327259Y-150340606D01*
X139300000Y-150442339D01*
X139300000Y-150448553D01*
X138677798Y-149826351D01*
X138677798Y-149826352D01*
X138656564Y-149855578D01*
X138569383Y-150026678D01*
X138510040Y-150209315D01*
X138480000Y-150398984D01*
X138480000Y-150591015D01*
X138510040Y-150780684D01*
X138569383Y-150963321D01*
X138656561Y-151134415D01*
X138677798Y-151163646D01*
X139300000Y-150541445D01*
X139300000Y-150547661D01*
X139327259Y-150649394D01*
X139379920Y-150740606D01*
X139454394Y-150815080D01*
X139545606Y-150867741D01*
X139647339Y-150895000D01*
X139653554Y-150895000D01*
X139031351Y-151517200D01*
X139031352Y-151517201D01*
X139060577Y-151538434D01*
X139231678Y-151625616D01*
X139297703Y-151647069D01*
X139355378Y-151686507D01*
X139382576Y-151750866D01*
X139370661Y-151819712D01*
X139323417Y-151871188D01*
X139297703Y-151882931D01*
X139231678Y-151904383D01*
X139060578Y-151991564D01*
X139031352Y-152012798D01*
X139031351Y-152012798D01*
X139653554Y-152635000D01*
X139647339Y-152635000D01*
X139545606Y-152662259D01*
X139454394Y-152714920D01*
X139379920Y-152789394D01*
X139327259Y-152880606D01*
X139300000Y-152982339D01*
X139300000Y-152988553D01*
X138677798Y-152366351D01*
X138677798Y-152366352D01*
X138656564Y-152395578D01*
X138569383Y-152566678D01*
X138510040Y-152749315D01*
X138480000Y-152938984D01*
X138480000Y-153131015D01*
X138510040Y-153320684D01*
X138569383Y-153503321D01*
X138656561Y-153674415D01*
X138677798Y-153703646D01*
X139300000Y-153081445D01*
X139300000Y-153087661D01*
X139327259Y-153189394D01*
X139379920Y-153280606D01*
X139454394Y-153355080D01*
X139545606Y-153407741D01*
X139647339Y-153435000D01*
X139653554Y-153435000D01*
X139031351Y-154057200D01*
X139031352Y-154057201D01*
X139060577Y-154078434D01*
X139231678Y-154165616D01*
X139414315Y-154224959D01*
X139603985Y-154255000D01*
X139796015Y-154255000D01*
X139985684Y-154224959D01*
X140168321Y-154165616D01*
X140339419Y-154078436D01*
X140368646Y-154057201D01*
X140368646Y-154057200D01*
X139746447Y-153435000D01*
X139752661Y-153435000D01*
X139854394Y-153407741D01*
X139945606Y-153355080D01*
X140020080Y-153280606D01*
X140072741Y-153189394D01*
X140100000Y-153087661D01*
X140100000Y-153081446D01*
X140722200Y-153703646D01*
X140722201Y-153703646D01*
X140743436Y-153674419D01*
X140830616Y-153503321D01*
X140889958Y-153320684D01*
X140906818Y-153214240D01*
X140906818Y-153214239D01*
X140920000Y-153131013D01*
X140920000Y-152938985D01*
X140889959Y-152749315D01*
X140830616Y-152566678D01*
X140743434Y-152395577D01*
X140722201Y-152366352D01*
X140722200Y-152366351D01*
X140100000Y-152988552D01*
X140100000Y-152982339D01*
X140072741Y-152880606D01*
X140020080Y-152789394D01*
X139945606Y-152714920D01*
X139854394Y-152662259D01*
X139752661Y-152635000D01*
X139746447Y-152635000D01*
X140244290Y-152137155D01*
X148510000Y-152137155D01*
X148510000Y-152785000D01*
X149426988Y-152785000D01*
X149394075Y-152842007D01*
X149360000Y-152969174D01*
X149360000Y-153100826D01*
X149394075Y-153227993D01*
X149426988Y-153285000D01*
X148510000Y-153285000D01*
X148510000Y-153932844D01*
X148516401Y-153992372D01*
X148516403Y-153992379D01*
X148566645Y-154127086D01*
X148566649Y-154127093D01*
X148652809Y-154242187D01*
X148652812Y-154242190D01*
X148767906Y-154328350D01*
X148767913Y-154328354D01*
X148902620Y-154378596D01*
X148902627Y-154378598D01*
X148962155Y-154384999D01*
X148962172Y-154385000D01*
X149610000Y-154385000D01*
X149610000Y-153468012D01*
X149667007Y-153500925D01*
X149794174Y-153535000D01*
X149925826Y-153535000D01*
X150052993Y-153500925D01*
X150110000Y-153468012D01*
X150110000Y-154385000D01*
X150757828Y-154385000D01*
X150757844Y-154384999D01*
X150817372Y-154378598D01*
X150817379Y-154378596D01*
X150952086Y-154328354D01*
X150952093Y-154328350D01*
X151067187Y-154242190D01*
X151067190Y-154242187D01*
X151153350Y-154127093D01*
X151153354Y-154127086D01*
X151203596Y-153992379D01*
X151203598Y-153992372D01*
X151209999Y-153932844D01*
X151210000Y-153932827D01*
X151210000Y-153285000D01*
X150293012Y-153285000D01*
X150325925Y-153227993D01*
X150360000Y-153100826D01*
X150360000Y-152969174D01*
X150325925Y-152842007D01*
X150293012Y-152785000D01*
X151210000Y-152785000D01*
X151210000Y-152137172D01*
X151209999Y-152137155D01*
X158670000Y-152137155D01*
X158670000Y-152785000D01*
X159586988Y-152785000D01*
X159554075Y-152842007D01*
X159520000Y-152969174D01*
X159520000Y-153100826D01*
X159554075Y-153227993D01*
X159586988Y-153285000D01*
X158670000Y-153285000D01*
X158670000Y-153932844D01*
X158676401Y-153992372D01*
X158676403Y-153992379D01*
X158726645Y-154127086D01*
X158726649Y-154127093D01*
X158812809Y-154242187D01*
X158812812Y-154242190D01*
X158927906Y-154328350D01*
X158927913Y-154328354D01*
X159062620Y-154378596D01*
X159062627Y-154378598D01*
X159122155Y-154384999D01*
X159122172Y-154385000D01*
X159770000Y-154385000D01*
X159770000Y-153468012D01*
X159827007Y-153500925D01*
X159954174Y-153535000D01*
X160085826Y-153535000D01*
X160212993Y-153500925D01*
X160270000Y-153468012D01*
X160270000Y-154385000D01*
X160917828Y-154385000D01*
X160917844Y-154384999D01*
X160977372Y-154378598D01*
X160977379Y-154378596D01*
X161112086Y-154328354D01*
X161112093Y-154328350D01*
X161227187Y-154242190D01*
X161227190Y-154242187D01*
X161313350Y-154127093D01*
X161313354Y-154127086D01*
X161338496Y-154059678D01*
X161363596Y-153992379D01*
X161363598Y-153992372D01*
X161369999Y-153932844D01*
X161370000Y-153932827D01*
X161370000Y-153285000D01*
X160453012Y-153285000D01*
X160485925Y-153227993D01*
X160520000Y-153100826D01*
X160520000Y-152969174D01*
X160509169Y-152928753D01*
X166290000Y-152928753D01*
X166290000Y-153141246D01*
X166323242Y-153351127D01*
X166323242Y-153351130D01*
X166388904Y-153553217D01*
X166485375Y-153742550D01*
X166524728Y-153796716D01*
X167157037Y-153164408D01*
X167174075Y-153227993D01*
X167239901Y-153342007D01*
X167332993Y-153435099D01*
X167447007Y-153500925D01*
X167510590Y-153517962D01*
X166878282Y-154150269D01*
X166878282Y-154150270D01*
X166932449Y-154189624D01*
X167121782Y-154286095D01*
X167323870Y-154351757D01*
X167533754Y-154385000D01*
X167746246Y-154385000D01*
X167956127Y-154351757D01*
X167956130Y-154351757D01*
X168158217Y-154286095D01*
X168347554Y-154189622D01*
X168401716Y-154150270D01*
X168401717Y-154150270D01*
X167769408Y-153517962D01*
X167832993Y-153500925D01*
X167947007Y-153435099D01*
X168040099Y-153342007D01*
X168105925Y-153227993D01*
X168122962Y-153164409D01*
X168755270Y-153796717D01*
X168755270Y-153796716D01*
X168794622Y-153742555D01*
X168799232Y-153733507D01*
X168847205Y-153682709D01*
X168915025Y-153665912D01*
X168981161Y-153688447D01*
X169020204Y-153733504D01*
X169024949Y-153742817D01*
X169149890Y-153914786D01*
X169300213Y-154065109D01*
X169472179Y-154190048D01*
X169472181Y-154190049D01*
X169472184Y-154190051D01*
X169661588Y-154286557D01*
X169863757Y-154352246D01*
X170073713Y-154385500D01*
X170073714Y-154385500D01*
X170286286Y-154385500D01*
X170286287Y-154385500D01*
X170496243Y-154352246D01*
X170698412Y-154286557D01*
X170887816Y-154190051D01*
X170974471Y-154127093D01*
X171059784Y-154065110D01*
X171059784Y-154065109D01*
X171059792Y-154065104D01*
X171173329Y-153951566D01*
X171234648Y-153918084D01*
X171304340Y-153923068D01*
X171360274Y-153964939D01*
X171377189Y-153995917D01*
X171426202Y-154127328D01*
X171426206Y-154127335D01*
X171512452Y-154242544D01*
X171512455Y-154242547D01*
X171627664Y-154328793D01*
X171627671Y-154328797D01*
X171762517Y-154379091D01*
X171762516Y-154379091D01*
X171769444Y-154379835D01*
X171822127Y-154385500D01*
X173617872Y-154385499D01*
X173677483Y-154379091D01*
X173812331Y-154328796D01*
X173927546Y-154242546D01*
X174013796Y-154127331D01*
X174064091Y-153992483D01*
X174070500Y-153932873D01*
X174070500Y-153515946D01*
X180529500Y-153515946D01*
X180529500Y-153824053D01*
X180529501Y-153824069D01*
X180569717Y-154129542D01*
X180649464Y-154427162D01*
X180767376Y-154711826D01*
X180767381Y-154711837D01*
X180860014Y-154872280D01*
X180921438Y-154978670D01*
X180921440Y-154978673D01*
X180921441Y-154978674D01*
X181109007Y-155223115D01*
X181109013Y-155223122D01*
X181326877Y-155440986D01*
X181326883Y-155440991D01*
X181571330Y-155628562D01*
X181742830Y-155727578D01*
X181838162Y-155782618D01*
X181838167Y-155782620D01*
X181838170Y-155782622D01*
X182122836Y-155900535D01*
X182420456Y-155980282D01*
X182725940Y-156020500D01*
X182725947Y-156020500D01*
X183034053Y-156020500D01*
X183034060Y-156020500D01*
X183339544Y-155980282D01*
X183637164Y-155900535D01*
X183921830Y-155782622D01*
X184188670Y-155628562D01*
X184433117Y-155440991D01*
X184650991Y-155223117D01*
X184838562Y-154978670D01*
X184992622Y-154711830D01*
X185110535Y-154427164D01*
X185190282Y-154129544D01*
X185230500Y-153824060D01*
X185230500Y-153515940D01*
X185190282Y-153210456D01*
X185110535Y-152912836D01*
X184992622Y-152628170D01*
X184992620Y-152628167D01*
X184992618Y-152628162D01*
X184928200Y-152516588D01*
X184838562Y-152361330D01*
X184668408Y-152139581D01*
X184650992Y-152116884D01*
X184650986Y-152116877D01*
X184433122Y-151899013D01*
X184433115Y-151899007D01*
X184188674Y-151711441D01*
X184188673Y-151711440D01*
X184188670Y-151711438D01*
X184040022Y-151625616D01*
X183921837Y-151557381D01*
X183921826Y-151557376D01*
X183637162Y-151439464D01*
X183339542Y-151359717D01*
X183034069Y-151319501D01*
X183034066Y-151319500D01*
X183034060Y-151319500D01*
X182725940Y-151319500D01*
X182725934Y-151319500D01*
X182725930Y-151319501D01*
X182420457Y-151359717D01*
X182122837Y-151439464D01*
X181838173Y-151557376D01*
X181838162Y-151557381D01*
X181571325Y-151711441D01*
X181326884Y-151899007D01*
X181326877Y-151899013D01*
X181109013Y-152116877D01*
X181109007Y-152116884D01*
X180921441Y-152361325D01*
X180767381Y-152628162D01*
X180767376Y-152628173D01*
X180649464Y-152912837D01*
X180569717Y-153210457D01*
X180529501Y-153515930D01*
X180529500Y-153515946D01*
X174070500Y-153515946D01*
X174070499Y-153035000D01*
X174070499Y-152137129D01*
X174070498Y-152137123D01*
X174070328Y-152135546D01*
X174064103Y-152077627D01*
X174064091Y-152077516D01*
X174013797Y-151942671D01*
X174013793Y-151942664D01*
X173927547Y-151827455D01*
X173927544Y-151827452D01*
X173812335Y-151741206D01*
X173812328Y-151741202D01*
X173677482Y-151690908D01*
X173677483Y-151690908D01*
X173617883Y-151684501D01*
X173617881Y-151684500D01*
X173617873Y-151684500D01*
X173617864Y-151684500D01*
X171822129Y-151684500D01*
X171822123Y-151684501D01*
X171762516Y-151690908D01*
X171627671Y-151741202D01*
X171627664Y-151741206D01*
X171512455Y-151827452D01*
X171512452Y-151827455D01*
X171426206Y-151942664D01*
X171426203Y-151942669D01*
X171377189Y-152074083D01*
X171335317Y-152130016D01*
X171269853Y-152154433D01*
X171201580Y-152139581D01*
X171173326Y-152118430D01*
X171059786Y-152004890D01*
X170887820Y-151879951D01*
X170698414Y-151783444D01*
X170698413Y-151783443D01*
X170698412Y-151783443D01*
X170496243Y-151717754D01*
X170496241Y-151717753D01*
X170496240Y-151717753D01*
X170334957Y-151692208D01*
X170286287Y-151684500D01*
X170073713Y-151684500D01*
X170025042Y-151692208D01*
X169863760Y-151717753D01*
X169661585Y-151783444D01*
X169472179Y-151879951D01*
X169300213Y-152004890D01*
X169149890Y-152155213D01*
X169024949Y-152327182D01*
X169020202Y-152336499D01*
X168972227Y-152387293D01*
X168904405Y-152404087D01*
X168838271Y-152381548D01*
X168799234Y-152336495D01*
X168794626Y-152327452D01*
X168755270Y-152273282D01*
X168755269Y-152273282D01*
X168122962Y-152905590D01*
X168105925Y-152842007D01*
X168040099Y-152727993D01*
X167947007Y-152634901D01*
X167832993Y-152569075D01*
X167769409Y-152552037D01*
X168401716Y-151919728D01*
X168347550Y-151880375D01*
X168158217Y-151783904D01*
X167956129Y-151718242D01*
X167746246Y-151685000D01*
X167533754Y-151685000D01*
X167323872Y-151718242D01*
X167323869Y-151718242D01*
X167121782Y-151783904D01*
X166932439Y-151880380D01*
X166878282Y-151919727D01*
X166878282Y-151919728D01*
X167510591Y-152552037D01*
X167447007Y-152569075D01*
X167332993Y-152634901D01*
X167239901Y-152727993D01*
X167174075Y-152842007D01*
X167157037Y-152905591D01*
X166524728Y-152273282D01*
X166524727Y-152273282D01*
X166485380Y-152327439D01*
X166388904Y-152516782D01*
X166323242Y-152718869D01*
X166323242Y-152718872D01*
X166290000Y-152928753D01*
X160509169Y-152928753D01*
X160485925Y-152842007D01*
X160453012Y-152785000D01*
X161370000Y-152785000D01*
X161370000Y-152137172D01*
X161369999Y-152137155D01*
X161363598Y-152077627D01*
X161363597Y-152077623D01*
X161338495Y-152010321D01*
X161338494Y-152010319D01*
X161313354Y-151942913D01*
X161313350Y-151942906D01*
X161227190Y-151827812D01*
X161227187Y-151827809D01*
X161112093Y-151741649D01*
X161112086Y-151741645D01*
X160977379Y-151691403D01*
X160977372Y-151691401D01*
X160917844Y-151685000D01*
X160270000Y-151685000D01*
X160270000Y-152601988D01*
X160212993Y-152569075D01*
X160085826Y-152535000D01*
X159954174Y-152535000D01*
X159827007Y-152569075D01*
X159770000Y-152601988D01*
X159770000Y-151685000D01*
X159122155Y-151685000D01*
X159062627Y-151691401D01*
X159062620Y-151691403D01*
X158927913Y-151741645D01*
X158927906Y-151741649D01*
X158812812Y-151827809D01*
X158812809Y-151827812D01*
X158726649Y-151942906D01*
X158726645Y-151942913D01*
X158676403Y-152077620D01*
X158676401Y-152077627D01*
X158670000Y-152137155D01*
X151209999Y-152137155D01*
X151203598Y-152077627D01*
X151203596Y-152077620D01*
X151153354Y-151942913D01*
X151153350Y-151942906D01*
X151067190Y-151827812D01*
X151067187Y-151827809D01*
X150952093Y-151741649D01*
X150952086Y-151741645D01*
X150817379Y-151691403D01*
X150817372Y-151691401D01*
X150757844Y-151685000D01*
X150110000Y-151685000D01*
X150110000Y-152601988D01*
X150052993Y-152569075D01*
X149925826Y-152535000D01*
X149794174Y-152535000D01*
X149667007Y-152569075D01*
X149610000Y-152601988D01*
X149610000Y-151685000D01*
X148962155Y-151685000D01*
X148902627Y-151691401D01*
X148902620Y-151691403D01*
X148767913Y-151741645D01*
X148767906Y-151741649D01*
X148652812Y-151827809D01*
X148652809Y-151827812D01*
X148566649Y-151942906D01*
X148566645Y-151942913D01*
X148516403Y-152077620D01*
X148516401Y-152077627D01*
X148510000Y-152137155D01*
X140244290Y-152137155D01*
X140335275Y-152046170D01*
X140368646Y-152012798D01*
X140339415Y-151991561D01*
X140168319Y-151904383D01*
X140102297Y-151882931D01*
X140044621Y-151843493D01*
X140017423Y-151779135D01*
X140029338Y-151710288D01*
X140076582Y-151658813D01*
X140102297Y-151647069D01*
X140168319Y-151625616D01*
X140339419Y-151538436D01*
X140368646Y-151517201D01*
X140368646Y-151517200D01*
X139746447Y-150895000D01*
X139752661Y-150895000D01*
X139854394Y-150867741D01*
X139945606Y-150815080D01*
X140020080Y-150740606D01*
X140072741Y-150649394D01*
X140100000Y-150547661D01*
X140100000Y-150541446D01*
X140722200Y-151163646D01*
X140722201Y-151163646D01*
X140743436Y-151134419D01*
X140830616Y-150963321D01*
X140889959Y-150780684D01*
X140920000Y-150591015D01*
X140920000Y-150398984D01*
X140889959Y-150209315D01*
X140830616Y-150026678D01*
X140743434Y-149855577D01*
X140722201Y-149826352D01*
X140722200Y-149826351D01*
X140100000Y-150448552D01*
X140100000Y-150442339D01*
X140072741Y-150340606D01*
X140020080Y-150249394D01*
X139945606Y-150174920D01*
X139854394Y-150122259D01*
X139752661Y-150095000D01*
X139746447Y-150095000D01*
X140368646Y-149472798D01*
X140339415Y-149451561D01*
X140168321Y-149364383D01*
X140103107Y-149343194D01*
X140045432Y-149303756D01*
X140018234Y-149239397D01*
X140030149Y-149170551D01*
X140077394Y-149119075D01*
X140103109Y-149107332D01*
X140168504Y-149086084D01*
X140168506Y-149086082D01*
X140168509Y-149086082D01*
X140339681Y-148998865D01*
X140495102Y-148885945D01*
X140630945Y-148750102D01*
X140743865Y-148594681D01*
X140831082Y-148423509D01*
X140890447Y-148240801D01*
X140920500Y-148051055D01*
X140920500Y-147858945D01*
X140890447Y-147669199D01*
X140831082Y-147486491D01*
X140743865Y-147315319D01*
X140630945Y-147159898D01*
X140495102Y-147024055D01*
X140339681Y-146911135D01*
X140168506Y-146823916D01*
X139985802Y-146764553D01*
X139890928Y-146749526D01*
X139796055Y-146734500D01*
X139603945Y-146734500D01*
X139540696Y-146744517D01*
X139414197Y-146764553D01*
X139231493Y-146823916D01*
X139060318Y-146911135D01*
X138971645Y-146975560D01*
X138904898Y-147024055D01*
X138904896Y-147024057D01*
X138904895Y-147024057D01*
X138769057Y-147159895D01*
X138769057Y-147159896D01*
X138769055Y-147159898D01*
X138720560Y-147226645D01*
X138656135Y-147315318D01*
X138568916Y-147486493D01*
X138509553Y-147669197D01*
X138479500Y-147858945D01*
X125730000Y-147858945D01*
X125730000Y-122927135D01*
X138349500Y-122927135D01*
X138349500Y-124722870D01*
X138349501Y-124722876D01*
X138355908Y-124782483D01*
X138406202Y-124917328D01*
X138406206Y-124917335D01*
X138492452Y-125032544D01*
X138492455Y-125032547D01*
X138607664Y-125118793D01*
X138607671Y-125118797D01*
X138742517Y-125169091D01*
X138742516Y-125169091D01*
X138749444Y-125169835D01*
X138802127Y-125175500D01*
X139340000Y-125175499D01*
X139340000Y-128977116D01*
X139219970Y-129016117D01*
X139044594Y-129105476D01*
X138953741Y-129171485D01*
X138885354Y-129221172D01*
X138885352Y-129221174D01*
X138885351Y-129221174D01*
X138746174Y-129360351D01*
X138746174Y-129360352D01*
X138746172Y-129360354D01*
X138696485Y-129428741D01*
X138630476Y-129519594D01*
X138541117Y-129694970D01*
X138480290Y-129882173D01*
X138449500Y-130076577D01*
X138449500Y-130273422D01*
X138480290Y-130467826D01*
X138541117Y-130655029D01*
X138630476Y-130830405D01*
X138746172Y-130989646D01*
X138885354Y-131128828D01*
X139044595Y-131244524D01*
X139167992Y-131307397D01*
X139221213Y-131334515D01*
X139272009Y-131382489D01*
X139288804Y-131450310D01*
X139266267Y-131516445D01*
X139221213Y-131555485D01*
X139044594Y-131645476D01*
X138953741Y-131711485D01*
X138885354Y-131761172D01*
X138885352Y-131761174D01*
X138885351Y-131761174D01*
X138746174Y-131900351D01*
X138746174Y-131900352D01*
X138746172Y-131900354D01*
X138696485Y-131968741D01*
X138630476Y-132059594D01*
X138541117Y-132234970D01*
X138480290Y-132422173D01*
X138449500Y-132616577D01*
X138449500Y-132813422D01*
X138480290Y-133007826D01*
X138541117Y-133195029D01*
X138630476Y-133370405D01*
X138746172Y-133529646D01*
X138885354Y-133668828D01*
X139038621Y-133780184D01*
X139081285Y-133835512D01*
X139087264Y-133905125D01*
X139054658Y-133966920D01*
X138993819Y-134001278D01*
X138965736Y-134004500D01*
X138902130Y-134004500D01*
X138902123Y-134004501D01*
X138842516Y-134010908D01*
X138707671Y-134061202D01*
X138707664Y-134061206D01*
X138592455Y-134147452D01*
X138592452Y-134147455D01*
X138506206Y-134262664D01*
X138506202Y-134262671D01*
X138455908Y-134397517D01*
X138449501Y-134457116D01*
X138449501Y-134457123D01*
X138449500Y-134457135D01*
X138449500Y-136052870D01*
X138449501Y-136052876D01*
X138455908Y-136112483D01*
X138506202Y-136247328D01*
X138506206Y-136247335D01*
X138592452Y-136362544D01*
X138592455Y-136362547D01*
X138707664Y-136448793D01*
X138707671Y-136448797D01*
X138842517Y-136499091D01*
X138842516Y-136499091D01*
X138849444Y-136499835D01*
X138902127Y-136505500D01*
X139700000Y-136505499D01*
X139700000Y-141524500D01*
X138802129Y-141524500D01*
X138802123Y-141524501D01*
X138742516Y-141530908D01*
X138607671Y-141581202D01*
X138607664Y-141581206D01*
X138492455Y-141667452D01*
X138492452Y-141667455D01*
X138406206Y-141782664D01*
X138406202Y-141782671D01*
X138355908Y-141917517D01*
X138349501Y-141977116D01*
X138349501Y-141977123D01*
X138349500Y-141977135D01*
X138349500Y-143772870D01*
X138349501Y-143772876D01*
X138355908Y-143832483D01*
X138406202Y-143967328D01*
X138406206Y-143967335D01*
X138492452Y-144082544D01*
X138492455Y-144082547D01*
X138607664Y-144168793D01*
X138607671Y-144168797D01*
X138742517Y-144219091D01*
X138742516Y-144219091D01*
X138749444Y-144219835D01*
X138802127Y-144225500D01*
X140597872Y-144225499D01*
X140657483Y-144219091D01*
X140792331Y-144168796D01*
X140907546Y-144082546D01*
X140993796Y-143967331D01*
X141044091Y-143832483D01*
X141050500Y-143772873D01*
X141050499Y-142875000D01*
X144780000Y-142875000D01*
X146423274Y-141437135D01*
X158749500Y-141437135D01*
X158749500Y-143232870D01*
X158749501Y-143232876D01*
X158755908Y-143292483D01*
X158806202Y-143427328D01*
X158806206Y-143427335D01*
X158892452Y-143542544D01*
X158892455Y-143542547D01*
X159007664Y-143628793D01*
X159007671Y-143628797D01*
X159052618Y-143645561D01*
X159142517Y-143679091D01*
X159202127Y-143685500D01*
X159212685Y-143685499D01*
X159279723Y-143705179D01*
X159300372Y-143721818D01*
X159970591Y-144392037D01*
X159907007Y-144409075D01*
X159792993Y-144474901D01*
X159699901Y-144567993D01*
X159634075Y-144682007D01*
X159617037Y-144745591D01*
X158984728Y-144113282D01*
X158984727Y-144113282D01*
X158945380Y-144167439D01*
X158848904Y-144356782D01*
X158783242Y-144558869D01*
X158783242Y-144558872D01*
X158750000Y-144768753D01*
X158750000Y-144981246D01*
X158783242Y-145191127D01*
X158783242Y-145191130D01*
X158848904Y-145393217D01*
X158945375Y-145582550D01*
X158984728Y-145636716D01*
X159617036Y-145004407D01*
X159634075Y-145067993D01*
X159699901Y-145182007D01*
X159792993Y-145275099D01*
X159907007Y-145340925D01*
X159970590Y-145357962D01*
X159338282Y-145990269D01*
X159338282Y-145990270D01*
X159392449Y-146029624D01*
X159581782Y-146126095D01*
X159783870Y-146191757D01*
X159993754Y-146225000D01*
X160206246Y-146225000D01*
X160416127Y-146191757D01*
X160416130Y-146191757D01*
X160618217Y-146126095D01*
X160807554Y-146029622D01*
X160861716Y-145990270D01*
X160861717Y-145990270D01*
X160229408Y-145357962D01*
X160292993Y-145340925D01*
X160407007Y-145275099D01*
X160500099Y-145182007D01*
X160565925Y-145067993D01*
X160582962Y-145004408D01*
X161215270Y-145636717D01*
X161215270Y-145636716D01*
X161254622Y-145582554D01*
X161351095Y-145393217D01*
X161384450Y-145290563D01*
X161416757Y-145191130D01*
X161416757Y-145191127D01*
X161450000Y-144981246D01*
X161450000Y-144768753D01*
X161416757Y-144558872D01*
X161416757Y-144558869D01*
X161351095Y-144356782D01*
X161254624Y-144167449D01*
X161215270Y-144113282D01*
X161215269Y-144113282D01*
X160582962Y-144745590D01*
X160565925Y-144682007D01*
X160500099Y-144567993D01*
X160407007Y-144474901D01*
X160292993Y-144409075D01*
X160229409Y-144392037D01*
X160899627Y-143721818D01*
X160960950Y-143688333D01*
X160987307Y-143685499D01*
X160997872Y-143685499D01*
X161057483Y-143679091D01*
X161192331Y-143628796D01*
X161307546Y-143542546D01*
X161393796Y-143427331D01*
X161444091Y-143292483D01*
X161450500Y-143232873D01*
X161450499Y-142002135D01*
X171369500Y-142002135D01*
X171369500Y-143797870D01*
X171369501Y-143797876D01*
X171375908Y-143857483D01*
X171426202Y-143992328D01*
X171426206Y-143992335D01*
X171512452Y-144107544D01*
X171512455Y-144107547D01*
X171627664Y-144193793D01*
X171627671Y-144193797D01*
X171672618Y-144210561D01*
X171762517Y-144244091D01*
X171822127Y-144250500D01*
X171832685Y-144250499D01*
X171899723Y-144270179D01*
X171920372Y-144286818D01*
X172590591Y-144957037D01*
X172527007Y-144974075D01*
X172412993Y-145039901D01*
X172319901Y-145132993D01*
X172254075Y-145247007D01*
X172237037Y-145310591D01*
X171604728Y-144678282D01*
X171604727Y-144678282D01*
X171565380Y-144732439D01*
X171468904Y-144921782D01*
X171403242Y-145123869D01*
X171403242Y-145123872D01*
X171370000Y-145333753D01*
X171370000Y-145546246D01*
X171403242Y-145756127D01*
X171403242Y-145756130D01*
X171468904Y-145958217D01*
X171565375Y-146147550D01*
X171604728Y-146201716D01*
X172237036Y-145569407D01*
X172254075Y-145632993D01*
X172319901Y-145747007D01*
X172412993Y-145840099D01*
X172527007Y-145905925D01*
X172590590Y-145922962D01*
X171958282Y-146555269D01*
X171958282Y-146555270D01*
X172012449Y-146594624D01*
X172201782Y-146691095D01*
X172403870Y-146756757D01*
X172613754Y-146790000D01*
X172826246Y-146790000D01*
X173036127Y-146756757D01*
X173036130Y-146756757D01*
X173238217Y-146691095D01*
X173427554Y-146594622D01*
X173481716Y-146555270D01*
X173481717Y-146555270D01*
X172849408Y-145922962D01*
X172912993Y-145905925D01*
X173027007Y-145840099D01*
X173120099Y-145747007D01*
X173185925Y-145632993D01*
X173202962Y-145569408D01*
X173835270Y-146201717D01*
X173835270Y-146201716D01*
X173874622Y-146147554D01*
X173971095Y-145958217D01*
X174036757Y-145756130D01*
X174036757Y-145756127D01*
X174070000Y-145546246D01*
X174070000Y-145333753D01*
X174036757Y-145123872D01*
X174036757Y-145123869D01*
X173971095Y-144921782D01*
X173874624Y-144732449D01*
X173835270Y-144678282D01*
X173835269Y-144678282D01*
X173202962Y-145310590D01*
X173185925Y-145247007D01*
X173120099Y-145132993D01*
X173027007Y-145039901D01*
X172912993Y-144974075D01*
X172849409Y-144957037D01*
X173519627Y-144286818D01*
X173580950Y-144253333D01*
X173607307Y-144250499D01*
X173617872Y-144250499D01*
X173677483Y-144244091D01*
X173812331Y-144193796D01*
X173927546Y-144107546D01*
X174013796Y-143992331D01*
X174064091Y-143857483D01*
X174070500Y-143797873D01*
X174070499Y-142002128D01*
X174064091Y-141942517D01*
X174054766Y-141917516D01*
X174013797Y-141807671D01*
X174013793Y-141807664D01*
X173927547Y-141692455D01*
X173927544Y-141692452D01*
X173812335Y-141606206D01*
X173812328Y-141606202D01*
X173677482Y-141555908D01*
X173677483Y-141555908D01*
X173617883Y-141549501D01*
X173617881Y-141549500D01*
X173617873Y-141549500D01*
X173617864Y-141549500D01*
X171822129Y-141549500D01*
X171822123Y-141549501D01*
X171762516Y-141555908D01*
X171627671Y-141606202D01*
X171627664Y-141606206D01*
X171512455Y-141692452D01*
X171512452Y-141692455D01*
X171426206Y-141807664D01*
X171426202Y-141807671D01*
X171375908Y-141942517D01*
X171372187Y-141977135D01*
X171369501Y-142002123D01*
X171369500Y-142002135D01*
X161450499Y-142002135D01*
X161450499Y-141437128D01*
X161444091Y-141377517D01*
X161393796Y-141242669D01*
X161393795Y-141242668D01*
X161393793Y-141242664D01*
X161307547Y-141127455D01*
X161307544Y-141127452D01*
X161192335Y-141041206D01*
X161192328Y-141041202D01*
X161057482Y-140990908D01*
X161057483Y-140990908D01*
X160997883Y-140984501D01*
X160997881Y-140984500D01*
X160997873Y-140984500D01*
X160997864Y-140984500D01*
X159202129Y-140984500D01*
X159202123Y-140984501D01*
X159142516Y-140990908D01*
X159007671Y-141041202D01*
X159007664Y-141041206D01*
X158892455Y-141127452D01*
X158892452Y-141127455D01*
X158806206Y-141242664D01*
X158806202Y-141242671D01*
X158755908Y-141377517D01*
X158749501Y-141437116D01*
X158749501Y-141437123D01*
X158749500Y-141437135D01*
X146423274Y-141437135D01*
X149860000Y-138430000D01*
X149860000Y-134065499D01*
X150757872Y-134065499D01*
X150817483Y-134059091D01*
X150952331Y-134008796D01*
X151067546Y-133922546D01*
X151153796Y-133807331D01*
X151204091Y-133672483D01*
X151210500Y-133612873D01*
X151210499Y-132715000D01*
X158769500Y-132715000D01*
X158769500Y-132813422D01*
X158800290Y-133007826D01*
X158861117Y-133195029D01*
X158950476Y-133370405D01*
X159066172Y-133529646D01*
X159205354Y-133668828D01*
X159358621Y-133780184D01*
X159401285Y-133835512D01*
X159407264Y-133905125D01*
X159374658Y-133966920D01*
X159313819Y-134001278D01*
X159285736Y-134004500D01*
X159222130Y-134004500D01*
X159222123Y-134004501D01*
X159162516Y-134010908D01*
X159027671Y-134061202D01*
X159027664Y-134061206D01*
X158912455Y-134147452D01*
X158912452Y-134147455D01*
X158826206Y-134262664D01*
X158826202Y-134262671D01*
X158775908Y-134397517D01*
X158769501Y-134457116D01*
X158769501Y-134457123D01*
X158769500Y-134457135D01*
X158769500Y-136052870D01*
X158769501Y-136052876D01*
X158775908Y-136112483D01*
X158826202Y-136247328D01*
X158826206Y-136247335D01*
X158912452Y-136362544D01*
X158912455Y-136362547D01*
X159027664Y-136448793D01*
X159027671Y-136448797D01*
X159162517Y-136499091D01*
X159162516Y-136499091D01*
X159169444Y-136499835D01*
X159222127Y-136505500D01*
X160817872Y-136505499D01*
X160877483Y-136499091D01*
X161012331Y-136448796D01*
X161127546Y-136362546D01*
X161213796Y-136247331D01*
X161264091Y-136112483D01*
X161270500Y-136052873D01*
X161270499Y-134457128D01*
X161264091Y-134397517D01*
X161213796Y-134262669D01*
X161213795Y-134262668D01*
X161213793Y-134262664D01*
X161127547Y-134147455D01*
X161127544Y-134147452D01*
X161012335Y-134061206D01*
X161012328Y-134061202D01*
X160877482Y-134010908D01*
X160877483Y-134010908D01*
X160817883Y-134004501D01*
X160817881Y-134004500D01*
X160817873Y-134004500D01*
X160817865Y-134004500D01*
X160754267Y-134004500D01*
X160687228Y-133984815D01*
X160641473Y-133932011D01*
X160631529Y-133862853D01*
X160660554Y-133799297D01*
X160681381Y-133780182D01*
X160834646Y-133668828D01*
X160973828Y-133529646D01*
X161089524Y-133370405D01*
X161178884Y-133195025D01*
X161239709Y-133007826D01*
X161270500Y-132813422D01*
X161270500Y-132616577D01*
X161239709Y-132422173D01*
X161178882Y-132234970D01*
X161089523Y-132059594D01*
X160973828Y-131900354D01*
X160834646Y-131761172D01*
X160755025Y-131703324D01*
X160675403Y-131645474D01*
X160498787Y-131555485D01*
X160447990Y-131507511D01*
X160431195Y-131439690D01*
X160453732Y-131373555D01*
X160498787Y-131334515D01*
X160675403Y-131244525D01*
X160675402Y-131244525D01*
X160675405Y-131244524D01*
X160834646Y-131128828D01*
X160973828Y-130989646D01*
X161089524Y-130830405D01*
X161178884Y-130655025D01*
X161239709Y-130467826D01*
X161270500Y-130273422D01*
X161270500Y-130076577D01*
X161239709Y-129882173D01*
X161178882Y-129694970D01*
X161089523Y-129519594D01*
X160973828Y-129360354D01*
X160834646Y-129221172D01*
X160675405Y-129105476D01*
X160500029Y-129016117D01*
X160312826Y-128955290D01*
X160118422Y-128924500D01*
X160118417Y-128924500D01*
X159921583Y-128924500D01*
X159921578Y-128924500D01*
X159727173Y-128955290D01*
X159660000Y-128977116D01*
X159660000Y-125175499D01*
X160917872Y-125175499D01*
X160977483Y-125169091D01*
X161112331Y-125118796D01*
X161227546Y-125032546D01*
X161313796Y-124917331D01*
X161364091Y-124782483D01*
X161370500Y-124722873D01*
X161370499Y-122927128D01*
X161364091Y-122867517D01*
X161313796Y-122732669D01*
X161313795Y-122732668D01*
X161313793Y-122732664D01*
X161227547Y-122617455D01*
X161227544Y-122617452D01*
X161112335Y-122531206D01*
X161112328Y-122531202D01*
X160977482Y-122480908D01*
X160977483Y-122480908D01*
X160917883Y-122474501D01*
X160917881Y-122474500D01*
X160917873Y-122474500D01*
X160917864Y-122474500D01*
X159660000Y-122474500D01*
X159660000Y-119995499D01*
X160817872Y-119995499D01*
X160877483Y-119989091D01*
X161012331Y-119938796D01*
X161127546Y-119852546D01*
X161213796Y-119737331D01*
X161264091Y-119602483D01*
X161270500Y-119542873D01*
X161270499Y-117947128D01*
X161264091Y-117887517D01*
X161213796Y-117752669D01*
X161213795Y-117752668D01*
X161213793Y-117752664D01*
X161127547Y-117637455D01*
X161127544Y-117637452D01*
X161012335Y-117551206D01*
X161012328Y-117551202D01*
X160877482Y-117500908D01*
X160877483Y-117500908D01*
X160817883Y-117494501D01*
X160817881Y-117494500D01*
X160817873Y-117494500D01*
X160817865Y-117494500D01*
X160754267Y-117494500D01*
X160687228Y-117474815D01*
X160641473Y-117422011D01*
X160631529Y-117352853D01*
X160660554Y-117289297D01*
X160681381Y-117270182D01*
X160834646Y-117158828D01*
X160973828Y-117019646D01*
X161089524Y-116860405D01*
X161178884Y-116685025D01*
X161239709Y-116497826D01*
X161270500Y-116303422D01*
X161270500Y-116106577D01*
X161239709Y-115912173D01*
X161178882Y-115724970D01*
X161089523Y-115549594D01*
X160973828Y-115390354D01*
X160834646Y-115251172D01*
X160755025Y-115193324D01*
X160675403Y-115135474D01*
X160498787Y-115045485D01*
X160447990Y-114997511D01*
X160431195Y-114929690D01*
X160453732Y-114863555D01*
X160498787Y-114824515D01*
X160675403Y-114734525D01*
X160675402Y-114734525D01*
X160675405Y-114734524D01*
X160834646Y-114618828D01*
X160973828Y-114479646D01*
X161089524Y-114320405D01*
X161178884Y-114145025D01*
X161239709Y-113957826D01*
X161270500Y-113763422D01*
X161270500Y-113566577D01*
X161239709Y-113372173D01*
X161178882Y-113184970D01*
X161089523Y-113009594D01*
X160973828Y-112850354D01*
X160834646Y-112711172D01*
X160675405Y-112595476D01*
X160500029Y-112506117D01*
X160312826Y-112445290D01*
X160118422Y-112414500D01*
X160118417Y-112414500D01*
X159921583Y-112414500D01*
X159921578Y-112414500D01*
X159727173Y-112445290D01*
X159539970Y-112506117D01*
X159364594Y-112595476D01*
X159273741Y-112661485D01*
X159205354Y-112711172D01*
X159205352Y-112711174D01*
X159205351Y-112711174D01*
X159066174Y-112850351D01*
X159066174Y-112850352D01*
X159066172Y-112850354D01*
X159016485Y-112918741D01*
X158950476Y-113009594D01*
X158861117Y-113184970D01*
X158800290Y-113372173D01*
X158769500Y-113566577D01*
X158769500Y-113763422D01*
X158800290Y-113957826D01*
X158861117Y-114145029D01*
X158950476Y-114320405D01*
X159066172Y-114479646D01*
X159205354Y-114618828D01*
X159364595Y-114734524D01*
X159487992Y-114797397D01*
X159541213Y-114824515D01*
X159592009Y-114872489D01*
X159608804Y-114940310D01*
X159586267Y-115006445D01*
X159541213Y-115045485D01*
X159364594Y-115135476D01*
X159273741Y-115201485D01*
X159205354Y-115251172D01*
X159205352Y-115251174D01*
X159205351Y-115251174D01*
X159066174Y-115390351D01*
X159066174Y-115390352D01*
X159066172Y-115390354D01*
X159016485Y-115458741D01*
X158950476Y-115549594D01*
X158861117Y-115724970D01*
X158800290Y-115912173D01*
X158769500Y-116106577D01*
X158769500Y-116205000D01*
X151210499Y-116205000D01*
X151210499Y-115307128D01*
X151204091Y-115247517D01*
X151162302Y-115135476D01*
X151153797Y-115112671D01*
X151153793Y-115112664D01*
X151067547Y-114997455D01*
X151067544Y-114997452D01*
X150952335Y-114911206D01*
X150952328Y-114911202D01*
X150817482Y-114860908D01*
X150817483Y-114860908D01*
X150757883Y-114854501D01*
X150757881Y-114854500D01*
X150757873Y-114854500D01*
X150757864Y-114854500D01*
X148962129Y-114854500D01*
X148962123Y-114854501D01*
X148902516Y-114860908D01*
X148767671Y-114911202D01*
X148767664Y-114911206D01*
X148652455Y-114997452D01*
X148652452Y-114997455D01*
X148566206Y-115112664D01*
X148566202Y-115112671D01*
X148515908Y-115247517D01*
X148509501Y-115307116D01*
X148509501Y-115307123D01*
X148509500Y-115307135D01*
X148509500Y-116205000D01*
X140950500Y-116205000D01*
X140950500Y-116106577D01*
X140919709Y-115912173D01*
X140858882Y-115724970D01*
X140769523Y-115549594D01*
X140653828Y-115390354D01*
X140514646Y-115251172D01*
X140435025Y-115193324D01*
X140355403Y-115135474D01*
X140178787Y-115045485D01*
X140127990Y-114997511D01*
X140111195Y-114929690D01*
X140133732Y-114863555D01*
X140178787Y-114824515D01*
X140355403Y-114734525D01*
X140355402Y-114734525D01*
X140355405Y-114734524D01*
X140514646Y-114618828D01*
X140653828Y-114479646D01*
X140769524Y-114320405D01*
X140858884Y-114145025D01*
X140919709Y-113957826D01*
X140950500Y-113763422D01*
X140950500Y-113566577D01*
X140919709Y-113372173D01*
X140858882Y-113184970D01*
X140769523Y-113009594D01*
X140653828Y-112850354D01*
X140514646Y-112711172D01*
X140355405Y-112595476D01*
X140180029Y-112506117D01*
X139992826Y-112445290D01*
X139798422Y-112414500D01*
X139798417Y-112414500D01*
X139601583Y-112414500D01*
X139601578Y-112414500D01*
X139407173Y-112445290D01*
X139219970Y-112506117D01*
X139044594Y-112595476D01*
X138953741Y-112661485D01*
X138885354Y-112711172D01*
X138885352Y-112711174D01*
X138885351Y-112711174D01*
X138746174Y-112850351D01*
X138746174Y-112850352D01*
X138746172Y-112850354D01*
X138696485Y-112918741D01*
X138630476Y-113009594D01*
X138541117Y-113184970D01*
X138480290Y-113372173D01*
X138449500Y-113566577D01*
X138449500Y-113763422D01*
X138480290Y-113957826D01*
X138541117Y-114145029D01*
X138630476Y-114320405D01*
X138746172Y-114479646D01*
X138885354Y-114618828D01*
X139044595Y-114734524D01*
X139167992Y-114797397D01*
X139221213Y-114824515D01*
X139272009Y-114872489D01*
X139288804Y-114940310D01*
X139266267Y-115006445D01*
X139221213Y-115045485D01*
X139044594Y-115135476D01*
X138953741Y-115201485D01*
X138885354Y-115251172D01*
X138885352Y-115251174D01*
X138885351Y-115251174D01*
X138746174Y-115390351D01*
X138746174Y-115390352D01*
X138746172Y-115390354D01*
X138696485Y-115458741D01*
X138630476Y-115549594D01*
X138541117Y-115724970D01*
X138480290Y-115912173D01*
X138449500Y-116106577D01*
X138449500Y-116303422D01*
X138480290Y-116497826D01*
X138541117Y-116685029D01*
X138630476Y-116860405D01*
X138746172Y-117019646D01*
X138885354Y-117158828D01*
X139038621Y-117270184D01*
X139081285Y-117325512D01*
X139087264Y-117395125D01*
X139054658Y-117456920D01*
X138993819Y-117491278D01*
X138965736Y-117494500D01*
X138902130Y-117494500D01*
X138902123Y-117494501D01*
X138842516Y-117500908D01*
X138707671Y-117551202D01*
X138707664Y-117551206D01*
X138592455Y-117637452D01*
X138592452Y-117637455D01*
X138506206Y-117752664D01*
X138506202Y-117752671D01*
X138455908Y-117887517D01*
X138449501Y-117947116D01*
X138449501Y-117947123D01*
X138449500Y-117947135D01*
X138449500Y-119542870D01*
X138449501Y-119542876D01*
X138455908Y-119602483D01*
X138506202Y-119737328D01*
X138506206Y-119737335D01*
X138592452Y-119852544D01*
X138592455Y-119852547D01*
X138707664Y-119938793D01*
X138707671Y-119938797D01*
X138842517Y-119989091D01*
X138842516Y-119989091D01*
X138849444Y-119989835D01*
X138902127Y-119995500D01*
X139340000Y-119995499D01*
X139340000Y-122474500D01*
X138802129Y-122474500D01*
X138802123Y-122474501D01*
X138742516Y-122480908D01*
X138607671Y-122531202D01*
X138607664Y-122531206D01*
X138492455Y-122617452D01*
X138492452Y-122617455D01*
X138406206Y-122732664D01*
X138406202Y-122732671D01*
X138355908Y-122867517D01*
X138349501Y-122927116D01*
X138349501Y-122927123D01*
X138349500Y-122927135D01*
X125730000Y-122927135D01*
X125730000Y-106417135D01*
X138349500Y-106417135D01*
X138349500Y-108212870D01*
X138349501Y-108212876D01*
X138355908Y-108272483D01*
X138406202Y-108407328D01*
X138406206Y-108407335D01*
X138492452Y-108522544D01*
X138492455Y-108522547D01*
X138607664Y-108608793D01*
X138607671Y-108608797D01*
X138742517Y-108659091D01*
X138742516Y-108659091D01*
X138749444Y-108659835D01*
X138802127Y-108665500D01*
X140597872Y-108665499D01*
X140657483Y-108659091D01*
X140792331Y-108608796D01*
X140907546Y-108522546D01*
X140993796Y-108407331D01*
X141044091Y-108272483D01*
X141050500Y-108212873D01*
X141050499Y-106417135D01*
X158669500Y-106417135D01*
X158669500Y-108212870D01*
X158669501Y-108212876D01*
X158675908Y-108272483D01*
X158726202Y-108407328D01*
X158726206Y-108407335D01*
X158812452Y-108522544D01*
X158812455Y-108522547D01*
X158927664Y-108608793D01*
X158927671Y-108608797D01*
X159062517Y-108659091D01*
X159062516Y-108659091D01*
X159069444Y-108659835D01*
X159122127Y-108665500D01*
X160917872Y-108665499D01*
X160977483Y-108659091D01*
X161112331Y-108608796D01*
X161227546Y-108522546D01*
X161313796Y-108407331D01*
X161364091Y-108272483D01*
X161370500Y-108212873D01*
X161370499Y-106417128D01*
X161364091Y-106357517D01*
X161313796Y-106222669D01*
X161313795Y-106222668D01*
X161313793Y-106222664D01*
X161227547Y-106107455D01*
X161227544Y-106107452D01*
X161112335Y-106021206D01*
X161112328Y-106021202D01*
X160977482Y-105970908D01*
X160977483Y-105970908D01*
X160917883Y-105964501D01*
X160917881Y-105964500D01*
X160917873Y-105964500D01*
X160917864Y-105964500D01*
X159122129Y-105964500D01*
X159122123Y-105964501D01*
X159062516Y-105970908D01*
X158927671Y-106021202D01*
X158927664Y-106021206D01*
X158812455Y-106107452D01*
X158812452Y-106107455D01*
X158726206Y-106222664D01*
X158726202Y-106222671D01*
X158675908Y-106357517D01*
X158669501Y-106417116D01*
X158669501Y-106417123D01*
X158669500Y-106417135D01*
X141050499Y-106417135D01*
X141050499Y-106417128D01*
X141044091Y-106357517D01*
X140993796Y-106222669D01*
X140993795Y-106222668D01*
X140993793Y-106222664D01*
X140907547Y-106107455D01*
X140907544Y-106107452D01*
X140792335Y-106021206D01*
X140792328Y-106021202D01*
X140657482Y-105970908D01*
X140657483Y-105970908D01*
X140597883Y-105964501D01*
X140597881Y-105964500D01*
X140597873Y-105964500D01*
X140597864Y-105964500D01*
X138802129Y-105964500D01*
X138802123Y-105964501D01*
X138742516Y-105970908D01*
X138607671Y-106021202D01*
X138607664Y-106021206D01*
X138492455Y-106107452D01*
X138492452Y-106107455D01*
X138406206Y-106222664D01*
X138406202Y-106222671D01*
X138355908Y-106357517D01*
X138349501Y-106417116D01*
X138349501Y-106417123D01*
X138349500Y-106417135D01*
X125730000Y-106417135D01*
X125730000Y-99592648D01*
X138399500Y-99592648D01*
X138399500Y-99797351D01*
X138431522Y-99999534D01*
X138494781Y-100194223D01*
X138587715Y-100376613D01*
X138708028Y-100542213D01*
X138852786Y-100686971D01*
X139007749Y-100799556D01*
X139018390Y-100807287D01*
X139134607Y-100866503D01*
X139200776Y-100900218D01*
X139200778Y-100900218D01*
X139200781Y-100900220D01*
X139305137Y-100934127D01*
X139395465Y-100963477D01*
X139496557Y-100979488D01*
X139597648Y-100995500D01*
X139597649Y-100995500D01*
X139802351Y-100995500D01*
X139802352Y-100995500D01*
X140004534Y-100963477D01*
X140199219Y-100900220D01*
X140381610Y-100807287D01*
X140474590Y-100739732D01*
X140547213Y-100686971D01*
X140547215Y-100686968D01*
X140547219Y-100686966D01*
X140691966Y-100542219D01*
X140691968Y-100542215D01*
X140691971Y-100542213D01*
X140744732Y-100469590D01*
X140812287Y-100376610D01*
X140905220Y-100194219D01*
X140968477Y-99999534D01*
X141000500Y-99797352D01*
X141000500Y-99592648D01*
X158719500Y-99592648D01*
X158719500Y-99797351D01*
X158751522Y-99999534D01*
X158814781Y-100194223D01*
X158907715Y-100376613D01*
X159028028Y-100542213D01*
X159172786Y-100686971D01*
X159327749Y-100799556D01*
X159338390Y-100807287D01*
X159454607Y-100866503D01*
X159520776Y-100900218D01*
X159520778Y-100900218D01*
X159520781Y-100900220D01*
X159625137Y-100934127D01*
X159715465Y-100963477D01*
X159816557Y-100979488D01*
X159917648Y-100995500D01*
X159917649Y-100995500D01*
X160122351Y-100995500D01*
X160122352Y-100995500D01*
X160324534Y-100963477D01*
X160519219Y-100900220D01*
X160701610Y-100807287D01*
X160794590Y-100739732D01*
X160867213Y-100686971D01*
X160867215Y-100686968D01*
X160867219Y-100686966D01*
X161011966Y-100542219D01*
X161011968Y-100542215D01*
X161011971Y-100542213D01*
X161064732Y-100469590D01*
X161132287Y-100376610D01*
X161225220Y-100194219D01*
X161288477Y-99999534D01*
X161320500Y-99797352D01*
X161320500Y-99592648D01*
X161288477Y-99390466D01*
X161225220Y-99195781D01*
X161225218Y-99195778D01*
X161225218Y-99195776D01*
X161191503Y-99129607D01*
X161132287Y-99013390D01*
X161124556Y-99002749D01*
X161011971Y-98847786D01*
X160867213Y-98703028D01*
X160701613Y-98582715D01*
X160701612Y-98582714D01*
X160701610Y-98582713D01*
X160644653Y-98553691D01*
X160519223Y-98489781D01*
X160324534Y-98426522D01*
X160149995Y-98398878D01*
X160122352Y-98394500D01*
X159917648Y-98394500D01*
X159893329Y-98398351D01*
X159715465Y-98426522D01*
X159520776Y-98489781D01*
X159338386Y-98582715D01*
X159172786Y-98703028D01*
X159028028Y-98847786D01*
X158907715Y-99013386D01*
X158814781Y-99195776D01*
X158751522Y-99390465D01*
X158719500Y-99592648D01*
X141000500Y-99592648D01*
X140968477Y-99390466D01*
X140905220Y-99195781D01*
X140905218Y-99195778D01*
X140905218Y-99195776D01*
X140871503Y-99129607D01*
X140812287Y-99013390D01*
X140804556Y-99002749D01*
X140691971Y-98847786D01*
X140547213Y-98703028D01*
X140381613Y-98582715D01*
X140381612Y-98582714D01*
X140381610Y-98582713D01*
X140324653Y-98553691D01*
X140199223Y-98489781D01*
X140004534Y-98426522D01*
X139829995Y-98398878D01*
X139802352Y-98394500D01*
X139597648Y-98394500D01*
X139573329Y-98398351D01*
X139395465Y-98426522D01*
X139200776Y-98489781D01*
X139018386Y-98582715D01*
X138852786Y-98703028D01*
X138708028Y-98847786D01*
X138587715Y-99013386D01*
X138494781Y-99195776D01*
X138431522Y-99390465D01*
X138399500Y-99592648D01*
X125730000Y-99592648D01*
X125730000Y-89432648D01*
X138399500Y-89432648D01*
X138399500Y-89637351D01*
X138431522Y-89839534D01*
X138494781Y-90034223D01*
X138587715Y-90216613D01*
X138708028Y-90382213D01*
X138852786Y-90526971D01*
X139007749Y-90639556D01*
X139018390Y-90647287D01*
X139134607Y-90706503D01*
X139200776Y-90740218D01*
X139200778Y-90740218D01*
X139200781Y-90740220D01*
X139305137Y-90774127D01*
X139395465Y-90803477D01*
X139496557Y-90819488D01*
X139597648Y-90835500D01*
X139597649Y-90835500D01*
X139802351Y-90835500D01*
X139802352Y-90835500D01*
X140004534Y-90803477D01*
X140199219Y-90740220D01*
X140381610Y-90647287D01*
X140474590Y-90579732D01*
X140547213Y-90526971D01*
X140547215Y-90526968D01*
X140547219Y-90526966D01*
X140691966Y-90382219D01*
X140691968Y-90382215D01*
X140691971Y-90382213D01*
X140744732Y-90309590D01*
X140812287Y-90216610D01*
X140905220Y-90034219D01*
X140968477Y-89839534D01*
X141000500Y-89637352D01*
X141000500Y-89432648D01*
X158719500Y-89432648D01*
X158719500Y-89637351D01*
X158751522Y-89839534D01*
X158814781Y-90034223D01*
X158907715Y-90216613D01*
X159028028Y-90382213D01*
X159172786Y-90526971D01*
X159327749Y-90639556D01*
X159338390Y-90647287D01*
X159454607Y-90706503D01*
X159520776Y-90740218D01*
X159520778Y-90740218D01*
X159520781Y-90740220D01*
X159625137Y-90774127D01*
X159715465Y-90803477D01*
X159816557Y-90819488D01*
X159917648Y-90835500D01*
X159917649Y-90835500D01*
X160122351Y-90835500D01*
X160122352Y-90835500D01*
X160324534Y-90803477D01*
X160519219Y-90740220D01*
X160701610Y-90647287D01*
X160794590Y-90579732D01*
X160867213Y-90526971D01*
X160867215Y-90526968D01*
X160867219Y-90526966D01*
X161011966Y-90382219D01*
X161011968Y-90382215D01*
X161011971Y-90382213D01*
X161064732Y-90309590D01*
X161132287Y-90216610D01*
X161225220Y-90034219D01*
X161288477Y-89839534D01*
X161320500Y-89637352D01*
X161320500Y-89432648D01*
X161288477Y-89230466D01*
X161225220Y-89035781D01*
X161225218Y-89035778D01*
X161225218Y-89035776D01*
X161191503Y-88969607D01*
X161132287Y-88853390D01*
X161124556Y-88842749D01*
X161011971Y-88687786D01*
X160867213Y-88543028D01*
X160701613Y-88422715D01*
X160701612Y-88422714D01*
X160701610Y-88422713D01*
X160644653Y-88393691D01*
X160519223Y-88329781D01*
X160324534Y-88266522D01*
X160149995Y-88238878D01*
X160122352Y-88234500D01*
X159917648Y-88234500D01*
X159893329Y-88238351D01*
X159715465Y-88266522D01*
X159520776Y-88329781D01*
X159338386Y-88422715D01*
X159172786Y-88543028D01*
X159028028Y-88687786D01*
X158907715Y-88853386D01*
X158814781Y-89035776D01*
X158751522Y-89230465D01*
X158719500Y-89432648D01*
X141000500Y-89432648D01*
X140968477Y-89230466D01*
X140905220Y-89035781D01*
X140905218Y-89035778D01*
X140905218Y-89035776D01*
X140871503Y-88969607D01*
X140812287Y-88853390D01*
X140804556Y-88842749D01*
X140691971Y-88687786D01*
X140547213Y-88543028D01*
X140381613Y-88422715D01*
X140381612Y-88422714D01*
X140381610Y-88422713D01*
X140324653Y-88393691D01*
X140199223Y-88329781D01*
X140004534Y-88266522D01*
X139829995Y-88238878D01*
X139802352Y-88234500D01*
X139597648Y-88234500D01*
X139573329Y-88238351D01*
X139395465Y-88266522D01*
X139200776Y-88329781D01*
X139018386Y-88422715D01*
X138852786Y-88543028D01*
X138708028Y-88687786D01*
X138587715Y-88853386D01*
X138494781Y-89035776D01*
X138431522Y-89230465D01*
X138399500Y-89432648D01*
X125730000Y-89432648D01*
X125730000Y-83078753D01*
X135810000Y-83078753D01*
X135810000Y-83291246D01*
X135843242Y-83501127D01*
X135843242Y-83501130D01*
X135908904Y-83703217D01*
X136005375Y-83892550D01*
X136044728Y-83946716D01*
X136677037Y-83314408D01*
X136694075Y-83377993D01*
X136759901Y-83492007D01*
X136852993Y-83585099D01*
X136967007Y-83650925D01*
X137030590Y-83667962D01*
X136398282Y-84300269D01*
X136398282Y-84300270D01*
X136452449Y-84339624D01*
X136641782Y-84436095D01*
X136843870Y-84501757D01*
X137053754Y-84535000D01*
X137266246Y-84535000D01*
X137476127Y-84501757D01*
X137476130Y-84501757D01*
X137678217Y-84436095D01*
X137867554Y-84339622D01*
X137921716Y-84300270D01*
X137921717Y-84300270D01*
X137289408Y-83667962D01*
X137352993Y-83650925D01*
X137467007Y-83585099D01*
X137560099Y-83492007D01*
X137625925Y-83377993D01*
X137642962Y-83314408D01*
X138313181Y-83984628D01*
X138346666Y-84045951D01*
X138349500Y-84072300D01*
X138349500Y-84082865D01*
X138349501Y-84082876D01*
X138355908Y-84142483D01*
X138406202Y-84277328D01*
X138406206Y-84277335D01*
X138492452Y-84392544D01*
X138492455Y-84392547D01*
X138607664Y-84478793D01*
X138607671Y-84478797D01*
X138742517Y-84529091D01*
X138742516Y-84529091D01*
X138749444Y-84529835D01*
X138802127Y-84535500D01*
X140597872Y-84535499D01*
X140657483Y-84529091D01*
X140792331Y-84478796D01*
X140907546Y-84392546D01*
X140993796Y-84277331D01*
X141044091Y-84142483D01*
X141050500Y-84082873D01*
X141050499Y-83082648D01*
X148559500Y-83082648D01*
X148559500Y-83287351D01*
X148591522Y-83489534D01*
X148654781Y-83684223D01*
X148747715Y-83866613D01*
X148868028Y-84032213D01*
X149012786Y-84176971D01*
X149150928Y-84277335D01*
X149178390Y-84297287D01*
X149261481Y-84339624D01*
X149360776Y-84390218D01*
X149360778Y-84390218D01*
X149360781Y-84390220D01*
X149465137Y-84424127D01*
X149555465Y-84453477D01*
X149656557Y-84469488D01*
X149757648Y-84485500D01*
X149757649Y-84485500D01*
X149962351Y-84485500D01*
X149962352Y-84485500D01*
X150164534Y-84453477D01*
X150359219Y-84390220D01*
X150541610Y-84297287D01*
X150634590Y-84229732D01*
X150707213Y-84176971D01*
X150707215Y-84176968D01*
X150707219Y-84176966D01*
X150851966Y-84032219D01*
X150851968Y-84032215D01*
X150851971Y-84032213D01*
X150914087Y-83946716D01*
X150972287Y-83866610D01*
X151065220Y-83684219D01*
X151128477Y-83489534D01*
X151160500Y-83287352D01*
X151160500Y-83082648D01*
X151128477Y-82880466D01*
X151127673Y-82877993D01*
X151065218Y-82685776D01*
X150972287Y-82503390D01*
X150865705Y-82356691D01*
X150865704Y-82356690D01*
X150851967Y-82337782D01*
X150801320Y-82287135D01*
X158669500Y-82287135D01*
X158669500Y-84082870D01*
X158669501Y-84082876D01*
X158675908Y-84142483D01*
X158726202Y-84277328D01*
X158726206Y-84277335D01*
X158812452Y-84392544D01*
X158812455Y-84392547D01*
X158927664Y-84478793D01*
X158927671Y-84478797D01*
X159062517Y-84529091D01*
X159062516Y-84529091D01*
X159069444Y-84529835D01*
X159122127Y-84535500D01*
X160917872Y-84535499D01*
X160977483Y-84529091D01*
X161112331Y-84478796D01*
X161227546Y-84392546D01*
X161313796Y-84277331D01*
X161364091Y-84142483D01*
X161370500Y-84082873D01*
X161370499Y-82287128D01*
X161364091Y-82227517D01*
X161351227Y-82193028D01*
X161313797Y-82092671D01*
X161313793Y-82092664D01*
X161227547Y-81977455D01*
X161227544Y-81977452D01*
X161112335Y-81891206D01*
X161112328Y-81891202D01*
X160977482Y-81840908D01*
X160977483Y-81840908D01*
X160917883Y-81834501D01*
X160917881Y-81834500D01*
X160917873Y-81834500D01*
X160917864Y-81834500D01*
X159122129Y-81834500D01*
X159122123Y-81834501D01*
X159062516Y-81840908D01*
X158927671Y-81891202D01*
X158927664Y-81891206D01*
X158812455Y-81977452D01*
X158812452Y-81977455D01*
X158726206Y-82092664D01*
X158726202Y-82092671D01*
X158675908Y-82227517D01*
X158669501Y-82287116D01*
X158669501Y-82287123D01*
X158669500Y-82287135D01*
X150801320Y-82287135D01*
X150707213Y-82193028D01*
X150541613Y-82072715D01*
X150541612Y-82072714D01*
X150541610Y-82072713D01*
X150458527Y-82030380D01*
X150359223Y-81979781D01*
X150164534Y-81916522D01*
X149989995Y-81888878D01*
X149962352Y-81884500D01*
X149757648Y-81884500D01*
X149733329Y-81888351D01*
X149555465Y-81916522D01*
X149360776Y-81979781D01*
X149178386Y-82072715D01*
X149012786Y-82193028D01*
X148868028Y-82337786D01*
X148747715Y-82503386D01*
X148654781Y-82685776D01*
X148591522Y-82880465D01*
X148559500Y-83082648D01*
X141050499Y-83082648D01*
X141050499Y-82287128D01*
X141044091Y-82227517D01*
X141031227Y-82193028D01*
X140993797Y-82092671D01*
X140993793Y-82092664D01*
X140907547Y-81977455D01*
X140907544Y-81977452D01*
X140792335Y-81891206D01*
X140792328Y-81891202D01*
X140657482Y-81840908D01*
X140657483Y-81840908D01*
X140597883Y-81834501D01*
X140597881Y-81834500D01*
X140597873Y-81834500D01*
X140597864Y-81834500D01*
X138802129Y-81834500D01*
X138802123Y-81834501D01*
X138742516Y-81840908D01*
X138607671Y-81891202D01*
X138607664Y-81891206D01*
X138492455Y-81977452D01*
X138492452Y-81977455D01*
X138406206Y-82092664D01*
X138406202Y-82092671D01*
X138355908Y-82227517D01*
X138349501Y-82287116D01*
X138349501Y-82287123D01*
X138349500Y-82287135D01*
X138349500Y-82297690D01*
X138329815Y-82364729D01*
X138313181Y-82385371D01*
X137642962Y-83055590D01*
X137625925Y-82992007D01*
X137560099Y-82877993D01*
X137467007Y-82784901D01*
X137352993Y-82719075D01*
X137289409Y-82702037D01*
X137921716Y-82069728D01*
X137867550Y-82030375D01*
X137678217Y-81933904D01*
X137476129Y-81868242D01*
X137266246Y-81835000D01*
X137053754Y-81835000D01*
X136843872Y-81868242D01*
X136843869Y-81868242D01*
X136641782Y-81933904D01*
X136452439Y-82030380D01*
X136398282Y-82069727D01*
X136398282Y-82069728D01*
X137030591Y-82702037D01*
X136967007Y-82719075D01*
X136852993Y-82784901D01*
X136759901Y-82877993D01*
X136694075Y-82992007D01*
X136677037Y-83055591D01*
X136044728Y-82423282D01*
X136044727Y-82423282D01*
X136005380Y-82477439D01*
X135908904Y-82666782D01*
X135843242Y-82868869D01*
X135843242Y-82868872D01*
X135810000Y-83078753D01*
X125730000Y-83078753D01*
X125730000Y-78082682D01*
X148560000Y-78082682D01*
X148560000Y-78287317D01*
X148592009Y-78489417D01*
X148655244Y-78684031D01*
X148748141Y-78866350D01*
X148748147Y-78866359D01*
X148780523Y-78910921D01*
X148780524Y-78910922D01*
X149460000Y-78231446D01*
X149460000Y-78237661D01*
X149487259Y-78339394D01*
X149539920Y-78430606D01*
X149614394Y-78505080D01*
X149705606Y-78557741D01*
X149807339Y-78585000D01*
X149813553Y-78585000D01*
X149134076Y-79264474D01*
X149178650Y-79296859D01*
X149360968Y-79389755D01*
X149555582Y-79452990D01*
X149757683Y-79485000D01*
X149962317Y-79485000D01*
X150164417Y-79452990D01*
X150359031Y-79389755D01*
X150541349Y-79296859D01*
X150585921Y-79264474D01*
X149906447Y-78585000D01*
X149912661Y-78585000D01*
X150014394Y-78557741D01*
X150105606Y-78505080D01*
X150180080Y-78430606D01*
X150232741Y-78339394D01*
X150260000Y-78237661D01*
X150260000Y-78231447D01*
X150939474Y-78910921D01*
X150971859Y-78866349D01*
X151064755Y-78684031D01*
X151127990Y-78489417D01*
X151160000Y-78287317D01*
X151160000Y-78082682D01*
X151127990Y-77880582D01*
X151064755Y-77685968D01*
X150971859Y-77503650D01*
X150939474Y-77459077D01*
X150939474Y-77459076D01*
X150260000Y-78138551D01*
X150260000Y-78132339D01*
X150232741Y-78030606D01*
X150180080Y-77939394D01*
X150105606Y-77864920D01*
X150014394Y-77812259D01*
X149912661Y-77785000D01*
X149906446Y-77785000D01*
X150585922Y-77105524D01*
X150585921Y-77105523D01*
X150541359Y-77073147D01*
X150541350Y-77073141D01*
X150359031Y-76980244D01*
X150164417Y-76917009D01*
X149962317Y-76885000D01*
X149757683Y-76885000D01*
X149555582Y-76917009D01*
X149360968Y-76980244D01*
X149178644Y-77073143D01*
X149134077Y-77105523D01*
X149134077Y-77105524D01*
X149813554Y-77785000D01*
X149807339Y-77785000D01*
X149705606Y-77812259D01*
X149614394Y-77864920D01*
X149539920Y-77939394D01*
X149487259Y-78030606D01*
X149460000Y-78132339D01*
X149460000Y-78138553D01*
X148780524Y-77459077D01*
X148780523Y-77459077D01*
X148748143Y-77503644D01*
X148655244Y-77685968D01*
X148592009Y-77880582D01*
X148560000Y-78082682D01*
X125730000Y-78082682D01*
X125730000Y-73505946D01*
X127189500Y-73505946D01*
X127189500Y-73814053D01*
X127189501Y-73814069D01*
X127229717Y-74119542D01*
X127309464Y-74417162D01*
X127427376Y-74701826D01*
X127427381Y-74701837D01*
X127464063Y-74765371D01*
X127581438Y-74968670D01*
X127581440Y-74968673D01*
X127581441Y-74968674D01*
X127769007Y-75213115D01*
X127769013Y-75213122D01*
X127986877Y-75430986D01*
X127986883Y-75430991D01*
X128231330Y-75618562D01*
X128402830Y-75717578D01*
X128498162Y-75772618D01*
X128498167Y-75772620D01*
X128498170Y-75772622D01*
X128782836Y-75890535D01*
X129080456Y-75970282D01*
X129385940Y-76010500D01*
X129385947Y-76010500D01*
X129694053Y-76010500D01*
X129694060Y-76010500D01*
X129999544Y-75970282D01*
X130297164Y-75890535D01*
X130581830Y-75772622D01*
X130848670Y-75618562D01*
X131056937Y-75458753D01*
X135810000Y-75458753D01*
X135810000Y-75671246D01*
X135843242Y-75881127D01*
X135843242Y-75881130D01*
X135908904Y-76083217D01*
X136005375Y-76272550D01*
X136044728Y-76326716D01*
X136677037Y-75694408D01*
X136694075Y-75757993D01*
X136759901Y-75872007D01*
X136852993Y-75965099D01*
X136967007Y-76030925D01*
X137030590Y-76047962D01*
X136398282Y-76680269D01*
X136398282Y-76680270D01*
X136452449Y-76719624D01*
X136641782Y-76816095D01*
X136843870Y-76881757D01*
X137053754Y-76915000D01*
X137266246Y-76915000D01*
X137476127Y-76881757D01*
X137476130Y-76881757D01*
X137678217Y-76816095D01*
X137867554Y-76719622D01*
X137921716Y-76680270D01*
X137921717Y-76680270D01*
X137289408Y-76047962D01*
X137352993Y-76030925D01*
X137467007Y-75965099D01*
X137560099Y-75872007D01*
X137625925Y-75757993D01*
X137642962Y-75694408D01*
X138313181Y-76364628D01*
X138346666Y-76425951D01*
X138349500Y-76452300D01*
X138349500Y-76462865D01*
X138349501Y-76462876D01*
X138355908Y-76522483D01*
X138406202Y-76657328D01*
X138406206Y-76657335D01*
X138492452Y-76772544D01*
X138492455Y-76772547D01*
X138607664Y-76858793D01*
X138607671Y-76858797D01*
X138742517Y-76909091D01*
X138742516Y-76909091D01*
X138749444Y-76909835D01*
X138802127Y-76915500D01*
X140597872Y-76915499D01*
X140657483Y-76909091D01*
X140792331Y-76858796D01*
X140907546Y-76772546D01*
X140993796Y-76657331D01*
X141044091Y-76522483D01*
X141050500Y-76462873D01*
X141050499Y-74667128D01*
X141044091Y-74607517D01*
X140993796Y-74472669D01*
X140993795Y-74472668D01*
X140993793Y-74472664D01*
X140907547Y-74357455D01*
X140907544Y-74357452D01*
X140792335Y-74271206D01*
X140792328Y-74271202D01*
X140657482Y-74220908D01*
X140657483Y-74220908D01*
X140597883Y-74214501D01*
X140597881Y-74214500D01*
X140597873Y-74214500D01*
X140597864Y-74214500D01*
X138802129Y-74214500D01*
X138802123Y-74214501D01*
X138742516Y-74220908D01*
X138607671Y-74271202D01*
X138607664Y-74271206D01*
X138492455Y-74357452D01*
X138492452Y-74357455D01*
X138406206Y-74472664D01*
X138406202Y-74472671D01*
X138355908Y-74607517D01*
X138349501Y-74667116D01*
X138349501Y-74667123D01*
X138349500Y-74667135D01*
X138349500Y-74677690D01*
X138329815Y-74744729D01*
X138313181Y-74765371D01*
X137642962Y-75435590D01*
X137625925Y-75372007D01*
X137560099Y-75257993D01*
X137467007Y-75164901D01*
X137352993Y-75099075D01*
X137289409Y-75082037D01*
X137921716Y-74449728D01*
X137867550Y-74410375D01*
X137678217Y-74313904D01*
X137476129Y-74248242D01*
X137266246Y-74215000D01*
X137053754Y-74215000D01*
X136843872Y-74248242D01*
X136843869Y-74248242D01*
X136641782Y-74313904D01*
X136452439Y-74410380D01*
X136398282Y-74449727D01*
X136398282Y-74449728D01*
X137030591Y-75082037D01*
X136967007Y-75099075D01*
X136852993Y-75164901D01*
X136759901Y-75257993D01*
X136694075Y-75372007D01*
X136677037Y-75435591D01*
X136044728Y-74803282D01*
X136044727Y-74803282D01*
X136005380Y-74857439D01*
X135908904Y-75046782D01*
X135843242Y-75248869D01*
X135843242Y-75248872D01*
X135810000Y-75458753D01*
X131056937Y-75458753D01*
X131093117Y-75430991D01*
X131093122Y-75430986D01*
X131157909Y-75366200D01*
X131310986Y-75213122D01*
X131310991Y-75213117D01*
X131498562Y-74968670D01*
X131652622Y-74701830D01*
X131770535Y-74417164D01*
X131850282Y-74119544D01*
X131890500Y-73814060D01*
X131890500Y-73505946D01*
X180529500Y-73505946D01*
X180529500Y-73814053D01*
X180529501Y-73814069D01*
X180569717Y-74119542D01*
X180649464Y-74417162D01*
X180767376Y-74701826D01*
X180767381Y-74701837D01*
X180804063Y-74765371D01*
X180921438Y-74968670D01*
X180921440Y-74968673D01*
X180921441Y-74968674D01*
X181109007Y-75213115D01*
X181109013Y-75213122D01*
X181326877Y-75430986D01*
X181326883Y-75430991D01*
X181571330Y-75618562D01*
X181742830Y-75717578D01*
X181838162Y-75772618D01*
X181838167Y-75772620D01*
X181838170Y-75772622D01*
X182122836Y-75890535D01*
X182420456Y-75970282D01*
X182725940Y-76010500D01*
X182725947Y-76010500D01*
X183034053Y-76010500D01*
X183034060Y-76010500D01*
X183339544Y-75970282D01*
X183637164Y-75890535D01*
X183921830Y-75772622D01*
X184188670Y-75618562D01*
X184433117Y-75430991D01*
X184650991Y-75213117D01*
X184838562Y-74968670D01*
X184992622Y-74701830D01*
X185110535Y-74417164D01*
X185190282Y-74119544D01*
X185230500Y-73814060D01*
X185230500Y-73505940D01*
X185190282Y-73200456D01*
X185110535Y-72902836D01*
X184992622Y-72618170D01*
X184992620Y-72618167D01*
X184992618Y-72618162D01*
X184937578Y-72522830D01*
X184838562Y-72351330D01*
X184650991Y-72106883D01*
X184650986Y-72106877D01*
X184433122Y-71889013D01*
X184433115Y-71889007D01*
X184188674Y-71701441D01*
X184188673Y-71701440D01*
X184188670Y-71701438D01*
X184082280Y-71640014D01*
X183921837Y-71547381D01*
X183921826Y-71547376D01*
X183637162Y-71429464D01*
X183339542Y-71349717D01*
X183034069Y-71309501D01*
X183034066Y-71309500D01*
X183034060Y-71309500D01*
X182725940Y-71309500D01*
X182725934Y-71309500D01*
X182725930Y-71309501D01*
X182420457Y-71349717D01*
X182122837Y-71429464D01*
X181838173Y-71547376D01*
X181838162Y-71547381D01*
X181571325Y-71701441D01*
X181326884Y-71889007D01*
X181326877Y-71889013D01*
X181109013Y-72106877D01*
X181109007Y-72106884D01*
X180921441Y-72351325D01*
X180767381Y-72618162D01*
X180767376Y-72618173D01*
X180649464Y-72902837D01*
X180569717Y-73200457D01*
X180529501Y-73505930D01*
X180529500Y-73505946D01*
X131890500Y-73505946D01*
X131890500Y-73505940D01*
X131850282Y-73200456D01*
X131770535Y-72902836D01*
X131652622Y-72618170D01*
X131652620Y-72618167D01*
X131652618Y-72618162D01*
X131597578Y-72522830D01*
X131498562Y-72351330D01*
X131310991Y-72106883D01*
X131310986Y-72106877D01*
X131093122Y-71889013D01*
X131093115Y-71889007D01*
X130848674Y-71701441D01*
X130848673Y-71701440D01*
X130848670Y-71701438D01*
X130742280Y-71640014D01*
X130581837Y-71547381D01*
X130581826Y-71547376D01*
X130297162Y-71429464D01*
X129999542Y-71349717D01*
X129694069Y-71309501D01*
X129694066Y-71309500D01*
X129694060Y-71309500D01*
X129385940Y-71309500D01*
X129385934Y-71309500D01*
X129385930Y-71309501D01*
X129080457Y-71349717D01*
X128782837Y-71429464D01*
X128498173Y-71547376D01*
X128498162Y-71547381D01*
X128231325Y-71701441D01*
X127986884Y-71889007D01*
X127986877Y-71889013D01*
X127769013Y-72106877D01*
X127769007Y-72106884D01*
X127581441Y-72351325D01*
X127427381Y-72618162D01*
X127427376Y-72618173D01*
X127309464Y-72902837D01*
X127229717Y-73200457D01*
X127189501Y-73505930D01*
X127189500Y-73505946D01*
X125730000Y-73505946D01*
X125730000Y-69974000D01*
X125749685Y-69906961D01*
X125802489Y-69861206D01*
X125854000Y-69850000D01*
X186566000Y-69850000D01*
X186633039Y-69869685D01*
G37*
%TD.AperFunction*%
%TD*%
M02*
