%TF.GenerationSoftware,KiCad,Pcbnew,9.0.6-9.0.6~ubuntu22.04.1*%
%TF.CreationDate,2025-12-31T15:52:49+01:00*%
%TF.ProjectId,Symmetric_Wilson_Current_Mirror_Plain,53796d6d-6574-4726-9963-5f57696c736f,rev?*%
%TF.SameCoordinates,Original*%
%TF.FileFunction,Legend,Top*%
%TF.FilePolarity,Positive*%
%FSLAX46Y46*%
G04 Gerber Fmt 4.6, Leading zero omitted, Abs format (unit mm)*
G04 Created by KiCad (PCBNEW 9.0.6-9.0.6~ubuntu22.04.1) date 2025-12-31 15:52:49*
%MOMM*%
%LPD*%
G01*
G04 APERTURE LIST*
%ADD10C,0.200000*%
%ADD11C,0.250000*%
%ADD12C,0.300000*%
%ADD13C,0.150000*%
%ADD14C,0.120000*%
G04 APERTURE END LIST*
D10*
X139700000Y-142875000D02*
X139700000Y-135255000D01*
X139700000Y-142875000D02*
X144780000Y-142875000D01*
X160020000Y-83185000D02*
X160020000Y-89535000D01*
X160100000Y-142335000D02*
X162560000Y-142335000D01*
X162560000Y-142335000D02*
X168910000Y-148590000D01*
X160020000Y-107315000D02*
X160020000Y-113030000D01*
X139700000Y-123825000D02*
X139700000Y-118745000D01*
X149860000Y-116205000D02*
X149860000Y-119380000D01*
X139700000Y-83185000D02*
X139700000Y-75565000D01*
X149860000Y-116205000D02*
X159660000Y-116205000D01*
X160020000Y-129540000D02*
X160020000Y-123825000D01*
X139340000Y-116205000D02*
X149860000Y-116205000D01*
X149860000Y-132715000D02*
X159660000Y-132715000D01*
X160020000Y-99060000D02*
X160020000Y-107315000D01*
X160020000Y-118745000D02*
X160020000Y-123825000D01*
X139700000Y-83185000D02*
X139700000Y-88900000D01*
X139700000Y-113030000D02*
X139700000Y-107315000D01*
X139700000Y-147955000D02*
X139700000Y-142875000D01*
X149860000Y-119380000D02*
X154940000Y-123825000D01*
X139700000Y-123825000D02*
X139700000Y-129540000D01*
X160100000Y-142335000D02*
X160020000Y-135255000D01*
X139340000Y-132715000D02*
X149860000Y-132715000D01*
X139700000Y-100330000D02*
X139700000Y-107315000D01*
X160020000Y-123825000D02*
X154940000Y-123825000D01*
X149860000Y-138430000D02*
X149860000Y-132715000D01*
X160020000Y-83185000D02*
X149860000Y-83185000D01*
X144780000Y-142875000D02*
X149860000Y-138430000D01*
X149860000Y-83185000D02*
X139700000Y-83185000D01*
D11*
X155866377Y-144912238D02*
X155771139Y-144864619D01*
X155771139Y-144864619D02*
X155628282Y-144864619D01*
X155628282Y-144864619D02*
X155485425Y-144912238D01*
X155485425Y-144912238D02*
X155390187Y-145007476D01*
X155390187Y-145007476D02*
X155342568Y-145102714D01*
X155342568Y-145102714D02*
X155294949Y-145293190D01*
X155294949Y-145293190D02*
X155294949Y-145436047D01*
X155294949Y-145436047D02*
X155342568Y-145626523D01*
X155342568Y-145626523D02*
X155390187Y-145721761D01*
X155390187Y-145721761D02*
X155485425Y-145817000D01*
X155485425Y-145817000D02*
X155628282Y-145864619D01*
X155628282Y-145864619D02*
X155723520Y-145864619D01*
X155723520Y-145864619D02*
X155866377Y-145817000D01*
X155866377Y-145817000D02*
X155913996Y-145769380D01*
X155913996Y-145769380D02*
X155913996Y-145436047D01*
X155913996Y-145436047D02*
X155723520Y-145436047D01*
X156342568Y-145864619D02*
X156342568Y-144864619D01*
X156342568Y-144864619D02*
X156913996Y-145864619D01*
X156913996Y-145864619D02*
X156913996Y-144864619D01*
X157390187Y-145864619D02*
X157390187Y-144864619D01*
X157390187Y-144864619D02*
X157628282Y-144864619D01*
X157628282Y-144864619D02*
X157771139Y-144912238D01*
X157771139Y-144912238D02*
X157866377Y-145007476D01*
X157866377Y-145007476D02*
X157913996Y-145102714D01*
X157913996Y-145102714D02*
X157961615Y-145293190D01*
X157961615Y-145293190D02*
X157961615Y-145436047D01*
X157961615Y-145436047D02*
X157913996Y-145626523D01*
X157913996Y-145626523D02*
X157866377Y-145721761D01*
X157866377Y-145721761D02*
X157771139Y-145817000D01*
X157771139Y-145817000D02*
X157628282Y-145864619D01*
X157628282Y-145864619D02*
X157390187Y-145864619D01*
X168566377Y-145597238D02*
X168471139Y-145549619D01*
X168471139Y-145549619D02*
X168328282Y-145549619D01*
X168328282Y-145549619D02*
X168185425Y-145597238D01*
X168185425Y-145597238D02*
X168090187Y-145692476D01*
X168090187Y-145692476D02*
X168042568Y-145787714D01*
X168042568Y-145787714D02*
X167994949Y-145978190D01*
X167994949Y-145978190D02*
X167994949Y-146121047D01*
X167994949Y-146121047D02*
X168042568Y-146311523D01*
X168042568Y-146311523D02*
X168090187Y-146406761D01*
X168090187Y-146406761D02*
X168185425Y-146502000D01*
X168185425Y-146502000D02*
X168328282Y-146549619D01*
X168328282Y-146549619D02*
X168423520Y-146549619D01*
X168423520Y-146549619D02*
X168566377Y-146502000D01*
X168566377Y-146502000D02*
X168613996Y-146454380D01*
X168613996Y-146454380D02*
X168613996Y-146121047D01*
X168613996Y-146121047D02*
X168423520Y-146121047D01*
X169042568Y-146549619D02*
X169042568Y-145549619D01*
X169042568Y-145549619D02*
X169613996Y-146549619D01*
X169613996Y-146549619D02*
X169613996Y-145549619D01*
X170090187Y-146549619D02*
X170090187Y-145549619D01*
X170090187Y-145549619D02*
X170328282Y-145549619D01*
X170328282Y-145549619D02*
X170471139Y-145597238D01*
X170471139Y-145597238D02*
X170566377Y-145692476D01*
X170566377Y-145692476D02*
X170613996Y-145787714D01*
X170613996Y-145787714D02*
X170661615Y-145978190D01*
X170661615Y-145978190D02*
X170661615Y-146121047D01*
X170661615Y-146121047D02*
X170613996Y-146311523D01*
X170613996Y-146311523D02*
X170566377Y-146406761D01*
X170566377Y-146406761D02*
X170471139Y-146502000D01*
X170471139Y-146502000D02*
X170328282Y-146549619D01*
X170328282Y-146549619D02*
X170090187Y-146549619D01*
D12*
X141810828Y-81160713D02*
X143310828Y-80660713D01*
X143310828Y-80660713D02*
X141810828Y-80160713D01*
X143239400Y-79017857D02*
X143310828Y-79160714D01*
X143310828Y-79160714D02*
X143310828Y-79446428D01*
X143310828Y-79446428D02*
X143239400Y-79589285D01*
X143239400Y-79589285D02*
X143167971Y-79660714D01*
X143167971Y-79660714D02*
X143025114Y-79732142D01*
X143025114Y-79732142D02*
X142596542Y-79732142D01*
X142596542Y-79732142D02*
X142453685Y-79660714D01*
X142453685Y-79660714D02*
X142382257Y-79589285D01*
X142382257Y-79589285D02*
X142310828Y-79446428D01*
X142310828Y-79446428D02*
X142310828Y-79160714D01*
X142310828Y-79160714D02*
X142382257Y-79017857D01*
X143239400Y-77732143D02*
X143310828Y-77875000D01*
X143310828Y-77875000D02*
X143310828Y-78160714D01*
X143310828Y-78160714D02*
X143239400Y-78303571D01*
X143239400Y-78303571D02*
X143167971Y-78375000D01*
X143167971Y-78375000D02*
X143025114Y-78446428D01*
X143025114Y-78446428D02*
X142596542Y-78446428D01*
X142596542Y-78446428D02*
X142453685Y-78375000D01*
X142453685Y-78375000D02*
X142382257Y-78303571D01*
X142382257Y-78303571D02*
X142310828Y-78160714D01*
X142310828Y-78160714D02*
X142310828Y-77875000D01*
X142310828Y-77875000D02*
X142382257Y-77732143D01*
X158677368Y-76905828D02*
X158677368Y-77905828D01*
X158034510Y-76905828D02*
X158034510Y-77691542D01*
X158034510Y-77691542D02*
X158105939Y-77834400D01*
X158105939Y-77834400D02*
X158248796Y-77905828D01*
X158248796Y-77905828D02*
X158463082Y-77905828D01*
X158463082Y-77905828D02*
X158605939Y-77834400D01*
X158605939Y-77834400D02*
X158677368Y-77762971D01*
X159177368Y-76905828D02*
X159748796Y-76905828D01*
X159391653Y-77905828D02*
X159391653Y-76620114D01*
X159391653Y-76620114D02*
X159463082Y-76477257D01*
X159463082Y-76477257D02*
X159605939Y-76405828D01*
X159605939Y-76405828D02*
X159748796Y-76405828D01*
X160820225Y-77834400D02*
X160677368Y-77905828D01*
X160677368Y-77905828D02*
X160391654Y-77905828D01*
X160391654Y-77905828D02*
X160248796Y-77834400D01*
X160248796Y-77834400D02*
X160177368Y-77691542D01*
X160177368Y-77691542D02*
X160177368Y-77120114D01*
X160177368Y-77120114D02*
X160248796Y-76977257D01*
X160248796Y-76977257D02*
X160391654Y-76905828D01*
X160391654Y-76905828D02*
X160677368Y-76905828D01*
X160677368Y-76905828D02*
X160820225Y-76977257D01*
X160820225Y-76977257D02*
X160891654Y-77120114D01*
X160891654Y-77120114D02*
X160891654Y-77262971D01*
X160891654Y-77262971D02*
X160177368Y-77405828D01*
X161748796Y-77905828D02*
X161605939Y-77834400D01*
X161605939Y-77834400D02*
X161534510Y-77691542D01*
X161534510Y-77691542D02*
X161534510Y-76405828D01*
X162891653Y-77834400D02*
X162748796Y-77905828D01*
X162748796Y-77905828D02*
X162463082Y-77905828D01*
X162463082Y-77905828D02*
X162320224Y-77834400D01*
X162320224Y-77834400D02*
X162248796Y-77691542D01*
X162248796Y-77691542D02*
X162248796Y-77120114D01*
X162248796Y-77120114D02*
X162320224Y-76977257D01*
X162320224Y-76977257D02*
X162463082Y-76905828D01*
X162463082Y-76905828D02*
X162748796Y-76905828D01*
X162748796Y-76905828D02*
X162891653Y-76977257D01*
X162891653Y-76977257D02*
X162963082Y-77120114D01*
X162963082Y-77120114D02*
X162963082Y-77262971D01*
X162963082Y-77262971D02*
X162248796Y-77405828D01*
X164248796Y-77834400D02*
X164105938Y-77905828D01*
X164105938Y-77905828D02*
X163820224Y-77905828D01*
X163820224Y-77905828D02*
X163677367Y-77834400D01*
X163677367Y-77834400D02*
X163605938Y-77762971D01*
X163605938Y-77762971D02*
X163534510Y-77620114D01*
X163534510Y-77620114D02*
X163534510Y-77191542D01*
X163534510Y-77191542D02*
X163605938Y-77048685D01*
X163605938Y-77048685D02*
X163677367Y-76977257D01*
X163677367Y-76977257D02*
X163820224Y-76905828D01*
X163820224Y-76905828D02*
X164105938Y-76905828D01*
X164105938Y-76905828D02*
X164248796Y-76977257D01*
X164677367Y-76905828D02*
X165248795Y-76905828D01*
X164891652Y-76405828D02*
X164891652Y-77691542D01*
X164891652Y-77691542D02*
X164963081Y-77834400D01*
X164963081Y-77834400D02*
X165105938Y-77905828D01*
X165105938Y-77905828D02*
X165248795Y-77905828D01*
X165748795Y-77905828D02*
X165748795Y-76905828D01*
X165748795Y-77191542D02*
X165820224Y-77048685D01*
X165820224Y-77048685D02*
X165891653Y-76977257D01*
X165891653Y-76977257D02*
X166034510Y-76905828D01*
X166034510Y-76905828D02*
X166177367Y-76905828D01*
X166891652Y-77905828D02*
X166748795Y-77834400D01*
X166748795Y-77834400D02*
X166677366Y-77762971D01*
X166677366Y-77762971D02*
X166605938Y-77620114D01*
X166605938Y-77620114D02*
X166605938Y-77191542D01*
X166605938Y-77191542D02*
X166677366Y-77048685D01*
X166677366Y-77048685D02*
X166748795Y-76977257D01*
X166748795Y-76977257D02*
X166891652Y-76905828D01*
X166891652Y-76905828D02*
X167105938Y-76905828D01*
X167105938Y-76905828D02*
X167248795Y-76977257D01*
X167248795Y-76977257D02*
X167320224Y-77048685D01*
X167320224Y-77048685D02*
X167391652Y-77191542D01*
X167391652Y-77191542D02*
X167391652Y-77620114D01*
X167391652Y-77620114D02*
X167320224Y-77762971D01*
X167320224Y-77762971D02*
X167248795Y-77834400D01*
X167248795Y-77834400D02*
X167105938Y-77905828D01*
X167105938Y-77905828D02*
X166891652Y-77905828D01*
X168034509Y-76905828D02*
X168034509Y-77905828D01*
X168034509Y-77048685D02*
X168105938Y-76977257D01*
X168105938Y-76977257D02*
X168248795Y-76905828D01*
X168248795Y-76905828D02*
X168463081Y-76905828D01*
X168463081Y-76905828D02*
X168605938Y-76977257D01*
X168605938Y-76977257D02*
X168677367Y-77120114D01*
X168677367Y-77120114D02*
X168677367Y-77905828D01*
X169391652Y-77905828D02*
X169391652Y-76905828D01*
X169391652Y-76405828D02*
X169320224Y-76477257D01*
X169320224Y-76477257D02*
X169391652Y-76548685D01*
X169391652Y-76548685D02*
X169463081Y-76477257D01*
X169463081Y-76477257D02*
X169391652Y-76405828D01*
X169391652Y-76405828D02*
X169391652Y-76548685D01*
X170748796Y-77834400D02*
X170605938Y-77905828D01*
X170605938Y-77905828D02*
X170320224Y-77905828D01*
X170320224Y-77905828D02*
X170177367Y-77834400D01*
X170177367Y-77834400D02*
X170105938Y-77762971D01*
X170105938Y-77762971D02*
X170034510Y-77620114D01*
X170034510Y-77620114D02*
X170034510Y-77191542D01*
X170034510Y-77191542D02*
X170105938Y-77048685D01*
X170105938Y-77048685D02*
X170177367Y-76977257D01*
X170177367Y-76977257D02*
X170320224Y-76905828D01*
X170320224Y-76905828D02*
X170605938Y-76905828D01*
X170605938Y-76905828D02*
X170748796Y-76977257D01*
X171320224Y-77834400D02*
X171463081Y-77905828D01*
X171463081Y-77905828D02*
X171748795Y-77905828D01*
X171748795Y-77905828D02*
X171891652Y-77834400D01*
X171891652Y-77834400D02*
X171963081Y-77691542D01*
X171963081Y-77691542D02*
X171963081Y-77620114D01*
X171963081Y-77620114D02*
X171891652Y-77477257D01*
X171891652Y-77477257D02*
X171748795Y-77405828D01*
X171748795Y-77405828D02*
X171534510Y-77405828D01*
X171534510Y-77405828D02*
X171391652Y-77334400D01*
X171391652Y-77334400D02*
X171320224Y-77191542D01*
X171320224Y-77191542D02*
X171320224Y-77120114D01*
X171320224Y-77120114D02*
X171391652Y-76977257D01*
X171391652Y-76977257D02*
X171534510Y-76905828D01*
X171534510Y-76905828D02*
X171748795Y-76905828D01*
X171748795Y-76905828D02*
X171891652Y-76977257D01*
X172605938Y-77762971D02*
X172677367Y-77834400D01*
X172677367Y-77834400D02*
X172605938Y-77905828D01*
X172605938Y-77905828D02*
X172534510Y-77834400D01*
X172534510Y-77834400D02*
X172605938Y-77762971D01*
X172605938Y-77762971D02*
X172605938Y-77905828D01*
X173891653Y-77834400D02*
X173748796Y-77905828D01*
X173748796Y-77905828D02*
X173463082Y-77905828D01*
X173463082Y-77905828D02*
X173320224Y-77834400D01*
X173320224Y-77834400D02*
X173248796Y-77691542D01*
X173248796Y-77691542D02*
X173248796Y-77120114D01*
X173248796Y-77120114D02*
X173320224Y-76977257D01*
X173320224Y-76977257D02*
X173463082Y-76905828D01*
X173463082Y-76905828D02*
X173748796Y-76905828D01*
X173748796Y-76905828D02*
X173891653Y-76977257D01*
X173891653Y-76977257D02*
X173963082Y-77120114D01*
X173963082Y-77120114D02*
X173963082Y-77262971D01*
X173963082Y-77262971D02*
X173248796Y-77405828D01*
X175248796Y-76905828D02*
X175248796Y-77905828D01*
X174605938Y-76905828D02*
X174605938Y-77691542D01*
X174605938Y-77691542D02*
X174677367Y-77834400D01*
X174677367Y-77834400D02*
X174820224Y-77905828D01*
X174820224Y-77905828D02*
X175034510Y-77905828D01*
X175034510Y-77905828D02*
X175177367Y-77834400D01*
X175177367Y-77834400D02*
X175248796Y-77762971D01*
D11*
X155294949Y-142692000D02*
X155437806Y-142739619D01*
X155437806Y-142739619D02*
X155675901Y-142739619D01*
X155675901Y-142739619D02*
X155771139Y-142692000D01*
X155771139Y-142692000D02*
X155818758Y-142644380D01*
X155818758Y-142644380D02*
X155866377Y-142549142D01*
X155866377Y-142549142D02*
X155866377Y-142453904D01*
X155866377Y-142453904D02*
X155818758Y-142358666D01*
X155818758Y-142358666D02*
X155771139Y-142311047D01*
X155771139Y-142311047D02*
X155675901Y-142263428D01*
X155675901Y-142263428D02*
X155485425Y-142215809D01*
X155485425Y-142215809D02*
X155390187Y-142168190D01*
X155390187Y-142168190D02*
X155342568Y-142120571D01*
X155342568Y-142120571D02*
X155294949Y-142025333D01*
X155294949Y-142025333D02*
X155294949Y-141930095D01*
X155294949Y-141930095D02*
X155342568Y-141834857D01*
X155342568Y-141834857D02*
X155390187Y-141787238D01*
X155390187Y-141787238D02*
X155485425Y-141739619D01*
X155485425Y-141739619D02*
X155723520Y-141739619D01*
X155723520Y-141739619D02*
X155866377Y-141787238D01*
X156294949Y-142739619D02*
X156294949Y-141739619D01*
X157294948Y-141787238D02*
X157199710Y-141739619D01*
X157199710Y-141739619D02*
X157056853Y-141739619D01*
X157056853Y-141739619D02*
X156913996Y-141787238D01*
X156913996Y-141787238D02*
X156818758Y-141882476D01*
X156818758Y-141882476D02*
X156771139Y-141977714D01*
X156771139Y-141977714D02*
X156723520Y-142168190D01*
X156723520Y-142168190D02*
X156723520Y-142311047D01*
X156723520Y-142311047D02*
X156771139Y-142501523D01*
X156771139Y-142501523D02*
X156818758Y-142596761D01*
X156818758Y-142596761D02*
X156913996Y-142692000D01*
X156913996Y-142692000D02*
X157056853Y-142739619D01*
X157056853Y-142739619D02*
X157152091Y-142739619D01*
X157152091Y-142739619D02*
X157294948Y-142692000D01*
X157294948Y-142692000D02*
X157342567Y-142644380D01*
X157342567Y-142644380D02*
X157342567Y-142311047D01*
X157342567Y-142311047D02*
X157152091Y-142311047D01*
X170582000Y-151410050D02*
X170629619Y-151267193D01*
X170629619Y-151267193D02*
X170629619Y-151029098D01*
X170629619Y-151029098D02*
X170582000Y-150933860D01*
X170582000Y-150933860D02*
X170534380Y-150886241D01*
X170534380Y-150886241D02*
X170439142Y-150838622D01*
X170439142Y-150838622D02*
X170343904Y-150838622D01*
X170343904Y-150838622D02*
X170248666Y-150886241D01*
X170248666Y-150886241D02*
X170201047Y-150933860D01*
X170201047Y-150933860D02*
X170153428Y-151029098D01*
X170153428Y-151029098D02*
X170105809Y-151219574D01*
X170105809Y-151219574D02*
X170058190Y-151314812D01*
X170058190Y-151314812D02*
X170010571Y-151362431D01*
X170010571Y-151362431D02*
X169915333Y-151410050D01*
X169915333Y-151410050D02*
X169820095Y-151410050D01*
X169820095Y-151410050D02*
X169724857Y-151362431D01*
X169724857Y-151362431D02*
X169677238Y-151314812D01*
X169677238Y-151314812D02*
X169629619Y-151219574D01*
X169629619Y-151219574D02*
X169629619Y-150981479D01*
X169629619Y-150981479D02*
X169677238Y-150838622D01*
X170629619Y-150410050D02*
X169629619Y-150410050D01*
X169677238Y-149410051D02*
X169629619Y-149505289D01*
X169629619Y-149505289D02*
X169629619Y-149648146D01*
X169629619Y-149648146D02*
X169677238Y-149791003D01*
X169677238Y-149791003D02*
X169772476Y-149886241D01*
X169772476Y-149886241D02*
X169867714Y-149933860D01*
X169867714Y-149933860D02*
X170058190Y-149981479D01*
X170058190Y-149981479D02*
X170201047Y-149981479D01*
X170201047Y-149981479D02*
X170391523Y-149933860D01*
X170391523Y-149933860D02*
X170486761Y-149886241D01*
X170486761Y-149886241D02*
X170582000Y-149791003D01*
X170582000Y-149791003D02*
X170629619Y-149648146D01*
X170629619Y-149648146D02*
X170629619Y-149552908D01*
X170629619Y-149552908D02*
X170582000Y-149410051D01*
X170582000Y-149410051D02*
X170534380Y-149362432D01*
X170534380Y-149362432D02*
X170201047Y-149362432D01*
X170201047Y-149362432D02*
X170201047Y-149552908D01*
D12*
X176815114Y-153280489D02*
X176886542Y-153066203D01*
X176886542Y-153066203D02*
X176957971Y-152994774D01*
X176957971Y-152994774D02*
X177100828Y-152923346D01*
X177100828Y-152923346D02*
X177315114Y-152923346D01*
X177315114Y-152923346D02*
X177457971Y-152994774D01*
X177457971Y-152994774D02*
X177529400Y-153066203D01*
X177529400Y-153066203D02*
X177600828Y-153209060D01*
X177600828Y-153209060D02*
X177600828Y-153780489D01*
X177600828Y-153780489D02*
X176100828Y-153780489D01*
X176100828Y-153780489D02*
X176100828Y-153280489D01*
X176100828Y-153280489D02*
X176172257Y-153137632D01*
X176172257Y-153137632D02*
X176243685Y-153066203D01*
X176243685Y-153066203D02*
X176386542Y-152994774D01*
X176386542Y-152994774D02*
X176529400Y-152994774D01*
X176529400Y-152994774D02*
X176672257Y-153066203D01*
X176672257Y-153066203D02*
X176743685Y-153137632D01*
X176743685Y-153137632D02*
X176815114Y-153280489D01*
X176815114Y-153280489D02*
X176815114Y-153780489D01*
X177600828Y-152280489D02*
X176600828Y-152280489D01*
X176886542Y-152280489D02*
X176743685Y-152209060D01*
X176743685Y-152209060D02*
X176672257Y-152137632D01*
X176672257Y-152137632D02*
X176600828Y-151994774D01*
X176600828Y-151994774D02*
X176600828Y-151851917D01*
X177529400Y-150780489D02*
X177600828Y-150923346D01*
X177600828Y-150923346D02*
X177600828Y-151209061D01*
X177600828Y-151209061D02*
X177529400Y-151351918D01*
X177529400Y-151351918D02*
X177386542Y-151423346D01*
X177386542Y-151423346D02*
X176815114Y-151423346D01*
X176815114Y-151423346D02*
X176672257Y-151351918D01*
X176672257Y-151351918D02*
X176600828Y-151209061D01*
X176600828Y-151209061D02*
X176600828Y-150923346D01*
X176600828Y-150923346D02*
X176672257Y-150780489D01*
X176672257Y-150780489D02*
X176815114Y-150709061D01*
X176815114Y-150709061D02*
X176957971Y-150709061D01*
X176957971Y-150709061D02*
X177100828Y-151423346D01*
X177600828Y-149423347D02*
X176815114Y-149423347D01*
X176815114Y-149423347D02*
X176672257Y-149494775D01*
X176672257Y-149494775D02*
X176600828Y-149637632D01*
X176600828Y-149637632D02*
X176600828Y-149923347D01*
X176600828Y-149923347D02*
X176672257Y-150066204D01*
X177529400Y-149423347D02*
X177600828Y-149566204D01*
X177600828Y-149566204D02*
X177600828Y-149923347D01*
X177600828Y-149923347D02*
X177529400Y-150066204D01*
X177529400Y-150066204D02*
X177386542Y-150137632D01*
X177386542Y-150137632D02*
X177243685Y-150137632D01*
X177243685Y-150137632D02*
X177100828Y-150066204D01*
X177100828Y-150066204D02*
X177029400Y-149923347D01*
X177029400Y-149923347D02*
X177029400Y-149566204D01*
X177029400Y-149566204D02*
X176957971Y-149423347D01*
X177600828Y-148066204D02*
X176100828Y-148066204D01*
X177529400Y-148066204D02*
X177600828Y-148209061D01*
X177600828Y-148209061D02*
X177600828Y-148494775D01*
X177600828Y-148494775D02*
X177529400Y-148637632D01*
X177529400Y-148637632D02*
X177457971Y-148709061D01*
X177457971Y-148709061D02*
X177315114Y-148780489D01*
X177315114Y-148780489D02*
X176886542Y-148780489D01*
X176886542Y-148780489D02*
X176743685Y-148709061D01*
X176743685Y-148709061D02*
X176672257Y-148637632D01*
X176672257Y-148637632D02*
X176600828Y-148494775D01*
X176600828Y-148494775D02*
X176600828Y-148209061D01*
X176600828Y-148209061D02*
X176672257Y-148066204D01*
X177600828Y-147351918D02*
X176100828Y-147351918D01*
X176672257Y-147351918D02*
X176600828Y-147209061D01*
X176600828Y-147209061D02*
X176600828Y-146923346D01*
X176600828Y-146923346D02*
X176672257Y-146780489D01*
X176672257Y-146780489D02*
X176743685Y-146709061D01*
X176743685Y-146709061D02*
X176886542Y-146637632D01*
X176886542Y-146637632D02*
X177315114Y-146637632D01*
X177315114Y-146637632D02*
X177457971Y-146709061D01*
X177457971Y-146709061D02*
X177529400Y-146780489D01*
X177529400Y-146780489D02*
X177600828Y-146923346D01*
X177600828Y-146923346D02*
X177600828Y-147209061D01*
X177600828Y-147209061D02*
X177529400Y-147351918D01*
X177600828Y-145780489D02*
X177529400Y-145923346D01*
X177529400Y-145923346D02*
X177457971Y-145994775D01*
X177457971Y-145994775D02*
X177315114Y-146066203D01*
X177315114Y-146066203D02*
X176886542Y-146066203D01*
X176886542Y-146066203D02*
X176743685Y-145994775D01*
X176743685Y-145994775D02*
X176672257Y-145923346D01*
X176672257Y-145923346D02*
X176600828Y-145780489D01*
X176600828Y-145780489D02*
X176600828Y-145566203D01*
X176600828Y-145566203D02*
X176672257Y-145423346D01*
X176672257Y-145423346D02*
X176743685Y-145351918D01*
X176743685Y-145351918D02*
X176886542Y-145280489D01*
X176886542Y-145280489D02*
X177315114Y-145280489D01*
X177315114Y-145280489D02*
X177457971Y-145351918D01*
X177457971Y-145351918D02*
X177529400Y-145423346D01*
X177529400Y-145423346D02*
X177600828Y-145566203D01*
X177600828Y-145566203D02*
X177600828Y-145780489D01*
X177600828Y-143994775D02*
X176815114Y-143994775D01*
X176815114Y-143994775D02*
X176672257Y-144066203D01*
X176672257Y-144066203D02*
X176600828Y-144209060D01*
X176600828Y-144209060D02*
X176600828Y-144494775D01*
X176600828Y-144494775D02*
X176672257Y-144637632D01*
X177529400Y-143994775D02*
X177600828Y-144137632D01*
X177600828Y-144137632D02*
X177600828Y-144494775D01*
X177600828Y-144494775D02*
X177529400Y-144637632D01*
X177529400Y-144637632D02*
X177386542Y-144709060D01*
X177386542Y-144709060D02*
X177243685Y-144709060D01*
X177243685Y-144709060D02*
X177100828Y-144637632D01*
X177100828Y-144637632D02*
X177029400Y-144494775D01*
X177029400Y-144494775D02*
X177029400Y-144137632D01*
X177029400Y-144137632D02*
X176957971Y-143994775D01*
X177600828Y-143280489D02*
X176600828Y-143280489D01*
X176886542Y-143280489D02*
X176743685Y-143209060D01*
X176743685Y-143209060D02*
X176672257Y-143137632D01*
X176672257Y-143137632D02*
X176600828Y-142994774D01*
X176600828Y-142994774D02*
X176600828Y-142851917D01*
X177600828Y-141709061D02*
X176100828Y-141709061D01*
X177529400Y-141709061D02*
X177600828Y-141851918D01*
X177600828Y-141851918D02*
X177600828Y-142137632D01*
X177600828Y-142137632D02*
X177529400Y-142280489D01*
X177529400Y-142280489D02*
X177457971Y-142351918D01*
X177457971Y-142351918D02*
X177315114Y-142423346D01*
X177315114Y-142423346D02*
X176886542Y-142423346D01*
X176886542Y-142423346D02*
X176743685Y-142351918D01*
X176743685Y-142351918D02*
X176672257Y-142280489D01*
X176672257Y-142280489D02*
X176600828Y-142137632D01*
X176600828Y-142137632D02*
X176600828Y-141851918D01*
X176600828Y-141851918D02*
X176672257Y-141709061D01*
X132992257Y-80517856D02*
X132920828Y-80660714D01*
X132920828Y-80660714D02*
X132920828Y-80874999D01*
X132920828Y-80874999D02*
X132992257Y-81089285D01*
X132992257Y-81089285D02*
X133135114Y-81232142D01*
X133135114Y-81232142D02*
X133277971Y-81303571D01*
X133277971Y-81303571D02*
X133563685Y-81374999D01*
X133563685Y-81374999D02*
X133777971Y-81374999D01*
X133777971Y-81374999D02*
X134063685Y-81303571D01*
X134063685Y-81303571D02*
X134206542Y-81232142D01*
X134206542Y-81232142D02*
X134349400Y-81089285D01*
X134349400Y-81089285D02*
X134420828Y-80874999D01*
X134420828Y-80874999D02*
X134420828Y-80732142D01*
X134420828Y-80732142D02*
X134349400Y-80517856D01*
X134349400Y-80517856D02*
X134277971Y-80446428D01*
X134277971Y-80446428D02*
X133777971Y-80446428D01*
X133777971Y-80446428D02*
X133777971Y-80732142D01*
X134420828Y-79803571D02*
X132920828Y-79803571D01*
X132920828Y-79803571D02*
X134420828Y-78946428D01*
X134420828Y-78946428D02*
X132920828Y-78946428D01*
X134420828Y-78232142D02*
X132920828Y-78232142D01*
X132920828Y-78232142D02*
X132920828Y-77874999D01*
X132920828Y-77874999D02*
X132992257Y-77660713D01*
X132992257Y-77660713D02*
X133135114Y-77517856D01*
X133135114Y-77517856D02*
X133277971Y-77446427D01*
X133277971Y-77446427D02*
X133563685Y-77374999D01*
X133563685Y-77374999D02*
X133777971Y-77374999D01*
X133777971Y-77374999D02*
X134063685Y-77446427D01*
X134063685Y-77446427D02*
X134206542Y-77517856D01*
X134206542Y-77517856D02*
X134349400Y-77660713D01*
X134349400Y-77660713D02*
X134420828Y-77874999D01*
X134420828Y-77874999D02*
X134420828Y-78232142D01*
X176259400Y-134701651D02*
X176330828Y-134487366D01*
X176330828Y-134487366D02*
X176330828Y-134130223D01*
X176330828Y-134130223D02*
X176259400Y-133987366D01*
X176259400Y-133987366D02*
X176187971Y-133915937D01*
X176187971Y-133915937D02*
X176045114Y-133844508D01*
X176045114Y-133844508D02*
X175902257Y-133844508D01*
X175902257Y-133844508D02*
X175759400Y-133915937D01*
X175759400Y-133915937D02*
X175687971Y-133987366D01*
X175687971Y-133987366D02*
X175616542Y-134130223D01*
X175616542Y-134130223D02*
X175545114Y-134415937D01*
X175545114Y-134415937D02*
X175473685Y-134558794D01*
X175473685Y-134558794D02*
X175402257Y-134630223D01*
X175402257Y-134630223D02*
X175259400Y-134701651D01*
X175259400Y-134701651D02*
X175116542Y-134701651D01*
X175116542Y-134701651D02*
X174973685Y-134630223D01*
X174973685Y-134630223D02*
X174902257Y-134558794D01*
X174902257Y-134558794D02*
X174830828Y-134415937D01*
X174830828Y-134415937D02*
X174830828Y-134058794D01*
X174830828Y-134058794D02*
X174902257Y-133844508D01*
X175330828Y-133344509D02*
X176330828Y-132987366D01*
X175330828Y-132630223D02*
X176330828Y-132987366D01*
X176330828Y-132987366D02*
X176687971Y-133130223D01*
X176687971Y-133130223D02*
X176759400Y-133201652D01*
X176759400Y-133201652D02*
X176830828Y-133344509D01*
X176330828Y-132058795D02*
X175330828Y-132058795D01*
X175473685Y-132058795D02*
X175402257Y-131987366D01*
X175402257Y-131987366D02*
X175330828Y-131844509D01*
X175330828Y-131844509D02*
X175330828Y-131630223D01*
X175330828Y-131630223D02*
X175402257Y-131487366D01*
X175402257Y-131487366D02*
X175545114Y-131415938D01*
X175545114Y-131415938D02*
X176330828Y-131415938D01*
X175545114Y-131415938D02*
X175402257Y-131344509D01*
X175402257Y-131344509D02*
X175330828Y-131201652D01*
X175330828Y-131201652D02*
X175330828Y-130987366D01*
X175330828Y-130987366D02*
X175402257Y-130844509D01*
X175402257Y-130844509D02*
X175545114Y-130773080D01*
X175545114Y-130773080D02*
X176330828Y-130773080D01*
X176330828Y-130058795D02*
X175330828Y-130058795D01*
X175473685Y-130058795D02*
X175402257Y-129987366D01*
X175402257Y-129987366D02*
X175330828Y-129844509D01*
X175330828Y-129844509D02*
X175330828Y-129630223D01*
X175330828Y-129630223D02*
X175402257Y-129487366D01*
X175402257Y-129487366D02*
X175545114Y-129415938D01*
X175545114Y-129415938D02*
X176330828Y-129415938D01*
X175545114Y-129415938D02*
X175402257Y-129344509D01*
X175402257Y-129344509D02*
X175330828Y-129201652D01*
X175330828Y-129201652D02*
X175330828Y-128987366D01*
X175330828Y-128987366D02*
X175402257Y-128844509D01*
X175402257Y-128844509D02*
X175545114Y-128773080D01*
X175545114Y-128773080D02*
X176330828Y-128773080D01*
X176259400Y-127487366D02*
X176330828Y-127630223D01*
X176330828Y-127630223D02*
X176330828Y-127915938D01*
X176330828Y-127915938D02*
X176259400Y-128058795D01*
X176259400Y-128058795D02*
X176116542Y-128130223D01*
X176116542Y-128130223D02*
X175545114Y-128130223D01*
X175545114Y-128130223D02*
X175402257Y-128058795D01*
X175402257Y-128058795D02*
X175330828Y-127915938D01*
X175330828Y-127915938D02*
X175330828Y-127630223D01*
X175330828Y-127630223D02*
X175402257Y-127487366D01*
X175402257Y-127487366D02*
X175545114Y-127415938D01*
X175545114Y-127415938D02*
X175687971Y-127415938D01*
X175687971Y-127415938D02*
X175830828Y-128130223D01*
X175330828Y-126987366D02*
X175330828Y-126415938D01*
X174830828Y-126773081D02*
X176116542Y-126773081D01*
X176116542Y-126773081D02*
X176259400Y-126701652D01*
X176259400Y-126701652D02*
X176330828Y-126558795D01*
X176330828Y-126558795D02*
X176330828Y-126415938D01*
X176330828Y-125915938D02*
X175330828Y-125915938D01*
X175616542Y-125915938D02*
X175473685Y-125844509D01*
X175473685Y-125844509D02*
X175402257Y-125773081D01*
X175402257Y-125773081D02*
X175330828Y-125630223D01*
X175330828Y-125630223D02*
X175330828Y-125487366D01*
X176330828Y-124987367D02*
X175330828Y-124987367D01*
X174830828Y-124987367D02*
X174902257Y-125058795D01*
X174902257Y-125058795D02*
X174973685Y-124987367D01*
X174973685Y-124987367D02*
X174902257Y-124915938D01*
X174902257Y-124915938D02*
X174830828Y-124987367D01*
X174830828Y-124987367D02*
X174973685Y-124987367D01*
X176259400Y-123630224D02*
X176330828Y-123773081D01*
X176330828Y-123773081D02*
X176330828Y-124058795D01*
X176330828Y-124058795D02*
X176259400Y-124201652D01*
X176259400Y-124201652D02*
X176187971Y-124273081D01*
X176187971Y-124273081D02*
X176045114Y-124344509D01*
X176045114Y-124344509D02*
X175616542Y-124344509D01*
X175616542Y-124344509D02*
X175473685Y-124273081D01*
X175473685Y-124273081D02*
X175402257Y-124201652D01*
X175402257Y-124201652D02*
X175330828Y-124058795D01*
X175330828Y-124058795D02*
X175330828Y-123773081D01*
X175330828Y-123773081D02*
X175402257Y-123630224D01*
X174830828Y-121987367D02*
X176330828Y-121630224D01*
X176330828Y-121630224D02*
X175259400Y-121344510D01*
X175259400Y-121344510D02*
X176330828Y-121058795D01*
X176330828Y-121058795D02*
X174830828Y-120701653D01*
X176330828Y-120130224D02*
X175330828Y-120130224D01*
X174830828Y-120130224D02*
X174902257Y-120201652D01*
X174902257Y-120201652D02*
X174973685Y-120130224D01*
X174973685Y-120130224D02*
X174902257Y-120058795D01*
X174902257Y-120058795D02*
X174830828Y-120130224D01*
X174830828Y-120130224D02*
X174973685Y-120130224D01*
X176330828Y-119201652D02*
X176259400Y-119344509D01*
X176259400Y-119344509D02*
X176116542Y-119415938D01*
X176116542Y-119415938D02*
X174830828Y-119415938D01*
X176259400Y-118701652D02*
X176330828Y-118558795D01*
X176330828Y-118558795D02*
X176330828Y-118273081D01*
X176330828Y-118273081D02*
X176259400Y-118130224D01*
X176259400Y-118130224D02*
X176116542Y-118058795D01*
X176116542Y-118058795D02*
X176045114Y-118058795D01*
X176045114Y-118058795D02*
X175902257Y-118130224D01*
X175902257Y-118130224D02*
X175830828Y-118273081D01*
X175830828Y-118273081D02*
X175830828Y-118487367D01*
X175830828Y-118487367D02*
X175759400Y-118630224D01*
X175759400Y-118630224D02*
X175616542Y-118701652D01*
X175616542Y-118701652D02*
X175545114Y-118701652D01*
X175545114Y-118701652D02*
X175402257Y-118630224D01*
X175402257Y-118630224D02*
X175330828Y-118487367D01*
X175330828Y-118487367D02*
X175330828Y-118273081D01*
X175330828Y-118273081D02*
X175402257Y-118130224D01*
X176330828Y-117201652D02*
X176259400Y-117344509D01*
X176259400Y-117344509D02*
X176187971Y-117415938D01*
X176187971Y-117415938D02*
X176045114Y-117487366D01*
X176045114Y-117487366D02*
X175616542Y-117487366D01*
X175616542Y-117487366D02*
X175473685Y-117415938D01*
X175473685Y-117415938D02*
X175402257Y-117344509D01*
X175402257Y-117344509D02*
X175330828Y-117201652D01*
X175330828Y-117201652D02*
X175330828Y-116987366D01*
X175330828Y-116987366D02*
X175402257Y-116844509D01*
X175402257Y-116844509D02*
X175473685Y-116773081D01*
X175473685Y-116773081D02*
X175616542Y-116701652D01*
X175616542Y-116701652D02*
X176045114Y-116701652D01*
X176045114Y-116701652D02*
X176187971Y-116773081D01*
X176187971Y-116773081D02*
X176259400Y-116844509D01*
X176259400Y-116844509D02*
X176330828Y-116987366D01*
X176330828Y-116987366D02*
X176330828Y-117201652D01*
X175330828Y-116058795D02*
X176330828Y-116058795D01*
X175473685Y-116058795D02*
X175402257Y-115987366D01*
X175402257Y-115987366D02*
X175330828Y-115844509D01*
X175330828Y-115844509D02*
X175330828Y-115630223D01*
X175330828Y-115630223D02*
X175402257Y-115487366D01*
X175402257Y-115487366D02*
X175545114Y-115415938D01*
X175545114Y-115415938D02*
X176330828Y-115415938D01*
X176187971Y-112701652D02*
X176259400Y-112773080D01*
X176259400Y-112773080D02*
X176330828Y-112987366D01*
X176330828Y-112987366D02*
X176330828Y-113130223D01*
X176330828Y-113130223D02*
X176259400Y-113344509D01*
X176259400Y-113344509D02*
X176116542Y-113487366D01*
X176116542Y-113487366D02*
X175973685Y-113558795D01*
X175973685Y-113558795D02*
X175687971Y-113630223D01*
X175687971Y-113630223D02*
X175473685Y-113630223D01*
X175473685Y-113630223D02*
X175187971Y-113558795D01*
X175187971Y-113558795D02*
X175045114Y-113487366D01*
X175045114Y-113487366D02*
X174902257Y-113344509D01*
X174902257Y-113344509D02*
X174830828Y-113130223D01*
X174830828Y-113130223D02*
X174830828Y-112987366D01*
X174830828Y-112987366D02*
X174902257Y-112773080D01*
X174902257Y-112773080D02*
X174973685Y-112701652D01*
X175330828Y-111415938D02*
X176330828Y-111415938D01*
X175330828Y-112058795D02*
X176116542Y-112058795D01*
X176116542Y-112058795D02*
X176259400Y-111987366D01*
X176259400Y-111987366D02*
X176330828Y-111844509D01*
X176330828Y-111844509D02*
X176330828Y-111630223D01*
X176330828Y-111630223D02*
X176259400Y-111487366D01*
X176259400Y-111487366D02*
X176187971Y-111415938D01*
X176330828Y-110701652D02*
X175330828Y-110701652D01*
X175616542Y-110701652D02*
X175473685Y-110630223D01*
X175473685Y-110630223D02*
X175402257Y-110558795D01*
X175402257Y-110558795D02*
X175330828Y-110415937D01*
X175330828Y-110415937D02*
X175330828Y-110273080D01*
X176330828Y-109773081D02*
X175330828Y-109773081D01*
X175616542Y-109773081D02*
X175473685Y-109701652D01*
X175473685Y-109701652D02*
X175402257Y-109630224D01*
X175402257Y-109630224D02*
X175330828Y-109487366D01*
X175330828Y-109487366D02*
X175330828Y-109344509D01*
X176259400Y-108273081D02*
X176330828Y-108415938D01*
X176330828Y-108415938D02*
X176330828Y-108701653D01*
X176330828Y-108701653D02*
X176259400Y-108844510D01*
X176259400Y-108844510D02*
X176116542Y-108915938D01*
X176116542Y-108915938D02*
X175545114Y-108915938D01*
X175545114Y-108915938D02*
X175402257Y-108844510D01*
X175402257Y-108844510D02*
X175330828Y-108701653D01*
X175330828Y-108701653D02*
X175330828Y-108415938D01*
X175330828Y-108415938D02*
X175402257Y-108273081D01*
X175402257Y-108273081D02*
X175545114Y-108201653D01*
X175545114Y-108201653D02*
X175687971Y-108201653D01*
X175687971Y-108201653D02*
X175830828Y-108915938D01*
X175330828Y-107558796D02*
X176330828Y-107558796D01*
X175473685Y-107558796D02*
X175402257Y-107487367D01*
X175402257Y-107487367D02*
X175330828Y-107344510D01*
X175330828Y-107344510D02*
X175330828Y-107130224D01*
X175330828Y-107130224D02*
X175402257Y-106987367D01*
X175402257Y-106987367D02*
X175545114Y-106915939D01*
X175545114Y-106915939D02*
X176330828Y-106915939D01*
X175330828Y-106415938D02*
X175330828Y-105844510D01*
X174830828Y-106201653D02*
X176116542Y-106201653D01*
X176116542Y-106201653D02*
X176259400Y-106130224D01*
X176259400Y-106130224D02*
X176330828Y-105987367D01*
X176330828Y-105987367D02*
X176330828Y-105844510D01*
X176330828Y-104201653D02*
X174830828Y-104201653D01*
X174830828Y-104201653D02*
X175902257Y-103701653D01*
X175902257Y-103701653D02*
X174830828Y-103201653D01*
X174830828Y-103201653D02*
X176330828Y-103201653D01*
X176330828Y-102487367D02*
X175330828Y-102487367D01*
X174830828Y-102487367D02*
X174902257Y-102558795D01*
X174902257Y-102558795D02*
X174973685Y-102487367D01*
X174973685Y-102487367D02*
X174902257Y-102415938D01*
X174902257Y-102415938D02*
X174830828Y-102487367D01*
X174830828Y-102487367D02*
X174973685Y-102487367D01*
X176330828Y-101773081D02*
X175330828Y-101773081D01*
X175616542Y-101773081D02*
X175473685Y-101701652D01*
X175473685Y-101701652D02*
X175402257Y-101630224D01*
X175402257Y-101630224D02*
X175330828Y-101487366D01*
X175330828Y-101487366D02*
X175330828Y-101344509D01*
X176330828Y-100844510D02*
X175330828Y-100844510D01*
X175616542Y-100844510D02*
X175473685Y-100773081D01*
X175473685Y-100773081D02*
X175402257Y-100701653D01*
X175402257Y-100701653D02*
X175330828Y-100558795D01*
X175330828Y-100558795D02*
X175330828Y-100415938D01*
X176330828Y-99701653D02*
X176259400Y-99844510D01*
X176259400Y-99844510D02*
X176187971Y-99915939D01*
X176187971Y-99915939D02*
X176045114Y-99987367D01*
X176045114Y-99987367D02*
X175616542Y-99987367D01*
X175616542Y-99987367D02*
X175473685Y-99915939D01*
X175473685Y-99915939D02*
X175402257Y-99844510D01*
X175402257Y-99844510D02*
X175330828Y-99701653D01*
X175330828Y-99701653D02*
X175330828Y-99487367D01*
X175330828Y-99487367D02*
X175402257Y-99344510D01*
X175402257Y-99344510D02*
X175473685Y-99273082D01*
X175473685Y-99273082D02*
X175616542Y-99201653D01*
X175616542Y-99201653D02*
X176045114Y-99201653D01*
X176045114Y-99201653D02*
X176187971Y-99273082D01*
X176187971Y-99273082D02*
X176259400Y-99344510D01*
X176259400Y-99344510D02*
X176330828Y-99487367D01*
X176330828Y-99487367D02*
X176330828Y-99701653D01*
X176330828Y-98558796D02*
X175330828Y-98558796D01*
X175616542Y-98558796D02*
X175473685Y-98487367D01*
X175473685Y-98487367D02*
X175402257Y-98415939D01*
X175402257Y-98415939D02*
X175330828Y-98273081D01*
X175330828Y-98273081D02*
X175330828Y-98130224D01*
X180140828Y-146199489D02*
X178640828Y-146199489D01*
X178640828Y-146199489D02*
X178640828Y-145628060D01*
X178640828Y-145628060D02*
X178712257Y-145485203D01*
X178712257Y-145485203D02*
X178783685Y-145413774D01*
X178783685Y-145413774D02*
X178926542Y-145342346D01*
X178926542Y-145342346D02*
X179140828Y-145342346D01*
X179140828Y-145342346D02*
X179283685Y-145413774D01*
X179283685Y-145413774D02*
X179355114Y-145485203D01*
X179355114Y-145485203D02*
X179426542Y-145628060D01*
X179426542Y-145628060D02*
X179426542Y-146199489D01*
X180140828Y-144485203D02*
X180069400Y-144628060D01*
X180069400Y-144628060D02*
X179926542Y-144699489D01*
X179926542Y-144699489D02*
X178640828Y-144699489D01*
X179140828Y-143270918D02*
X180140828Y-143270918D01*
X179140828Y-143913775D02*
X179926542Y-143913775D01*
X179926542Y-143913775D02*
X180069400Y-143842346D01*
X180069400Y-143842346D02*
X180140828Y-143699489D01*
X180140828Y-143699489D02*
X180140828Y-143485203D01*
X180140828Y-143485203D02*
X180069400Y-143342346D01*
X180069400Y-143342346D02*
X179997971Y-143270918D01*
X179140828Y-141913775D02*
X180355114Y-141913775D01*
X180355114Y-141913775D02*
X180497971Y-141985203D01*
X180497971Y-141985203D02*
X180569400Y-142056632D01*
X180569400Y-142056632D02*
X180640828Y-142199489D01*
X180640828Y-142199489D02*
X180640828Y-142413775D01*
X180640828Y-142413775D02*
X180569400Y-142556632D01*
X180069400Y-141913775D02*
X180140828Y-142056632D01*
X180140828Y-142056632D02*
X180140828Y-142342346D01*
X180140828Y-142342346D02*
X180069400Y-142485203D01*
X180069400Y-142485203D02*
X179997971Y-142556632D01*
X179997971Y-142556632D02*
X179855114Y-142628060D01*
X179855114Y-142628060D02*
X179426542Y-142628060D01*
X179426542Y-142628060D02*
X179283685Y-142556632D01*
X179283685Y-142556632D02*
X179212257Y-142485203D01*
X179212257Y-142485203D02*
X179140828Y-142342346D01*
X179140828Y-142342346D02*
X179140828Y-142056632D01*
X179140828Y-142056632D02*
X179212257Y-141913775D01*
D11*
X173439619Y-151505288D02*
X174439619Y-151171955D01*
X174439619Y-151171955D02*
X173439619Y-150838622D01*
X174344380Y-149933860D02*
X174392000Y-149981479D01*
X174392000Y-149981479D02*
X174439619Y-150124336D01*
X174439619Y-150124336D02*
X174439619Y-150219574D01*
X174439619Y-150219574D02*
X174392000Y-150362431D01*
X174392000Y-150362431D02*
X174296761Y-150457669D01*
X174296761Y-150457669D02*
X174201523Y-150505288D01*
X174201523Y-150505288D02*
X174011047Y-150552907D01*
X174011047Y-150552907D02*
X173868190Y-150552907D01*
X173868190Y-150552907D02*
X173677714Y-150505288D01*
X173677714Y-150505288D02*
X173582476Y-150457669D01*
X173582476Y-150457669D02*
X173487238Y-150362431D01*
X173487238Y-150362431D02*
X173439619Y-150219574D01*
X173439619Y-150219574D02*
X173439619Y-150124336D01*
X173439619Y-150124336D02*
X173487238Y-149981479D01*
X173487238Y-149981479D02*
X173534857Y-149933860D01*
X174344380Y-148933860D02*
X174392000Y-148981479D01*
X174392000Y-148981479D02*
X174439619Y-149124336D01*
X174439619Y-149124336D02*
X174439619Y-149219574D01*
X174439619Y-149219574D02*
X174392000Y-149362431D01*
X174392000Y-149362431D02*
X174296761Y-149457669D01*
X174296761Y-149457669D02*
X174201523Y-149505288D01*
X174201523Y-149505288D02*
X174011047Y-149552907D01*
X174011047Y-149552907D02*
X173868190Y-149552907D01*
X173868190Y-149552907D02*
X173677714Y-149505288D01*
X173677714Y-149505288D02*
X173582476Y-149457669D01*
X173582476Y-149457669D02*
X173487238Y-149362431D01*
X173487238Y-149362431D02*
X173439619Y-149219574D01*
X173439619Y-149219574D02*
X173439619Y-149124336D01*
X173439619Y-149124336D02*
X173487238Y-148981479D01*
X173487238Y-148981479D02*
X173534857Y-148933860D01*
X167899711Y-142324619D02*
X168233044Y-143324619D01*
X168233044Y-143324619D02*
X168566377Y-142324619D01*
X169471139Y-143229380D02*
X169423520Y-143277000D01*
X169423520Y-143277000D02*
X169280663Y-143324619D01*
X169280663Y-143324619D02*
X169185425Y-143324619D01*
X169185425Y-143324619D02*
X169042568Y-143277000D01*
X169042568Y-143277000D02*
X168947330Y-143181761D01*
X168947330Y-143181761D02*
X168899711Y-143086523D01*
X168899711Y-143086523D02*
X168852092Y-142896047D01*
X168852092Y-142896047D02*
X168852092Y-142753190D01*
X168852092Y-142753190D02*
X168899711Y-142562714D01*
X168899711Y-142562714D02*
X168947330Y-142467476D01*
X168947330Y-142467476D02*
X169042568Y-142372238D01*
X169042568Y-142372238D02*
X169185425Y-142324619D01*
X169185425Y-142324619D02*
X169280663Y-142324619D01*
X169280663Y-142324619D02*
X169423520Y-142372238D01*
X169423520Y-142372238D02*
X169471139Y-142419857D01*
X170471139Y-143229380D02*
X170423520Y-143277000D01*
X170423520Y-143277000D02*
X170280663Y-143324619D01*
X170280663Y-143324619D02*
X170185425Y-143324619D01*
X170185425Y-143324619D02*
X170042568Y-143277000D01*
X170042568Y-143277000D02*
X169947330Y-143181761D01*
X169947330Y-143181761D02*
X169899711Y-143086523D01*
X169899711Y-143086523D02*
X169852092Y-142896047D01*
X169852092Y-142896047D02*
X169852092Y-142753190D01*
X169852092Y-142753190D02*
X169899711Y-142562714D01*
X169899711Y-142562714D02*
X169947330Y-142467476D01*
X169947330Y-142467476D02*
X170042568Y-142372238D01*
X170042568Y-142372238D02*
X170185425Y-142324619D01*
X170185425Y-142324619D02*
X170280663Y-142324619D01*
X170280663Y-142324619D02*
X170423520Y-142372238D01*
X170423520Y-142372238D02*
X170471139Y-142419857D01*
X165867238Y-150838622D02*
X165819619Y-150933860D01*
X165819619Y-150933860D02*
X165819619Y-151076717D01*
X165819619Y-151076717D02*
X165867238Y-151219574D01*
X165867238Y-151219574D02*
X165962476Y-151314812D01*
X165962476Y-151314812D02*
X166057714Y-151362431D01*
X166057714Y-151362431D02*
X166248190Y-151410050D01*
X166248190Y-151410050D02*
X166391047Y-151410050D01*
X166391047Y-151410050D02*
X166581523Y-151362431D01*
X166581523Y-151362431D02*
X166676761Y-151314812D01*
X166676761Y-151314812D02*
X166772000Y-151219574D01*
X166772000Y-151219574D02*
X166819619Y-151076717D01*
X166819619Y-151076717D02*
X166819619Y-150981479D01*
X166819619Y-150981479D02*
X166772000Y-150838622D01*
X166772000Y-150838622D02*
X166724380Y-150791003D01*
X166724380Y-150791003D02*
X166391047Y-150791003D01*
X166391047Y-150791003D02*
X166391047Y-150981479D01*
X166819619Y-150362431D02*
X165819619Y-150362431D01*
X165819619Y-150362431D02*
X166819619Y-149791003D01*
X166819619Y-149791003D02*
X165819619Y-149791003D01*
X166819619Y-149314812D02*
X165819619Y-149314812D01*
X165819619Y-149314812D02*
X165819619Y-149076717D01*
X165819619Y-149076717D02*
X165867238Y-148933860D01*
X165867238Y-148933860D02*
X165962476Y-148838622D01*
X165962476Y-148838622D02*
X166057714Y-148791003D01*
X166057714Y-148791003D02*
X166248190Y-148743384D01*
X166248190Y-148743384D02*
X166391047Y-148743384D01*
X166391047Y-148743384D02*
X166581523Y-148791003D01*
X166581523Y-148791003D02*
X166676761Y-148838622D01*
X166676761Y-148838622D02*
X166772000Y-148933860D01*
X166772000Y-148933860D02*
X166819619Y-149076717D01*
X166819619Y-149076717D02*
X166819619Y-149314812D01*
D12*
X154797142Y-130996185D02*
X154654285Y-130924757D01*
X154654285Y-130924757D02*
X154511428Y-130781900D01*
X154511428Y-130781900D02*
X154297142Y-130567614D01*
X154297142Y-130567614D02*
X154154285Y-130496185D01*
X154154285Y-130496185D02*
X154011428Y-130496185D01*
X154082857Y-130853328D02*
X153940000Y-130781900D01*
X153940000Y-130781900D02*
X153797142Y-130639042D01*
X153797142Y-130639042D02*
X153725714Y-130353328D01*
X153725714Y-130353328D02*
X153725714Y-129853328D01*
X153725714Y-129853328D02*
X153797142Y-129567614D01*
X153797142Y-129567614D02*
X153940000Y-129424757D01*
X153940000Y-129424757D02*
X154082857Y-129353328D01*
X154082857Y-129353328D02*
X154368571Y-129353328D01*
X154368571Y-129353328D02*
X154511428Y-129424757D01*
X154511428Y-129424757D02*
X154654285Y-129567614D01*
X154654285Y-129567614D02*
X154725714Y-129853328D01*
X154725714Y-129853328D02*
X154725714Y-130353328D01*
X154725714Y-130353328D02*
X154654285Y-130639042D01*
X154654285Y-130639042D02*
X154511428Y-130781900D01*
X154511428Y-130781900D02*
X154368571Y-130853328D01*
X154368571Y-130853328D02*
X154082857Y-130853328D01*
X155225714Y-129353328D02*
X156154286Y-129353328D01*
X156154286Y-129353328D02*
X155654286Y-129924757D01*
X155654286Y-129924757D02*
X155868571Y-129924757D01*
X155868571Y-129924757D02*
X156011429Y-129996185D01*
X156011429Y-129996185D02*
X156082857Y-130067614D01*
X156082857Y-130067614D02*
X156154286Y-130210471D01*
X156154286Y-130210471D02*
X156154286Y-130567614D01*
X156154286Y-130567614D02*
X156082857Y-130710471D01*
X156082857Y-130710471D02*
X156011429Y-130781900D01*
X156011429Y-130781900D02*
X155868571Y-130853328D01*
X155868571Y-130853328D02*
X155440000Y-130853328D01*
X155440000Y-130853328D02*
X155297143Y-130781900D01*
X155297143Y-130781900D02*
X155225714Y-130710471D01*
X164421185Y-136786427D02*
X164349757Y-136714999D01*
X164349757Y-136714999D02*
X164278328Y-136572142D01*
X164278328Y-136572142D02*
X164278328Y-136214999D01*
X164278328Y-136214999D02*
X164349757Y-136072142D01*
X164349757Y-136072142D02*
X164421185Y-136000713D01*
X164421185Y-136000713D02*
X164564042Y-135929284D01*
X164564042Y-135929284D02*
X164706900Y-135929284D01*
X164706900Y-135929284D02*
X164921185Y-136000713D01*
X164921185Y-136000713D02*
X165778328Y-136857856D01*
X165778328Y-136857856D02*
X165778328Y-135929284D01*
X165778328Y-135286428D02*
X164278328Y-135286428D01*
X164278328Y-135286428D02*
X165778328Y-134429285D01*
X165778328Y-134429285D02*
X164278328Y-134429285D01*
X164278328Y-133857856D02*
X164278328Y-132929284D01*
X164278328Y-132929284D02*
X164849757Y-133429284D01*
X164849757Y-133429284D02*
X164849757Y-133214999D01*
X164849757Y-133214999D02*
X164921185Y-133072142D01*
X164921185Y-133072142D02*
X164992614Y-133000713D01*
X164992614Y-133000713D02*
X165135471Y-132929284D01*
X165135471Y-132929284D02*
X165492614Y-132929284D01*
X165492614Y-132929284D02*
X165635471Y-133000713D01*
X165635471Y-133000713D02*
X165706900Y-133072142D01*
X165706900Y-133072142D02*
X165778328Y-133214999D01*
X165778328Y-133214999D02*
X165778328Y-133643570D01*
X165778328Y-133643570D02*
X165706900Y-133786427D01*
X165706900Y-133786427D02*
X165635471Y-133857856D01*
X165778328Y-132214999D02*
X165778328Y-131929285D01*
X165778328Y-131929285D02*
X165706900Y-131786428D01*
X165706900Y-131786428D02*
X165635471Y-131714999D01*
X165635471Y-131714999D02*
X165421185Y-131572142D01*
X165421185Y-131572142D02*
X165135471Y-131500713D01*
X165135471Y-131500713D02*
X164564042Y-131500713D01*
X164564042Y-131500713D02*
X164421185Y-131572142D01*
X164421185Y-131572142D02*
X164349757Y-131643571D01*
X164349757Y-131643571D02*
X164278328Y-131786428D01*
X164278328Y-131786428D02*
X164278328Y-132072142D01*
X164278328Y-132072142D02*
X164349757Y-132214999D01*
X164349757Y-132214999D02*
X164421185Y-132286428D01*
X164421185Y-132286428D02*
X164564042Y-132357856D01*
X164564042Y-132357856D02*
X164921185Y-132357856D01*
X164921185Y-132357856D02*
X165064042Y-132286428D01*
X165064042Y-132286428D02*
X165135471Y-132214999D01*
X165135471Y-132214999D02*
X165206900Y-132072142D01*
X165206900Y-132072142D02*
X165206900Y-131786428D01*
X165206900Y-131786428D02*
X165135471Y-131643571D01*
X165135471Y-131643571D02*
X165064042Y-131572142D01*
X165064042Y-131572142D02*
X164921185Y-131500713D01*
X164278328Y-130572142D02*
X164278328Y-130429285D01*
X164278328Y-130429285D02*
X164349757Y-130286428D01*
X164349757Y-130286428D02*
X164421185Y-130215000D01*
X164421185Y-130215000D02*
X164564042Y-130143571D01*
X164564042Y-130143571D02*
X164849757Y-130072142D01*
X164849757Y-130072142D02*
X165206900Y-130072142D01*
X165206900Y-130072142D02*
X165492614Y-130143571D01*
X165492614Y-130143571D02*
X165635471Y-130215000D01*
X165635471Y-130215000D02*
X165706900Y-130286428D01*
X165706900Y-130286428D02*
X165778328Y-130429285D01*
X165778328Y-130429285D02*
X165778328Y-130572142D01*
X165778328Y-130572142D02*
X165706900Y-130715000D01*
X165706900Y-130715000D02*
X165635471Y-130786428D01*
X165635471Y-130786428D02*
X165492614Y-130857857D01*
X165492614Y-130857857D02*
X165206900Y-130929285D01*
X165206900Y-130929285D02*
X164849757Y-130929285D01*
X164849757Y-130929285D02*
X164564042Y-130857857D01*
X164564042Y-130857857D02*
X164421185Y-130786428D01*
X164421185Y-130786428D02*
X164349757Y-130715000D01*
X164349757Y-130715000D02*
X164278328Y-130572142D01*
X164278328Y-128786429D02*
X164278328Y-129072143D01*
X164278328Y-129072143D02*
X164349757Y-129215000D01*
X164349757Y-129215000D02*
X164421185Y-129286429D01*
X164421185Y-129286429D02*
X164635471Y-129429286D01*
X164635471Y-129429286D02*
X164921185Y-129500714D01*
X164921185Y-129500714D02*
X165492614Y-129500714D01*
X165492614Y-129500714D02*
X165635471Y-129429286D01*
X165635471Y-129429286D02*
X165706900Y-129357857D01*
X165706900Y-129357857D02*
X165778328Y-129215000D01*
X165778328Y-129215000D02*
X165778328Y-128929286D01*
X165778328Y-128929286D02*
X165706900Y-128786429D01*
X165706900Y-128786429D02*
X165635471Y-128715000D01*
X165635471Y-128715000D02*
X165492614Y-128643571D01*
X165492614Y-128643571D02*
X165135471Y-128643571D01*
X165135471Y-128643571D02*
X164992614Y-128715000D01*
X164992614Y-128715000D02*
X164921185Y-128786429D01*
X164921185Y-128786429D02*
X164849757Y-128929286D01*
X164849757Y-128929286D02*
X164849757Y-129215000D01*
X164849757Y-129215000D02*
X164921185Y-129357857D01*
X164921185Y-129357857D02*
X164992614Y-129429286D01*
X164992614Y-129429286D02*
X165135471Y-129500714D01*
D10*
X161750476Y-139407219D02*
X161750476Y-140121504D01*
X161750476Y-140121504D02*
X161702857Y-140264361D01*
X161702857Y-140264361D02*
X161607619Y-140359600D01*
X161607619Y-140359600D02*
X161464762Y-140407219D01*
X161464762Y-140407219D02*
X161369524Y-140407219D01*
X162750476Y-140407219D02*
X162179048Y-140407219D01*
X162464762Y-140407219D02*
X162464762Y-139407219D01*
X162464762Y-139407219D02*
X162369524Y-139550076D01*
X162369524Y-139550076D02*
X162274286Y-139645314D01*
X162274286Y-139645314D02*
X162179048Y-139692933D01*
X163702857Y-140407219D02*
X163131429Y-140407219D01*
X163417143Y-140407219D02*
X163417143Y-139407219D01*
X163417143Y-139407219D02*
X163321905Y-139550076D01*
X163321905Y-139550076D02*
X163226667Y-139645314D01*
X163226667Y-139645314D02*
X163131429Y-139692933D01*
D13*
X142073333Y-91259819D02*
X141740000Y-90783628D01*
X141501905Y-91259819D02*
X141501905Y-90259819D01*
X141501905Y-90259819D02*
X141882857Y-90259819D01*
X141882857Y-90259819D02*
X141978095Y-90307438D01*
X141978095Y-90307438D02*
X142025714Y-90355057D01*
X142025714Y-90355057D02*
X142073333Y-90450295D01*
X142073333Y-90450295D02*
X142073333Y-90593152D01*
X142073333Y-90593152D02*
X142025714Y-90688390D01*
X142025714Y-90688390D02*
X141978095Y-90736009D01*
X141978095Y-90736009D02*
X141882857Y-90783628D01*
X141882857Y-90783628D02*
X141501905Y-90783628D01*
X143025714Y-91259819D02*
X142454286Y-91259819D01*
X142740000Y-91259819D02*
X142740000Y-90259819D01*
X142740000Y-90259819D02*
X142644762Y-90402676D01*
X142644762Y-90402676D02*
X142549524Y-90497914D01*
X142549524Y-90497914D02*
X142454286Y-90545533D01*
D12*
X154797142Y-114486185D02*
X154654285Y-114414757D01*
X154654285Y-114414757D02*
X154511428Y-114271900D01*
X154511428Y-114271900D02*
X154297142Y-114057614D01*
X154297142Y-114057614D02*
X154154285Y-113986185D01*
X154154285Y-113986185D02*
X154011428Y-113986185D01*
X154082857Y-114343328D02*
X153940000Y-114271900D01*
X153940000Y-114271900D02*
X153797142Y-114129042D01*
X153797142Y-114129042D02*
X153725714Y-113843328D01*
X153725714Y-113843328D02*
X153725714Y-113343328D01*
X153725714Y-113343328D02*
X153797142Y-113057614D01*
X153797142Y-113057614D02*
X153940000Y-112914757D01*
X153940000Y-112914757D02*
X154082857Y-112843328D01*
X154082857Y-112843328D02*
X154368571Y-112843328D01*
X154368571Y-112843328D02*
X154511428Y-112914757D01*
X154511428Y-112914757D02*
X154654285Y-113057614D01*
X154654285Y-113057614D02*
X154725714Y-113343328D01*
X154725714Y-113343328D02*
X154725714Y-113843328D01*
X154725714Y-113843328D02*
X154654285Y-114129042D01*
X154654285Y-114129042D02*
X154511428Y-114271900D01*
X154511428Y-114271900D02*
X154368571Y-114343328D01*
X154368571Y-114343328D02*
X154082857Y-114343328D01*
X155297143Y-112986185D02*
X155368571Y-112914757D01*
X155368571Y-112914757D02*
X155511429Y-112843328D01*
X155511429Y-112843328D02*
X155868571Y-112843328D01*
X155868571Y-112843328D02*
X156011429Y-112914757D01*
X156011429Y-112914757D02*
X156082857Y-112986185D01*
X156082857Y-112986185D02*
X156154286Y-113129042D01*
X156154286Y-113129042D02*
X156154286Y-113271900D01*
X156154286Y-113271900D02*
X156082857Y-113486185D01*
X156082857Y-113486185D02*
X155225714Y-114343328D01*
X155225714Y-114343328D02*
X156154286Y-114343328D01*
X164421185Y-120276427D02*
X164349757Y-120204999D01*
X164349757Y-120204999D02*
X164278328Y-120062142D01*
X164278328Y-120062142D02*
X164278328Y-119704999D01*
X164278328Y-119704999D02*
X164349757Y-119562142D01*
X164349757Y-119562142D02*
X164421185Y-119490713D01*
X164421185Y-119490713D02*
X164564042Y-119419284D01*
X164564042Y-119419284D02*
X164706900Y-119419284D01*
X164706900Y-119419284D02*
X164921185Y-119490713D01*
X164921185Y-119490713D02*
X165778328Y-120347856D01*
X165778328Y-120347856D02*
X165778328Y-119419284D01*
X165778328Y-118776428D02*
X164278328Y-118776428D01*
X164278328Y-118776428D02*
X165778328Y-117919285D01*
X165778328Y-117919285D02*
X164278328Y-117919285D01*
X164278328Y-117347856D02*
X164278328Y-116419284D01*
X164278328Y-116419284D02*
X164849757Y-116919284D01*
X164849757Y-116919284D02*
X164849757Y-116704999D01*
X164849757Y-116704999D02*
X164921185Y-116562142D01*
X164921185Y-116562142D02*
X164992614Y-116490713D01*
X164992614Y-116490713D02*
X165135471Y-116419284D01*
X165135471Y-116419284D02*
X165492614Y-116419284D01*
X165492614Y-116419284D02*
X165635471Y-116490713D01*
X165635471Y-116490713D02*
X165706900Y-116562142D01*
X165706900Y-116562142D02*
X165778328Y-116704999D01*
X165778328Y-116704999D02*
X165778328Y-117133570D01*
X165778328Y-117133570D02*
X165706900Y-117276427D01*
X165706900Y-117276427D02*
X165635471Y-117347856D01*
X165778328Y-115704999D02*
X165778328Y-115419285D01*
X165778328Y-115419285D02*
X165706900Y-115276428D01*
X165706900Y-115276428D02*
X165635471Y-115204999D01*
X165635471Y-115204999D02*
X165421185Y-115062142D01*
X165421185Y-115062142D02*
X165135471Y-114990713D01*
X165135471Y-114990713D02*
X164564042Y-114990713D01*
X164564042Y-114990713D02*
X164421185Y-115062142D01*
X164421185Y-115062142D02*
X164349757Y-115133571D01*
X164349757Y-115133571D02*
X164278328Y-115276428D01*
X164278328Y-115276428D02*
X164278328Y-115562142D01*
X164278328Y-115562142D02*
X164349757Y-115704999D01*
X164349757Y-115704999D02*
X164421185Y-115776428D01*
X164421185Y-115776428D02*
X164564042Y-115847856D01*
X164564042Y-115847856D02*
X164921185Y-115847856D01*
X164921185Y-115847856D02*
X165064042Y-115776428D01*
X165064042Y-115776428D02*
X165135471Y-115704999D01*
X165135471Y-115704999D02*
X165206900Y-115562142D01*
X165206900Y-115562142D02*
X165206900Y-115276428D01*
X165206900Y-115276428D02*
X165135471Y-115133571D01*
X165135471Y-115133571D02*
X165064042Y-115062142D01*
X165064042Y-115062142D02*
X164921185Y-114990713D01*
X164278328Y-114062142D02*
X164278328Y-113919285D01*
X164278328Y-113919285D02*
X164349757Y-113776428D01*
X164349757Y-113776428D02*
X164421185Y-113705000D01*
X164421185Y-113705000D02*
X164564042Y-113633571D01*
X164564042Y-113633571D02*
X164849757Y-113562142D01*
X164849757Y-113562142D02*
X165206900Y-113562142D01*
X165206900Y-113562142D02*
X165492614Y-113633571D01*
X165492614Y-113633571D02*
X165635471Y-113705000D01*
X165635471Y-113705000D02*
X165706900Y-113776428D01*
X165706900Y-113776428D02*
X165778328Y-113919285D01*
X165778328Y-113919285D02*
X165778328Y-114062142D01*
X165778328Y-114062142D02*
X165706900Y-114205000D01*
X165706900Y-114205000D02*
X165635471Y-114276428D01*
X165635471Y-114276428D02*
X165492614Y-114347857D01*
X165492614Y-114347857D02*
X165206900Y-114419285D01*
X165206900Y-114419285D02*
X164849757Y-114419285D01*
X164849757Y-114419285D02*
X164564042Y-114347857D01*
X164564042Y-114347857D02*
X164421185Y-114276428D01*
X164421185Y-114276428D02*
X164349757Y-114205000D01*
X164349757Y-114205000D02*
X164278328Y-114062142D01*
X164278328Y-112276429D02*
X164278328Y-112562143D01*
X164278328Y-112562143D02*
X164349757Y-112705000D01*
X164349757Y-112705000D02*
X164421185Y-112776429D01*
X164421185Y-112776429D02*
X164635471Y-112919286D01*
X164635471Y-112919286D02*
X164921185Y-112990714D01*
X164921185Y-112990714D02*
X165492614Y-112990714D01*
X165492614Y-112990714D02*
X165635471Y-112919286D01*
X165635471Y-112919286D02*
X165706900Y-112847857D01*
X165706900Y-112847857D02*
X165778328Y-112705000D01*
X165778328Y-112705000D02*
X165778328Y-112419286D01*
X165778328Y-112419286D02*
X165706900Y-112276429D01*
X165706900Y-112276429D02*
X165635471Y-112205000D01*
X165635471Y-112205000D02*
X165492614Y-112133571D01*
X165492614Y-112133571D02*
X165135471Y-112133571D01*
X165135471Y-112133571D02*
X164992614Y-112205000D01*
X164992614Y-112205000D02*
X164921185Y-112276429D01*
X164921185Y-112276429D02*
X164849757Y-112419286D01*
X164849757Y-112419286D02*
X164849757Y-112705000D01*
X164849757Y-112705000D02*
X164921185Y-112847857D01*
X164921185Y-112847857D02*
X164992614Y-112919286D01*
X164992614Y-112919286D02*
X165135471Y-112990714D01*
D13*
X161750476Y-104229819D02*
X161750476Y-104944104D01*
X161750476Y-104944104D02*
X161702857Y-105086961D01*
X161702857Y-105086961D02*
X161607619Y-105182200D01*
X161607619Y-105182200D02*
X161464762Y-105229819D01*
X161464762Y-105229819D02*
X161369524Y-105229819D01*
X162750476Y-105229819D02*
X162179048Y-105229819D01*
X162464762Y-105229819D02*
X162464762Y-104229819D01*
X162464762Y-104229819D02*
X162369524Y-104372676D01*
X162369524Y-104372676D02*
X162274286Y-104467914D01*
X162274286Y-104467914D02*
X162179048Y-104515533D01*
X163655238Y-104229819D02*
X163179048Y-104229819D01*
X163179048Y-104229819D02*
X163131429Y-104706009D01*
X163131429Y-104706009D02*
X163179048Y-104658390D01*
X163179048Y-104658390D02*
X163274286Y-104610771D01*
X163274286Y-104610771D02*
X163512381Y-104610771D01*
X163512381Y-104610771D02*
X163607619Y-104658390D01*
X163607619Y-104658390D02*
X163655238Y-104706009D01*
X163655238Y-104706009D02*
X163702857Y-104801247D01*
X163702857Y-104801247D02*
X163702857Y-105039342D01*
X163702857Y-105039342D02*
X163655238Y-105134580D01*
X163655238Y-105134580D02*
X163607619Y-105182200D01*
X163607619Y-105182200D02*
X163512381Y-105229819D01*
X163512381Y-105229819D02*
X163274286Y-105229819D01*
X163274286Y-105229819D02*
X163179048Y-105182200D01*
X163179048Y-105182200D02*
X163131429Y-105134580D01*
D10*
X147716980Y-80851666D02*
X147764600Y-80899285D01*
X147764600Y-80899285D02*
X147812219Y-81042142D01*
X147812219Y-81042142D02*
X147812219Y-81137380D01*
X147812219Y-81137380D02*
X147764600Y-81280237D01*
X147764600Y-81280237D02*
X147669361Y-81375475D01*
X147669361Y-81375475D02*
X147574123Y-81423094D01*
X147574123Y-81423094D02*
X147383647Y-81470713D01*
X147383647Y-81470713D02*
X147240790Y-81470713D01*
X147240790Y-81470713D02*
X147050314Y-81423094D01*
X147050314Y-81423094D02*
X146955076Y-81375475D01*
X146955076Y-81375475D02*
X146859838Y-81280237D01*
X146859838Y-81280237D02*
X146812219Y-81137380D01*
X146812219Y-81137380D02*
X146812219Y-81042142D01*
X146812219Y-81042142D02*
X146859838Y-80899285D01*
X146859838Y-80899285D02*
X146907457Y-80851666D01*
X147812219Y-79899285D02*
X147812219Y-80470713D01*
X147812219Y-80184999D02*
X146812219Y-80184999D01*
X146812219Y-80184999D02*
X146955076Y-80280237D01*
X146955076Y-80280237D02*
X147050314Y-80375475D01*
X147050314Y-80375475D02*
X147097933Y-80470713D01*
D12*
X136968328Y-151387856D02*
X136254042Y-151887856D01*
X136968328Y-152244999D02*
X135468328Y-152244999D01*
X135468328Y-152244999D02*
X135468328Y-151673570D01*
X135468328Y-151673570D02*
X135539757Y-151530713D01*
X135539757Y-151530713D02*
X135611185Y-151459284D01*
X135611185Y-151459284D02*
X135754042Y-151387856D01*
X135754042Y-151387856D02*
X135968328Y-151387856D01*
X135968328Y-151387856D02*
X136111185Y-151459284D01*
X136111185Y-151459284D02*
X136182614Y-151530713D01*
X136182614Y-151530713D02*
X136254042Y-151673570D01*
X136254042Y-151673570D02*
X136254042Y-152244999D01*
X135468328Y-150959284D02*
X136968328Y-150459284D01*
X136968328Y-150459284D02*
X135468328Y-149959284D01*
X136968328Y-148673570D02*
X136968328Y-149530713D01*
X136968328Y-149102142D02*
X135468328Y-149102142D01*
X135468328Y-149102142D02*
X135682614Y-149244999D01*
X135682614Y-149244999D02*
X135825471Y-149387856D01*
X135825471Y-149387856D02*
X135896900Y-149530713D01*
D13*
X141430476Y-104229819D02*
X141430476Y-104944104D01*
X141430476Y-104944104D02*
X141382857Y-105086961D01*
X141382857Y-105086961D02*
X141287619Y-105182200D01*
X141287619Y-105182200D02*
X141144762Y-105229819D01*
X141144762Y-105229819D02*
X141049524Y-105229819D01*
X142430476Y-105229819D02*
X141859048Y-105229819D01*
X142144762Y-105229819D02*
X142144762Y-104229819D01*
X142144762Y-104229819D02*
X142049524Y-104372676D01*
X142049524Y-104372676D02*
X141954286Y-104467914D01*
X141954286Y-104467914D02*
X141859048Y-104515533D01*
X143287619Y-104563152D02*
X143287619Y-105229819D01*
X143049524Y-104182200D02*
X142811429Y-104896485D01*
X142811429Y-104896485D02*
X143430476Y-104896485D01*
D10*
X159686666Y-80257219D02*
X159686666Y-80971504D01*
X159686666Y-80971504D02*
X159639047Y-81114361D01*
X159639047Y-81114361D02*
X159543809Y-81209600D01*
X159543809Y-81209600D02*
X159400952Y-81257219D01*
X159400952Y-81257219D02*
X159305714Y-81257219D01*
X160639047Y-80257219D02*
X160162857Y-80257219D01*
X160162857Y-80257219D02*
X160115238Y-80733409D01*
X160115238Y-80733409D02*
X160162857Y-80685790D01*
X160162857Y-80685790D02*
X160258095Y-80638171D01*
X160258095Y-80638171D02*
X160496190Y-80638171D01*
X160496190Y-80638171D02*
X160591428Y-80685790D01*
X160591428Y-80685790D02*
X160639047Y-80733409D01*
X160639047Y-80733409D02*
X160686666Y-80828647D01*
X160686666Y-80828647D02*
X160686666Y-81066742D01*
X160686666Y-81066742D02*
X160639047Y-81161980D01*
X160639047Y-81161980D02*
X160591428Y-81209600D01*
X160591428Y-81209600D02*
X160496190Y-81257219D01*
X160496190Y-81257219D02*
X160258095Y-81257219D01*
X160258095Y-81257219D02*
X160162857Y-81209600D01*
X160162857Y-81209600D02*
X160115238Y-81161980D01*
D12*
X144272142Y-114486185D02*
X144129285Y-114414757D01*
X144129285Y-114414757D02*
X143986428Y-114271900D01*
X143986428Y-114271900D02*
X143772142Y-114057614D01*
X143772142Y-114057614D02*
X143629285Y-113986185D01*
X143629285Y-113986185D02*
X143486428Y-113986185D01*
X143557857Y-114343328D02*
X143415000Y-114271900D01*
X143415000Y-114271900D02*
X143272142Y-114129042D01*
X143272142Y-114129042D02*
X143200714Y-113843328D01*
X143200714Y-113843328D02*
X143200714Y-113343328D01*
X143200714Y-113343328D02*
X143272142Y-113057614D01*
X143272142Y-113057614D02*
X143415000Y-112914757D01*
X143415000Y-112914757D02*
X143557857Y-112843328D01*
X143557857Y-112843328D02*
X143843571Y-112843328D01*
X143843571Y-112843328D02*
X143986428Y-112914757D01*
X143986428Y-112914757D02*
X144129285Y-113057614D01*
X144129285Y-113057614D02*
X144200714Y-113343328D01*
X144200714Y-113343328D02*
X144200714Y-113843328D01*
X144200714Y-113843328D02*
X144129285Y-114129042D01*
X144129285Y-114129042D02*
X143986428Y-114271900D01*
X143986428Y-114271900D02*
X143843571Y-114343328D01*
X143843571Y-114343328D02*
X143557857Y-114343328D01*
X145629286Y-114343328D02*
X144772143Y-114343328D01*
X145200714Y-114343328D02*
X145200714Y-112843328D01*
X145200714Y-112843328D02*
X145057857Y-113057614D01*
X145057857Y-113057614D02*
X144915000Y-113200471D01*
X144915000Y-113200471D02*
X144772143Y-113271900D01*
X133576185Y-120276427D02*
X133504757Y-120204999D01*
X133504757Y-120204999D02*
X133433328Y-120062142D01*
X133433328Y-120062142D02*
X133433328Y-119704999D01*
X133433328Y-119704999D02*
X133504757Y-119562142D01*
X133504757Y-119562142D02*
X133576185Y-119490713D01*
X133576185Y-119490713D02*
X133719042Y-119419284D01*
X133719042Y-119419284D02*
X133861900Y-119419284D01*
X133861900Y-119419284D02*
X134076185Y-119490713D01*
X134076185Y-119490713D02*
X134933328Y-120347856D01*
X134933328Y-120347856D02*
X134933328Y-119419284D01*
X134933328Y-118776428D02*
X133433328Y-118776428D01*
X133433328Y-118776428D02*
X134933328Y-117919285D01*
X134933328Y-117919285D02*
X133433328Y-117919285D01*
X133433328Y-117347856D02*
X133433328Y-116419284D01*
X133433328Y-116419284D02*
X134004757Y-116919284D01*
X134004757Y-116919284D02*
X134004757Y-116704999D01*
X134004757Y-116704999D02*
X134076185Y-116562142D01*
X134076185Y-116562142D02*
X134147614Y-116490713D01*
X134147614Y-116490713D02*
X134290471Y-116419284D01*
X134290471Y-116419284D02*
X134647614Y-116419284D01*
X134647614Y-116419284D02*
X134790471Y-116490713D01*
X134790471Y-116490713D02*
X134861900Y-116562142D01*
X134861900Y-116562142D02*
X134933328Y-116704999D01*
X134933328Y-116704999D02*
X134933328Y-117133570D01*
X134933328Y-117133570D02*
X134861900Y-117276427D01*
X134861900Y-117276427D02*
X134790471Y-117347856D01*
X134933328Y-115704999D02*
X134933328Y-115419285D01*
X134933328Y-115419285D02*
X134861900Y-115276428D01*
X134861900Y-115276428D02*
X134790471Y-115204999D01*
X134790471Y-115204999D02*
X134576185Y-115062142D01*
X134576185Y-115062142D02*
X134290471Y-114990713D01*
X134290471Y-114990713D02*
X133719042Y-114990713D01*
X133719042Y-114990713D02*
X133576185Y-115062142D01*
X133576185Y-115062142D02*
X133504757Y-115133571D01*
X133504757Y-115133571D02*
X133433328Y-115276428D01*
X133433328Y-115276428D02*
X133433328Y-115562142D01*
X133433328Y-115562142D02*
X133504757Y-115704999D01*
X133504757Y-115704999D02*
X133576185Y-115776428D01*
X133576185Y-115776428D02*
X133719042Y-115847856D01*
X133719042Y-115847856D02*
X134076185Y-115847856D01*
X134076185Y-115847856D02*
X134219042Y-115776428D01*
X134219042Y-115776428D02*
X134290471Y-115704999D01*
X134290471Y-115704999D02*
X134361900Y-115562142D01*
X134361900Y-115562142D02*
X134361900Y-115276428D01*
X134361900Y-115276428D02*
X134290471Y-115133571D01*
X134290471Y-115133571D02*
X134219042Y-115062142D01*
X134219042Y-115062142D02*
X134076185Y-114990713D01*
X133433328Y-114062142D02*
X133433328Y-113919285D01*
X133433328Y-113919285D02*
X133504757Y-113776428D01*
X133504757Y-113776428D02*
X133576185Y-113705000D01*
X133576185Y-113705000D02*
X133719042Y-113633571D01*
X133719042Y-113633571D02*
X134004757Y-113562142D01*
X134004757Y-113562142D02*
X134361900Y-113562142D01*
X134361900Y-113562142D02*
X134647614Y-113633571D01*
X134647614Y-113633571D02*
X134790471Y-113705000D01*
X134790471Y-113705000D02*
X134861900Y-113776428D01*
X134861900Y-113776428D02*
X134933328Y-113919285D01*
X134933328Y-113919285D02*
X134933328Y-114062142D01*
X134933328Y-114062142D02*
X134861900Y-114205000D01*
X134861900Y-114205000D02*
X134790471Y-114276428D01*
X134790471Y-114276428D02*
X134647614Y-114347857D01*
X134647614Y-114347857D02*
X134361900Y-114419285D01*
X134361900Y-114419285D02*
X134004757Y-114419285D01*
X134004757Y-114419285D02*
X133719042Y-114347857D01*
X133719042Y-114347857D02*
X133576185Y-114276428D01*
X133576185Y-114276428D02*
X133504757Y-114205000D01*
X133504757Y-114205000D02*
X133433328Y-114062142D01*
X133433328Y-112276429D02*
X133433328Y-112562143D01*
X133433328Y-112562143D02*
X133504757Y-112705000D01*
X133504757Y-112705000D02*
X133576185Y-112776429D01*
X133576185Y-112776429D02*
X133790471Y-112919286D01*
X133790471Y-112919286D02*
X134076185Y-112990714D01*
X134076185Y-112990714D02*
X134647614Y-112990714D01*
X134647614Y-112990714D02*
X134790471Y-112919286D01*
X134790471Y-112919286D02*
X134861900Y-112847857D01*
X134861900Y-112847857D02*
X134933328Y-112705000D01*
X134933328Y-112705000D02*
X134933328Y-112419286D01*
X134933328Y-112419286D02*
X134861900Y-112276429D01*
X134861900Y-112276429D02*
X134790471Y-112205000D01*
X134790471Y-112205000D02*
X134647614Y-112133571D01*
X134647614Y-112133571D02*
X134290471Y-112133571D01*
X134290471Y-112133571D02*
X134147614Y-112205000D01*
X134147614Y-112205000D02*
X134076185Y-112276429D01*
X134076185Y-112276429D02*
X134004757Y-112419286D01*
X134004757Y-112419286D02*
X134004757Y-112705000D01*
X134004757Y-112705000D02*
X134076185Y-112847857D01*
X134076185Y-112847857D02*
X134147614Y-112919286D01*
X134147614Y-112919286D02*
X134290471Y-112990714D01*
D10*
X161750476Y-120737219D02*
X161750476Y-121451504D01*
X161750476Y-121451504D02*
X161702857Y-121594361D01*
X161702857Y-121594361D02*
X161607619Y-121689600D01*
X161607619Y-121689600D02*
X161464762Y-121737219D01*
X161464762Y-121737219D02*
X161369524Y-121737219D01*
X162750476Y-121737219D02*
X162179048Y-121737219D01*
X162464762Y-121737219D02*
X162464762Y-120737219D01*
X162464762Y-120737219D02*
X162369524Y-120880076D01*
X162369524Y-120880076D02*
X162274286Y-120975314D01*
X162274286Y-120975314D02*
X162179048Y-121022933D01*
X163369524Y-120737219D02*
X163464762Y-120737219D01*
X163464762Y-120737219D02*
X163560000Y-120784838D01*
X163560000Y-120784838D02*
X163607619Y-120832457D01*
X163607619Y-120832457D02*
X163655238Y-120927695D01*
X163655238Y-120927695D02*
X163702857Y-121118171D01*
X163702857Y-121118171D02*
X163702857Y-121356266D01*
X163702857Y-121356266D02*
X163655238Y-121546742D01*
X163655238Y-121546742D02*
X163607619Y-121641980D01*
X163607619Y-121641980D02*
X163560000Y-121689600D01*
X163560000Y-121689600D02*
X163464762Y-121737219D01*
X163464762Y-121737219D02*
X163369524Y-121737219D01*
X163369524Y-121737219D02*
X163274286Y-121689600D01*
X163274286Y-121689600D02*
X163226667Y-121641980D01*
X163226667Y-121641980D02*
X163179048Y-121546742D01*
X163179048Y-121546742D02*
X163131429Y-121356266D01*
X163131429Y-121356266D02*
X163131429Y-121118171D01*
X163131429Y-121118171D02*
X163179048Y-120927695D01*
X163179048Y-120927695D02*
X163226667Y-120832457D01*
X163226667Y-120832457D02*
X163274286Y-120784838D01*
X163274286Y-120784838D02*
X163369524Y-120737219D01*
X152066666Y-150107219D02*
X152066666Y-150821504D01*
X152066666Y-150821504D02*
X152019047Y-150964361D01*
X152019047Y-150964361D02*
X151923809Y-151059600D01*
X151923809Y-151059600D02*
X151780952Y-151107219D01*
X151780952Y-151107219D02*
X151685714Y-151107219D01*
X152685714Y-150535790D02*
X152590476Y-150488171D01*
X152590476Y-150488171D02*
X152542857Y-150440552D01*
X152542857Y-150440552D02*
X152495238Y-150345314D01*
X152495238Y-150345314D02*
X152495238Y-150297695D01*
X152495238Y-150297695D02*
X152542857Y-150202457D01*
X152542857Y-150202457D02*
X152590476Y-150154838D01*
X152590476Y-150154838D02*
X152685714Y-150107219D01*
X152685714Y-150107219D02*
X152876190Y-150107219D01*
X152876190Y-150107219D02*
X152971428Y-150154838D01*
X152971428Y-150154838D02*
X153019047Y-150202457D01*
X153019047Y-150202457D02*
X153066666Y-150297695D01*
X153066666Y-150297695D02*
X153066666Y-150345314D01*
X153066666Y-150345314D02*
X153019047Y-150440552D01*
X153019047Y-150440552D02*
X152971428Y-150488171D01*
X152971428Y-150488171D02*
X152876190Y-150535790D01*
X152876190Y-150535790D02*
X152685714Y-150535790D01*
X152685714Y-150535790D02*
X152590476Y-150583409D01*
X152590476Y-150583409D02*
X152542857Y-150631028D01*
X152542857Y-150631028D02*
X152495238Y-150726266D01*
X152495238Y-150726266D02*
X152495238Y-150916742D01*
X152495238Y-150916742D02*
X152542857Y-151011980D01*
X152542857Y-151011980D02*
X152590476Y-151059600D01*
X152590476Y-151059600D02*
X152685714Y-151107219D01*
X152685714Y-151107219D02*
X152876190Y-151107219D01*
X152876190Y-151107219D02*
X152971428Y-151059600D01*
X152971428Y-151059600D02*
X153019047Y-151011980D01*
X153019047Y-151011980D02*
X153066666Y-150916742D01*
X153066666Y-150916742D02*
X153066666Y-150726266D01*
X153066666Y-150726266D02*
X153019047Y-150631028D01*
X153019047Y-150631028D02*
X152971428Y-150583409D01*
X152971428Y-150583409D02*
X152876190Y-150535790D01*
X149526666Y-113277219D02*
X149526666Y-113991504D01*
X149526666Y-113991504D02*
X149479047Y-114134361D01*
X149479047Y-114134361D02*
X149383809Y-114229600D01*
X149383809Y-114229600D02*
X149240952Y-114277219D01*
X149240952Y-114277219D02*
X149145714Y-114277219D01*
X150431428Y-113277219D02*
X150240952Y-113277219D01*
X150240952Y-113277219D02*
X150145714Y-113324838D01*
X150145714Y-113324838D02*
X150098095Y-113372457D01*
X150098095Y-113372457D02*
X150002857Y-113515314D01*
X150002857Y-113515314D02*
X149955238Y-113705790D01*
X149955238Y-113705790D02*
X149955238Y-114086742D01*
X149955238Y-114086742D02*
X150002857Y-114181980D01*
X150002857Y-114181980D02*
X150050476Y-114229600D01*
X150050476Y-114229600D02*
X150145714Y-114277219D01*
X150145714Y-114277219D02*
X150336190Y-114277219D01*
X150336190Y-114277219D02*
X150431428Y-114229600D01*
X150431428Y-114229600D02*
X150479047Y-114181980D01*
X150479047Y-114181980D02*
X150526666Y-114086742D01*
X150526666Y-114086742D02*
X150526666Y-113848647D01*
X150526666Y-113848647D02*
X150479047Y-113753409D01*
X150479047Y-113753409D02*
X150431428Y-113705790D01*
X150431428Y-113705790D02*
X150336190Y-113658171D01*
X150336190Y-113658171D02*
X150145714Y-113658171D01*
X150145714Y-113658171D02*
X150050476Y-113705790D01*
X150050476Y-113705790D02*
X150002857Y-113753409D01*
X150002857Y-113753409D02*
X149955238Y-113848647D01*
X141906666Y-120737219D02*
X141906666Y-121451504D01*
X141906666Y-121451504D02*
X141859047Y-121594361D01*
X141859047Y-121594361D02*
X141763809Y-121689600D01*
X141763809Y-121689600D02*
X141620952Y-121737219D01*
X141620952Y-121737219D02*
X141525714Y-121737219D01*
X142287619Y-120737219D02*
X142906666Y-120737219D01*
X142906666Y-120737219D02*
X142573333Y-121118171D01*
X142573333Y-121118171D02*
X142716190Y-121118171D01*
X142716190Y-121118171D02*
X142811428Y-121165790D01*
X142811428Y-121165790D02*
X142859047Y-121213409D01*
X142859047Y-121213409D02*
X142906666Y-121308647D01*
X142906666Y-121308647D02*
X142906666Y-121546742D01*
X142906666Y-121546742D02*
X142859047Y-121641980D01*
X142859047Y-121641980D02*
X142811428Y-121689600D01*
X142811428Y-121689600D02*
X142716190Y-121737219D01*
X142716190Y-121737219D02*
X142430476Y-121737219D01*
X142430476Y-121737219D02*
X142335238Y-121689600D01*
X142335238Y-121689600D02*
X142287619Y-121641980D01*
X141906666Y-139947219D02*
X141906666Y-140661504D01*
X141906666Y-140661504D02*
X141859047Y-140804361D01*
X141859047Y-140804361D02*
X141763809Y-140899600D01*
X141763809Y-140899600D02*
X141620952Y-140947219D01*
X141620952Y-140947219D02*
X141525714Y-140947219D01*
X142811428Y-140280552D02*
X142811428Y-140947219D01*
X142573333Y-139899600D02*
X142335238Y-140613885D01*
X142335238Y-140613885D02*
X142954285Y-140613885D01*
D13*
X162393333Y-91259819D02*
X162060000Y-90783628D01*
X161821905Y-91259819D02*
X161821905Y-90259819D01*
X161821905Y-90259819D02*
X162202857Y-90259819D01*
X162202857Y-90259819D02*
X162298095Y-90307438D01*
X162298095Y-90307438D02*
X162345714Y-90355057D01*
X162345714Y-90355057D02*
X162393333Y-90450295D01*
X162393333Y-90450295D02*
X162393333Y-90593152D01*
X162393333Y-90593152D02*
X162345714Y-90688390D01*
X162345714Y-90688390D02*
X162298095Y-90736009D01*
X162298095Y-90736009D02*
X162202857Y-90783628D01*
X162202857Y-90783628D02*
X161821905Y-90783628D01*
X162774286Y-90355057D02*
X162821905Y-90307438D01*
X162821905Y-90307438D02*
X162917143Y-90259819D01*
X162917143Y-90259819D02*
X163155238Y-90259819D01*
X163155238Y-90259819D02*
X163250476Y-90307438D01*
X163250476Y-90307438D02*
X163298095Y-90355057D01*
X163298095Y-90355057D02*
X163345714Y-90450295D01*
X163345714Y-90450295D02*
X163345714Y-90545533D01*
X163345714Y-90545533D02*
X163298095Y-90688390D01*
X163298095Y-90688390D02*
X162726667Y-91259819D01*
X162726667Y-91259819D02*
X163345714Y-91259819D01*
D10*
X162226666Y-150107219D02*
X162226666Y-150821504D01*
X162226666Y-150821504D02*
X162179047Y-150964361D01*
X162179047Y-150964361D02*
X162083809Y-151059600D01*
X162083809Y-151059600D02*
X161940952Y-151107219D01*
X161940952Y-151107219D02*
X161845714Y-151107219D01*
X162750476Y-151107219D02*
X162940952Y-151107219D01*
X162940952Y-151107219D02*
X163036190Y-151059600D01*
X163036190Y-151059600D02*
X163083809Y-151011980D01*
X163083809Y-151011980D02*
X163179047Y-150869123D01*
X163179047Y-150869123D02*
X163226666Y-150678647D01*
X163226666Y-150678647D02*
X163226666Y-150297695D01*
X163226666Y-150297695D02*
X163179047Y-150202457D01*
X163179047Y-150202457D02*
X163131428Y-150154838D01*
X163131428Y-150154838D02*
X163036190Y-150107219D01*
X163036190Y-150107219D02*
X162845714Y-150107219D01*
X162845714Y-150107219D02*
X162750476Y-150154838D01*
X162750476Y-150154838D02*
X162702857Y-150202457D01*
X162702857Y-150202457D02*
X162655238Y-150297695D01*
X162655238Y-150297695D02*
X162655238Y-150535790D01*
X162655238Y-150535790D02*
X162702857Y-150631028D01*
X162702857Y-150631028D02*
X162750476Y-150678647D01*
X162750476Y-150678647D02*
X162845714Y-150726266D01*
X162845714Y-150726266D02*
X163036190Y-150726266D01*
X163036190Y-150726266D02*
X163131428Y-150678647D01*
X163131428Y-150678647D02*
X163179047Y-150631028D01*
X163179047Y-150631028D02*
X163226666Y-150535790D01*
D12*
X144637142Y-130996185D02*
X144494285Y-130924757D01*
X144494285Y-130924757D02*
X144351428Y-130781900D01*
X144351428Y-130781900D02*
X144137142Y-130567614D01*
X144137142Y-130567614D02*
X143994285Y-130496185D01*
X143994285Y-130496185D02*
X143851428Y-130496185D01*
X143922857Y-130853328D02*
X143780000Y-130781900D01*
X143780000Y-130781900D02*
X143637142Y-130639042D01*
X143637142Y-130639042D02*
X143565714Y-130353328D01*
X143565714Y-130353328D02*
X143565714Y-129853328D01*
X143565714Y-129853328D02*
X143637142Y-129567614D01*
X143637142Y-129567614D02*
X143780000Y-129424757D01*
X143780000Y-129424757D02*
X143922857Y-129353328D01*
X143922857Y-129353328D02*
X144208571Y-129353328D01*
X144208571Y-129353328D02*
X144351428Y-129424757D01*
X144351428Y-129424757D02*
X144494285Y-129567614D01*
X144494285Y-129567614D02*
X144565714Y-129853328D01*
X144565714Y-129853328D02*
X144565714Y-130353328D01*
X144565714Y-130353328D02*
X144494285Y-130639042D01*
X144494285Y-130639042D02*
X144351428Y-130781900D01*
X144351428Y-130781900D02*
X144208571Y-130853328D01*
X144208571Y-130853328D02*
X143922857Y-130853328D01*
X145851429Y-129853328D02*
X145851429Y-130853328D01*
X145494286Y-129281900D02*
X145137143Y-130353328D01*
X145137143Y-130353328D02*
X146065714Y-130353328D01*
X133941185Y-136751427D02*
X133869757Y-136679999D01*
X133869757Y-136679999D02*
X133798328Y-136537142D01*
X133798328Y-136537142D02*
X133798328Y-136179999D01*
X133798328Y-136179999D02*
X133869757Y-136037142D01*
X133869757Y-136037142D02*
X133941185Y-135965713D01*
X133941185Y-135965713D02*
X134084042Y-135894284D01*
X134084042Y-135894284D02*
X134226900Y-135894284D01*
X134226900Y-135894284D02*
X134441185Y-135965713D01*
X134441185Y-135965713D02*
X135298328Y-136822856D01*
X135298328Y-136822856D02*
X135298328Y-135894284D01*
X135298328Y-135251428D02*
X133798328Y-135251428D01*
X133798328Y-135251428D02*
X135298328Y-134394285D01*
X135298328Y-134394285D02*
X133798328Y-134394285D01*
X133798328Y-133822856D02*
X133798328Y-132894284D01*
X133798328Y-132894284D02*
X134369757Y-133394284D01*
X134369757Y-133394284D02*
X134369757Y-133179999D01*
X134369757Y-133179999D02*
X134441185Y-133037142D01*
X134441185Y-133037142D02*
X134512614Y-132965713D01*
X134512614Y-132965713D02*
X134655471Y-132894284D01*
X134655471Y-132894284D02*
X135012614Y-132894284D01*
X135012614Y-132894284D02*
X135155471Y-132965713D01*
X135155471Y-132965713D02*
X135226900Y-133037142D01*
X135226900Y-133037142D02*
X135298328Y-133179999D01*
X135298328Y-133179999D02*
X135298328Y-133608570D01*
X135298328Y-133608570D02*
X135226900Y-133751427D01*
X135226900Y-133751427D02*
X135155471Y-133822856D01*
X135298328Y-132179999D02*
X135298328Y-131894285D01*
X135298328Y-131894285D02*
X135226900Y-131751428D01*
X135226900Y-131751428D02*
X135155471Y-131679999D01*
X135155471Y-131679999D02*
X134941185Y-131537142D01*
X134941185Y-131537142D02*
X134655471Y-131465713D01*
X134655471Y-131465713D02*
X134084042Y-131465713D01*
X134084042Y-131465713D02*
X133941185Y-131537142D01*
X133941185Y-131537142D02*
X133869757Y-131608571D01*
X133869757Y-131608571D02*
X133798328Y-131751428D01*
X133798328Y-131751428D02*
X133798328Y-132037142D01*
X133798328Y-132037142D02*
X133869757Y-132179999D01*
X133869757Y-132179999D02*
X133941185Y-132251428D01*
X133941185Y-132251428D02*
X134084042Y-132322856D01*
X134084042Y-132322856D02*
X134441185Y-132322856D01*
X134441185Y-132322856D02*
X134584042Y-132251428D01*
X134584042Y-132251428D02*
X134655471Y-132179999D01*
X134655471Y-132179999D02*
X134726900Y-132037142D01*
X134726900Y-132037142D02*
X134726900Y-131751428D01*
X134726900Y-131751428D02*
X134655471Y-131608571D01*
X134655471Y-131608571D02*
X134584042Y-131537142D01*
X134584042Y-131537142D02*
X134441185Y-131465713D01*
X133798328Y-130537142D02*
X133798328Y-130394285D01*
X133798328Y-130394285D02*
X133869757Y-130251428D01*
X133869757Y-130251428D02*
X133941185Y-130180000D01*
X133941185Y-130180000D02*
X134084042Y-130108571D01*
X134084042Y-130108571D02*
X134369757Y-130037142D01*
X134369757Y-130037142D02*
X134726900Y-130037142D01*
X134726900Y-130037142D02*
X135012614Y-130108571D01*
X135012614Y-130108571D02*
X135155471Y-130180000D01*
X135155471Y-130180000D02*
X135226900Y-130251428D01*
X135226900Y-130251428D02*
X135298328Y-130394285D01*
X135298328Y-130394285D02*
X135298328Y-130537142D01*
X135298328Y-130537142D02*
X135226900Y-130680000D01*
X135226900Y-130680000D02*
X135155471Y-130751428D01*
X135155471Y-130751428D02*
X135012614Y-130822857D01*
X135012614Y-130822857D02*
X134726900Y-130894285D01*
X134726900Y-130894285D02*
X134369757Y-130894285D01*
X134369757Y-130894285D02*
X134084042Y-130822857D01*
X134084042Y-130822857D02*
X133941185Y-130751428D01*
X133941185Y-130751428D02*
X133869757Y-130680000D01*
X133869757Y-130680000D02*
X133798328Y-130537142D01*
X133798328Y-128751429D02*
X133798328Y-129037143D01*
X133798328Y-129037143D02*
X133869757Y-129180000D01*
X133869757Y-129180000D02*
X133941185Y-129251429D01*
X133941185Y-129251429D02*
X134155471Y-129394286D01*
X134155471Y-129394286D02*
X134441185Y-129465714D01*
X134441185Y-129465714D02*
X135012614Y-129465714D01*
X135012614Y-129465714D02*
X135155471Y-129394286D01*
X135155471Y-129394286D02*
X135226900Y-129322857D01*
X135226900Y-129322857D02*
X135298328Y-129180000D01*
X135298328Y-129180000D02*
X135298328Y-128894286D01*
X135298328Y-128894286D02*
X135226900Y-128751429D01*
X135226900Y-128751429D02*
X135155471Y-128680000D01*
X135155471Y-128680000D02*
X135012614Y-128608571D01*
X135012614Y-128608571D02*
X134655471Y-128608571D01*
X134655471Y-128608571D02*
X134512614Y-128680000D01*
X134512614Y-128680000D02*
X134441185Y-128751429D01*
X134441185Y-128751429D02*
X134369757Y-128894286D01*
X134369757Y-128894286D02*
X134369757Y-129180000D01*
X134369757Y-129180000D02*
X134441185Y-129322857D01*
X134441185Y-129322857D02*
X134512614Y-129394286D01*
X134512614Y-129394286D02*
X134655471Y-129465714D01*
D10*
X149526666Y-129787219D02*
X149526666Y-130501504D01*
X149526666Y-130501504D02*
X149479047Y-130644361D01*
X149479047Y-130644361D02*
X149383809Y-130739600D01*
X149383809Y-130739600D02*
X149240952Y-130787219D01*
X149240952Y-130787219D02*
X149145714Y-130787219D01*
X149907619Y-129787219D02*
X150574285Y-129787219D01*
X150574285Y-129787219D02*
X150145714Y-130787219D01*
X141906666Y-73747219D02*
X141906666Y-74461504D01*
X141906666Y-74461504D02*
X141859047Y-74604361D01*
X141859047Y-74604361D02*
X141763809Y-74699600D01*
X141763809Y-74699600D02*
X141620952Y-74747219D01*
X141620952Y-74747219D02*
X141525714Y-74747219D01*
X142906666Y-74747219D02*
X142335238Y-74747219D01*
X142620952Y-74747219D02*
X142620952Y-73747219D01*
X142620952Y-73747219D02*
X142525714Y-73890076D01*
X142525714Y-73890076D02*
X142430476Y-73985314D01*
X142430476Y-73985314D02*
X142335238Y-74032933D01*
X141906666Y-85177219D02*
X141906666Y-85891504D01*
X141906666Y-85891504D02*
X141859047Y-86034361D01*
X141859047Y-86034361D02*
X141763809Y-86129600D01*
X141763809Y-86129600D02*
X141620952Y-86177219D01*
X141620952Y-86177219D02*
X141525714Y-86177219D01*
X142335238Y-85272457D02*
X142382857Y-85224838D01*
X142382857Y-85224838D02*
X142478095Y-85177219D01*
X142478095Y-85177219D02*
X142716190Y-85177219D01*
X142716190Y-85177219D02*
X142811428Y-85224838D01*
X142811428Y-85224838D02*
X142859047Y-85272457D01*
X142859047Y-85272457D02*
X142906666Y-85367695D01*
X142906666Y-85367695D02*
X142906666Y-85462933D01*
X142906666Y-85462933D02*
X142859047Y-85605790D01*
X142859047Y-85605790D02*
X142287619Y-86177219D01*
X142287619Y-86177219D02*
X142906666Y-86177219D01*
X164290476Y-154392219D02*
X164290476Y-155106504D01*
X164290476Y-155106504D02*
X164242857Y-155249361D01*
X164242857Y-155249361D02*
X164147619Y-155344600D01*
X164147619Y-155344600D02*
X164004762Y-155392219D01*
X164004762Y-155392219D02*
X163909524Y-155392219D01*
X165290476Y-155392219D02*
X164719048Y-155392219D01*
X165004762Y-155392219D02*
X165004762Y-154392219D01*
X165004762Y-154392219D02*
X164909524Y-154535076D01*
X164909524Y-154535076D02*
X164814286Y-154630314D01*
X164814286Y-154630314D02*
X164719048Y-154677933D01*
X165671429Y-154487457D02*
X165719048Y-154439838D01*
X165719048Y-154439838D02*
X165814286Y-154392219D01*
X165814286Y-154392219D02*
X166052381Y-154392219D01*
X166052381Y-154392219D02*
X166147619Y-154439838D01*
X166147619Y-154439838D02*
X166195238Y-154487457D01*
X166195238Y-154487457D02*
X166242857Y-154582695D01*
X166242857Y-154582695D02*
X166242857Y-154677933D01*
X166242857Y-154677933D02*
X166195238Y-154820790D01*
X166195238Y-154820790D02*
X165623810Y-155392219D01*
X165623810Y-155392219D02*
X166242857Y-155392219D01*
X174450476Y-139812219D02*
X174450476Y-140526504D01*
X174450476Y-140526504D02*
X174402857Y-140669361D01*
X174402857Y-140669361D02*
X174307619Y-140764600D01*
X174307619Y-140764600D02*
X174164762Y-140812219D01*
X174164762Y-140812219D02*
X174069524Y-140812219D01*
X175450476Y-140812219D02*
X174879048Y-140812219D01*
X175164762Y-140812219D02*
X175164762Y-139812219D01*
X175164762Y-139812219D02*
X175069524Y-139955076D01*
X175069524Y-139955076D02*
X174974286Y-140050314D01*
X174974286Y-140050314D02*
X174879048Y-140097933D01*
X175783810Y-139812219D02*
X176402857Y-139812219D01*
X176402857Y-139812219D02*
X176069524Y-140193171D01*
X176069524Y-140193171D02*
X176212381Y-140193171D01*
X176212381Y-140193171D02*
X176307619Y-140240790D01*
X176307619Y-140240790D02*
X176355238Y-140288409D01*
X176355238Y-140288409D02*
X176402857Y-140383647D01*
X176402857Y-140383647D02*
X176402857Y-140621742D01*
X176402857Y-140621742D02*
X176355238Y-140716980D01*
X176355238Y-140716980D02*
X176307619Y-140764600D01*
X176307619Y-140764600D02*
X176212381Y-140812219D01*
X176212381Y-140812219D02*
X175926667Y-140812219D01*
X175926667Y-140812219D02*
X175831429Y-140764600D01*
X175831429Y-140764600D02*
X175783810Y-140716980D01*
D14*
%TO.C,Q3*%
X161870000Y-134515000D02*
X161870000Y-130915000D01*
X157420000Y-132715000D02*
G75*
G02*
X158921193Y-130358600I2600000J0D01*
G01*
X158921193Y-135071400D02*
G75*
G02*
X157420000Y-132715000I1098807J2356400D01*
G01*
X161142795Y-130390816D02*
G75*
G02*
X161870000Y-130915000I-1122795J-2324184D01*
G01*
X161870000Y-134515000D02*
G75*
G02*
X161142795Y-135039184I-1850000J1800000D01*
G01*
%TO.C,J11*%
X158720000Y-140955000D02*
X160100000Y-140955000D01*
X158720000Y-142335000D02*
X158720000Y-140955000D01*
X158720000Y-143605000D02*
X158720000Y-146255000D01*
X158720000Y-143605000D02*
X161480000Y-143605000D01*
X158720000Y-146255000D02*
X161480000Y-146255000D01*
X161480000Y-143605000D02*
X161480000Y-146255000D01*
%TO.C,R1*%
X139700000Y-90575000D02*
X139700000Y-91345000D01*
X139700000Y-98655000D02*
X139700000Y-97885000D01*
X141070000Y-91345000D02*
X138330000Y-91345000D01*
X138330000Y-97885000D01*
X141070000Y-97885000D01*
X141070000Y-91345000D01*
%TO.C,Q2*%
X161870000Y-118005000D02*
X161870000Y-114405000D01*
X157420000Y-116205000D02*
G75*
G02*
X158921193Y-113848600I2600000J0D01*
G01*
X158921193Y-118561400D02*
G75*
G02*
X157420000Y-116205000I1098807J2356400D01*
G01*
X161142795Y-113880816D02*
G75*
G02*
X161870000Y-114405000I-1122795J-2324184D01*
G01*
X161870000Y-118005000D02*
G75*
G02*
X161142795Y-118529184I-1850000J1800000D01*
G01*
%TO.C,J15*%
X158640000Y-105935000D02*
X160020000Y-105935000D01*
X158640000Y-107315000D02*
X158640000Y-105935000D01*
X158640000Y-108585000D02*
X158640000Y-108695000D01*
X158640000Y-108585000D02*
X161400000Y-108585000D01*
X158640000Y-108695000D02*
X161400000Y-108695000D01*
X161400000Y-108585000D02*
X161400000Y-108695000D01*
%TO.C,C1*%
X148490000Y-77065000D02*
X151230000Y-77065000D01*
X148490000Y-84305000D02*
X148490000Y-77065000D01*
X151230000Y-77065000D02*
X151230000Y-84305000D01*
X151230000Y-84305000D02*
X148490000Y-84305000D01*
%TO.C,RV1*%
X137430000Y-147030000D02*
X139483000Y-147030000D01*
X137430000Y-153960000D02*
X137430000Y-147030000D01*
X139483000Y-153960000D02*
X137430000Y-153960000D01*
X139917000Y-147030000D02*
X142150000Y-147030000D01*
X142150000Y-147030000D02*
X142150000Y-153960000D01*
X142150000Y-153960000D02*
X139917000Y-153960000D01*
%TO.C,J14*%
X138320000Y-105935000D02*
X139700000Y-105935000D01*
X138320000Y-107315000D02*
X138320000Y-105935000D01*
X138320000Y-108585000D02*
X138320000Y-108695000D01*
X138320000Y-108585000D02*
X141080000Y-108585000D01*
X138320000Y-108695000D02*
X141080000Y-108695000D01*
X141080000Y-108585000D02*
X141080000Y-108695000D01*
%TO.C,J5*%
X158640000Y-81805000D02*
X160020000Y-81805000D01*
X158640000Y-83185000D02*
X158640000Y-81805000D01*
X158640000Y-84455000D02*
X158640000Y-84565000D01*
X158640000Y-84455000D02*
X161400000Y-84455000D01*
X158640000Y-84565000D02*
X161400000Y-84565000D01*
X161400000Y-84455000D02*
X161400000Y-84565000D01*
%TO.C,Q1*%
X141550000Y-118005000D02*
X141550000Y-114405000D01*
X137100000Y-116205000D02*
G75*
G02*
X138601193Y-113848600I2600000J0D01*
G01*
X138601193Y-118561400D02*
G75*
G02*
X137100000Y-116205000I1098807J2356400D01*
G01*
X140822795Y-113880816D02*
G75*
G02*
X141550000Y-114405000I-1122795J-2324184D01*
G01*
X141550000Y-118005000D02*
G75*
G02*
X140822795Y-118529184I-1850000J1800000D01*
G01*
%TO.C,J10*%
X158640000Y-122445000D02*
X160020000Y-122445000D01*
X158640000Y-123825000D02*
X158640000Y-122445000D01*
X158640000Y-125095000D02*
X158640000Y-125205000D01*
X158640000Y-125095000D02*
X161400000Y-125095000D01*
X158640000Y-125205000D02*
X161400000Y-125205000D01*
X161400000Y-125095000D02*
X161400000Y-125205000D01*
%TO.C,J8*%
X148480000Y-151655000D02*
X149860000Y-151655000D01*
X148480000Y-153035000D02*
X148480000Y-151655000D01*
X148480000Y-154305000D02*
X148480000Y-154415000D01*
X148480000Y-154305000D02*
X151240000Y-154305000D01*
X148480000Y-154415000D02*
X151240000Y-154415000D01*
X151240000Y-154305000D02*
X151240000Y-154415000D01*
%TO.C,J6*%
X148480000Y-114825000D02*
X149860000Y-114825000D01*
X148480000Y-116205000D02*
X148480000Y-114825000D01*
X148480000Y-117475000D02*
X148480000Y-117585000D01*
X148480000Y-117475000D02*
X151240000Y-117475000D01*
X148480000Y-117585000D02*
X151240000Y-117585000D01*
X151240000Y-117475000D02*
X151240000Y-117585000D01*
%TO.C,J3*%
X138320000Y-122445000D02*
X139700000Y-122445000D01*
X138320000Y-123825000D02*
X138320000Y-122445000D01*
X138320000Y-125095000D02*
X138320000Y-125205000D01*
X138320000Y-125095000D02*
X141080000Y-125095000D01*
X138320000Y-125205000D02*
X141080000Y-125205000D01*
X141080000Y-125095000D02*
X141080000Y-125205000D01*
%TO.C,J4*%
X138320000Y-141495000D02*
X139700000Y-141495000D01*
X138320000Y-142875000D02*
X138320000Y-141495000D01*
X138320000Y-144145000D02*
X138320000Y-144255000D01*
X138320000Y-144145000D02*
X141080000Y-144145000D01*
X138320000Y-144255000D02*
X141080000Y-144255000D01*
X141080000Y-144145000D02*
X141080000Y-144255000D01*
%TO.C,R2*%
X160020000Y-90575000D02*
X160020000Y-91345000D01*
X160020000Y-98655000D02*
X160020000Y-97885000D01*
X161390000Y-91345000D02*
X158650000Y-91345000D01*
X158650000Y-97885000D01*
X161390000Y-97885000D01*
X161390000Y-91345000D01*
%TO.C,J9*%
X158640000Y-151655000D02*
X160020000Y-151655000D01*
X158640000Y-153035000D02*
X158640000Y-151655000D01*
X158640000Y-154305000D02*
X158640000Y-154415000D01*
X158640000Y-154305000D02*
X161400000Y-154305000D01*
X158640000Y-154415000D02*
X161400000Y-154415000D01*
X161400000Y-154305000D02*
X161400000Y-154415000D01*
%TO.C,Q4*%
X141550000Y-134515000D02*
X141550000Y-130915000D01*
X137100000Y-132715000D02*
G75*
G02*
X138601193Y-130358600I2600000J0D01*
G01*
X138601193Y-135071400D02*
G75*
G02*
X137100000Y-132715000I1098807J2356400D01*
G01*
X140822795Y-130390816D02*
G75*
G02*
X141550000Y-130915000I-1122795J-2324184D01*
G01*
X141550000Y-134515000D02*
G75*
G02*
X140822795Y-135039184I-1850000J1800000D01*
G01*
%TO.C,J7*%
X148480000Y-131335000D02*
X149860000Y-131335000D01*
X148480000Y-132715000D02*
X148480000Y-131335000D01*
X148480000Y-133985000D02*
X148480000Y-134095000D01*
X148480000Y-133985000D02*
X151240000Y-133985000D01*
X148480000Y-134095000D02*
X151240000Y-134095000D01*
X151240000Y-133985000D02*
X151240000Y-134095000D01*
%TO.C,J1*%
X135780000Y-74185000D02*
X135780000Y-76945000D01*
X138430000Y-74185000D02*
X135780000Y-74185000D01*
X138430000Y-74185000D02*
X138430000Y-76945000D01*
X138430000Y-76945000D02*
X135780000Y-76945000D01*
X139700000Y-74185000D02*
X141080000Y-74185000D01*
X141080000Y-74185000D02*
X141080000Y-75565000D01*
%TO.C,J2*%
X135780000Y-81805000D02*
X135780000Y-84565000D01*
X138430000Y-81805000D02*
X135780000Y-81805000D01*
X138430000Y-81805000D02*
X138430000Y-84565000D01*
X138430000Y-84565000D02*
X135780000Y-84565000D01*
X139700000Y-81805000D02*
X141080000Y-81805000D01*
X141080000Y-81805000D02*
X141080000Y-83185000D01*
%TD*%
M02*
