%TF.GenerationSoftware,KiCad,Pcbnew,9.0.6-9.0.6~ubuntu22.04.1*%
%TF.CreationDate,2025-12-31T15:55:55+01:00*%
%TF.ProjectId,Symmetric_Wilson_Current_Mirror_With_Explanations,53796d6d-6574-4726-9963-5f57696c736f,rev?*%
%TF.SameCoordinates,Original*%
%TF.FileFunction,Copper,L2,Bot*%
%TF.FilePolarity,Positive*%
%FSLAX46Y46*%
G04 Gerber Fmt 4.6, Leading zero omitted, Abs format (unit mm)*
G04 Created by KiCad (PCBNEW 9.0.6-9.0.6~ubuntu22.04.1) date 2025-12-31 15:55:55*
%MOMM*%
%LPD*%
G01*
G04 APERTURE LIST*
%TA.AperFunction,NonConductor*%
%ADD10C,0.200000*%
%TD*%
%TA.AperFunction,ComponentPad*%
%ADD11R,1.500000X1.500000*%
%TD*%
%TA.AperFunction,ComponentPad*%
%ADD12C,1.500000*%
%TD*%
%TA.AperFunction,ComponentPad*%
%ADD13R,1.700000X1.700000*%
%TD*%
%TA.AperFunction,ComponentPad*%
%ADD14C,1.700000*%
%TD*%
%TA.AperFunction,ComponentPad*%
%ADD15C,1.600000*%
%TD*%
%TA.AperFunction,ComponentPad*%
%ADD16C,1.440000*%
%TD*%
%TA.AperFunction,ViaPad*%
%ADD17C,1.300000*%
%TD*%
%TA.AperFunction,Conductor*%
%ADD18C,1.000000*%
%TD*%
G04 APERTURE END LIST*
D10*
X246860000Y-73660000D02*
G75*
G02*
X243360000Y-73660000I-1750000J0D01*
G01*
X243360000Y-73660000D02*
G75*
G02*
X246860000Y-73660000I1750000J0D01*
G01*
X83030000Y-153670000D02*
G75*
G02*
X79530000Y-153670000I-1750000J0D01*
G01*
X79530000Y-153670000D02*
G75*
G02*
X83030000Y-153670000I1750000J0D01*
G01*
X184630000Y-73660000D02*
G75*
G02*
X181130000Y-73660000I-1750000J0D01*
G01*
X181130000Y-73660000D02*
G75*
G02*
X184630000Y-73660000I1750000J0D01*
G01*
X184630000Y-153670000D02*
G75*
G02*
X181130000Y-153670000I-1750000J0D01*
G01*
X181130000Y-153670000D02*
G75*
G02*
X184630000Y-153670000I1750000J0D01*
G01*
X131290000Y-153670000D02*
G75*
G02*
X127790000Y-153670000I-1750000J0D01*
G01*
X127790000Y-153670000D02*
G75*
G02*
X131290000Y-153670000I1750000J0D01*
G01*
X246860000Y-153670000D02*
G75*
G02*
X243360000Y-153670000I-1750000J0D01*
G01*
X243360000Y-153670000D02*
G75*
G02*
X246860000Y-153670000I1750000J0D01*
G01*
X83030000Y-73660000D02*
G75*
G02*
X79530000Y-73660000I-1750000J0D01*
G01*
X79530000Y-73660000D02*
G75*
G02*
X83030000Y-73660000I1750000J0D01*
G01*
X131290000Y-73660000D02*
G75*
G02*
X127790000Y-73660000I-1750000J0D01*
G01*
X127790000Y-73660000D02*
G75*
G02*
X131290000Y-73660000I1750000J0D01*
G01*
D11*
%TO.P,Q3,1,C*%
%TO.N,Vout*%
X160020000Y-135255000D03*
D12*
%TO.P,Q3,2,B*%
%TO.N,Net-(J4-Pin_1)*%
X160020000Y-132715000D03*
%TO.P,Q3,3,E*%
%TO.N,Net-(J10-Pin_1)*%
X160020000Y-130175000D03*
%TD*%
D13*
%TO.P,J11,1,Pin_1*%
%TO.N,Vout*%
X160100000Y-142335000D03*
D14*
%TO.P,J11,2,Pin_2*%
%TO.N,Gnd*%
X160100000Y-144875000D03*
%TD*%
D15*
%TO.P,R1,1*%
%TO.N,Net-(J1-Pin_1)*%
X139700000Y-89535000D03*
%TO.P,R1,2*%
%TO.N,Net-(J14-Pin_1)*%
X139700000Y-99695000D03*
%TD*%
D11*
%TO.P,Q2,1,C*%
%TO.N,Net-(J10-Pin_1)*%
X160020000Y-118745000D03*
D12*
%TO.P,Q2,2,B*%
X160020000Y-116205000D03*
%TO.P,Q2,3,E*%
%TO.N,Net-(J15-Pin_1)*%
X160020000Y-113665000D03*
%TD*%
D13*
%TO.P,J15,1,Pin_1*%
%TO.N,Net-(J15-Pin_1)*%
X160020000Y-107315000D03*
%TD*%
D15*
%TO.P,C1,1*%
%TO.N,Net-(J1-Pin_1)*%
X149860000Y-83185000D03*
%TO.P,C1,2*%
%TO.N,Gnd*%
X149860000Y-78185000D03*
%TD*%
D16*
%TO.P,RV1,1,1*%
%TO.N,Net-(J4-Pin_1)*%
X139700000Y-147955000D03*
%TO.P,RV1,2,2*%
%TO.N,Gnd*%
X139700000Y-150495000D03*
%TO.P,RV1,3,3*%
X139700000Y-153035000D03*
%TD*%
D13*
%TO.P,J14,1,Pin_1*%
%TO.N,Net-(J14-Pin_1)*%
X139700000Y-107315000D03*
%TD*%
%TO.P,J5,1,Pin_1*%
%TO.N,Net-(J1-Pin_1)*%
X160020000Y-83185000D03*
%TD*%
D11*
%TO.P,Q1,1,C*%
%TO.N,Net-(J3-Pin_1)*%
X139700000Y-118745000D03*
D12*
%TO.P,Q1,2,B*%
%TO.N,Net-(J10-Pin_1)*%
X139700000Y-116205000D03*
%TO.P,Q1,3,E*%
%TO.N,Net-(J14-Pin_1)*%
X139700000Y-113665000D03*
%TD*%
D13*
%TO.P,J10,1,Pin_1*%
%TO.N,Net-(J10-Pin_1)*%
X160020000Y-123825000D03*
%TD*%
%TO.P,J8,1,Pin_1*%
%TO.N,Gnd*%
X149860000Y-153035000D03*
%TD*%
%TO.P,J6,1,Pin_1*%
%TO.N,Net-(J10-Pin_1)*%
X149860000Y-116205000D03*
%TD*%
%TO.P,J3,1,Pin_1*%
%TO.N,Net-(J3-Pin_1)*%
X139700000Y-123825000D03*
%TD*%
%TO.P,J4,1,Pin_1*%
%TO.N,Net-(J4-Pin_1)*%
X139700000Y-142875000D03*
%TD*%
D15*
%TO.P,R2,1*%
%TO.N,Net-(J1-Pin_1)*%
X160020000Y-89535000D03*
%TO.P,R2,2*%
%TO.N,Net-(J15-Pin_1)*%
X160020000Y-99695000D03*
%TD*%
D13*
%TO.P,J9,1,Pin_1*%
%TO.N,Gnd*%
X160020000Y-153035000D03*
%TD*%
D11*
%TO.P,Q4,1,C*%
%TO.N,Net-(J4-Pin_1)*%
X139700000Y-135255000D03*
D12*
%TO.P,Q4,2,B*%
X139700000Y-132715000D03*
%TO.P,Q4,3,E*%
%TO.N,Net-(J3-Pin_1)*%
X139700000Y-130175000D03*
%TD*%
D13*
%TO.P,J7,1,Pin_1*%
%TO.N,Net-(J4-Pin_1)*%
X149860000Y-132715000D03*
%TD*%
%TO.P,J1,1,Pin_1*%
%TO.N,Net-(J1-Pin_1)*%
X139700000Y-75565000D03*
D14*
%TO.P,J1,2,Pin_2*%
%TO.N,Gnd*%
X137160000Y-75565000D03*
%TD*%
D13*
%TO.P,J2,1,Pin_1*%
%TO.N,Net-(J1-Pin_1)*%
X139700000Y-83185000D03*
D14*
%TO.P,J2,2,Pin_2*%
%TO.N,Gnd*%
X137160000Y-83185000D03*
%TD*%
D13*
%TO.P,J12,1,Pin_1*%
%TO.N,Net-(J1-Pin_1)*%
X172720000Y-153035000D03*
D14*
%TO.P,J12,2,Pin_2*%
%TO.N,Vout*%
X170180000Y-153035000D03*
%TO.P,J12,3,Pin_3*%
%TO.N,Gnd*%
X167640000Y-153035000D03*
%TD*%
D13*
%TO.P,J13,1,Pin_1*%
%TO.N,Net-(J1-Pin_1)*%
X172720000Y-142900000D03*
D14*
%TO.P,J13,2,Pin_2*%
%TO.N,Gnd*%
X172720000Y-145440000D03*
%TD*%
D17*
%TO.N,Gnd*%
X154940000Y-118745000D03*
X154940000Y-86995000D03*
X167640000Y-73025000D03*
X182880000Y-135255000D03*
X167640000Y-109855000D03*
X182880000Y-109855000D03*
X154940000Y-127635000D03*
X182880000Y-146685000D03*
X154940000Y-98425000D03*
X129540000Y-86995000D03*
X167640000Y-135255000D03*
X167640000Y-86995000D03*
X144780000Y-98425000D03*
X144780000Y-155575000D03*
X152400000Y-146685000D03*
X154940000Y-135255000D03*
X182880000Y-86995000D03*
X167640000Y-98425000D03*
X144780000Y-135255000D03*
X144780000Y-86995000D03*
X144780000Y-127635000D03*
X144780000Y-118745000D03*
X144780000Y-146685000D03*
X182880000Y-122555000D03*
X129540000Y-122555000D03*
X154940000Y-109855000D03*
X129540000Y-146685000D03*
X129540000Y-109855000D03*
X167640000Y-122555000D03*
X182880000Y-98425000D03*
X129540000Y-98425000D03*
X144780000Y-109855000D03*
X154940000Y-155575000D03*
X154940000Y-73025000D03*
X129540000Y-135255000D03*
%TD*%
D18*
%TO.N,Gnd*%
X177800000Y-141537081D02*
X177800000Y-84455000D01*
X137160000Y-74362919D02*
X137160000Y-75565000D01*
X171530000Y-78185000D02*
X149860000Y-78185000D01*
X160100000Y-144875000D02*
X160100000Y-152955000D01*
X149860000Y-78185000D02*
X144700000Y-73025000D01*
X175260000Y-155575000D02*
X175260000Y-146752919D01*
X177800000Y-84455000D02*
X171530000Y-78185000D01*
X144700000Y-73025000D02*
X138497919Y-73025000D01*
X138497919Y-73025000D02*
X137160000Y-74362919D01*
X172720000Y-145415000D02*
X173922081Y-145415000D01*
X139700000Y-150495000D02*
X139700000Y-153035000D01*
X167640000Y-155575000D02*
X175260000Y-155575000D01*
X160020000Y-153035000D02*
X149860000Y-153035000D01*
X173922081Y-145415000D02*
X177800000Y-141537081D01*
X149860000Y-153035000D02*
X139700000Y-153035000D01*
X175260000Y-146752919D02*
X173922081Y-145415000D01*
X167640000Y-153035000D02*
X160020000Y-153035000D01*
X137160000Y-153035000D02*
X134620000Y-150495000D01*
X167640000Y-153035000D02*
X167640000Y-155575000D01*
X137160000Y-75565000D02*
X137160000Y-83185000D01*
X139700000Y-153035000D02*
X137160000Y-153035000D01*
X134620000Y-150495000D02*
X134620000Y-85725000D01*
X134620000Y-85725000D02*
X137160000Y-83185000D01*
%TO.N,Net-(J4-Pin_1)*%
X149860000Y-138467459D02*
X145452459Y-142875000D01*
X139700000Y-135255000D02*
X139700000Y-142875000D01*
X160020000Y-132715000D02*
X149860000Y-132715000D01*
X139700000Y-147955000D02*
X139700000Y-142875000D01*
X149860000Y-132715000D02*
X149860000Y-138467459D01*
X139700000Y-132715000D02*
X149860000Y-132715000D01*
X145452459Y-142875000D02*
X139700000Y-142875000D01*
%TO.N,Net-(J3-Pin_1)*%
X139700000Y-130175000D02*
X139700000Y-123825000D01*
X139700000Y-118745000D02*
X139700000Y-123825000D01*
%TO.N,Net-(J10-Pin_1)*%
X139700000Y-116205000D02*
X149860000Y-116205000D01*
X160020000Y-130175000D02*
X160020000Y-123825000D01*
X154940000Y-123825000D02*
X160020000Y-123825000D01*
X160020000Y-118745000D02*
X160020000Y-123825000D01*
X160020000Y-116205000D02*
X149860000Y-116205000D01*
X149860000Y-116205000D02*
X149860000Y-118745000D01*
X149860000Y-118745000D02*
X154940000Y-123825000D01*
%TO.N,Vout*%
X160100000Y-142335000D02*
X162020000Y-142335000D01*
X160020000Y-135255000D02*
X160020000Y-142255000D01*
X170180000Y-150495000D02*
X170180000Y-153035000D01*
X162020000Y-142335000D02*
X170180000Y-150495000D01*
%TO.N,Net-(J1-Pin_1)*%
X139700000Y-75565000D02*
X139700000Y-83185000D01*
X140160000Y-83185000D02*
X160020000Y-83185000D01*
X170180000Y-146754000D02*
X172720000Y-149294000D01*
X139700000Y-89535000D02*
X139700000Y-83185000D01*
X170180000Y-144145000D02*
X170180000Y-146754000D01*
X170180000Y-83185000D02*
X160020000Y-83185000D01*
X171450000Y-142875000D02*
X170180000Y-144145000D01*
X172720000Y-142875000D02*
X172720000Y-85725000D01*
X172720000Y-85725000D02*
X170180000Y-83185000D01*
X160020000Y-89535000D02*
X160020000Y-83185000D01*
X172720000Y-149294000D02*
X172720000Y-153035000D01*
X172720000Y-142875000D02*
X171450000Y-142875000D01*
%TO.N,Net-(J14-Pin_1)*%
X139700000Y-113665000D02*
X139700000Y-107315000D01*
X139700000Y-107315000D02*
X139700000Y-99695000D01*
%TO.N,Net-(J15-Pin_1)*%
X160020000Y-107315000D02*
X160020000Y-99695000D01*
X160020000Y-113665000D02*
X160020000Y-107315000D01*
%TD*%
%TA.AperFunction,Conductor*%
%TO.N,Gnd*%
G36*
X171616348Y-144195219D02*
G01*
X171629950Y-144195444D01*
X171636560Y-144197112D01*
X171762517Y-144244091D01*
X171822127Y-144250500D01*
X171848099Y-144250499D01*
X171863034Y-144254269D01*
X171880389Y-144264503D01*
X171899723Y-144270179D01*
X171920372Y-144286818D01*
X172590591Y-144957037D01*
X172527007Y-144974075D01*
X172412993Y-145039901D01*
X172319901Y-145132993D01*
X172254075Y-145247007D01*
X172237037Y-145310591D01*
X171604728Y-144678282D01*
X171604727Y-144678282D01*
X171565380Y-144732439D01*
X171468904Y-144921782D01*
X171422431Y-145064814D01*
X171382994Y-145122489D01*
X171318635Y-145149688D01*
X171249789Y-145137773D01*
X171198313Y-145090529D01*
X171180500Y-145026496D01*
X171180500Y-144610781D01*
X171200185Y-144543742D01*
X171216815Y-144523104D01*
X171511926Y-144227992D01*
X171521670Y-144222672D01*
X171528614Y-144214008D01*
X171551792Y-144206223D01*
X171573249Y-144194508D01*
X171586050Y-144194719D01*
X171594848Y-144191765D01*
X171616348Y-144195219D01*
G37*
%TD.AperFunction*%
%TA.AperFunction,Conductor*%
G36*
X248863039Y-69869685D02*
G01*
X248908794Y-69922489D01*
X248920000Y-69974000D01*
X248920000Y-157356000D01*
X248900315Y-157423039D01*
X248847511Y-157468794D01*
X248796000Y-157480000D01*
X77594000Y-157480000D01*
X77526961Y-157460315D01*
X77481206Y-157407511D01*
X77470000Y-157356000D01*
X77470000Y-153515946D01*
X78929500Y-153515946D01*
X78929500Y-153824053D01*
X78929501Y-153824069D01*
X78969717Y-154129542D01*
X79049464Y-154427162D01*
X79167376Y-154711826D01*
X79167381Y-154711837D01*
X79260014Y-154872280D01*
X79321438Y-154978670D01*
X79321440Y-154978673D01*
X79321441Y-154978674D01*
X79509007Y-155223115D01*
X79509013Y-155223122D01*
X79726877Y-155440986D01*
X79726883Y-155440991D01*
X79971330Y-155628562D01*
X80142830Y-155727578D01*
X80238162Y-155782618D01*
X80238167Y-155782620D01*
X80238170Y-155782622D01*
X80522836Y-155900535D01*
X80820456Y-155980282D01*
X81125940Y-156020500D01*
X81125947Y-156020500D01*
X81434053Y-156020500D01*
X81434060Y-156020500D01*
X81739544Y-155980282D01*
X82037164Y-155900535D01*
X82321830Y-155782622D01*
X82588670Y-155628562D01*
X82833117Y-155440991D01*
X83050991Y-155223117D01*
X83238562Y-154978670D01*
X83392622Y-154711830D01*
X83510535Y-154427164D01*
X83590282Y-154129544D01*
X83630500Y-153824060D01*
X83630500Y-153515946D01*
X127189500Y-153515946D01*
X127189500Y-153824053D01*
X127189501Y-153824069D01*
X127229717Y-154129542D01*
X127309464Y-154427162D01*
X127427376Y-154711826D01*
X127427381Y-154711837D01*
X127520014Y-154872280D01*
X127581438Y-154978670D01*
X127581440Y-154978673D01*
X127581441Y-154978674D01*
X127769007Y-155223115D01*
X127769013Y-155223122D01*
X127986877Y-155440986D01*
X127986883Y-155440991D01*
X128231330Y-155628562D01*
X128402830Y-155727578D01*
X128498162Y-155782618D01*
X128498167Y-155782620D01*
X128498170Y-155782622D01*
X128782836Y-155900535D01*
X129080456Y-155980282D01*
X129385940Y-156020500D01*
X129385947Y-156020500D01*
X129694053Y-156020500D01*
X129694060Y-156020500D01*
X129999544Y-155980282D01*
X130297164Y-155900535D01*
X130581830Y-155782622D01*
X130848670Y-155628562D01*
X131093117Y-155440991D01*
X131310991Y-155223117D01*
X131498562Y-154978670D01*
X131652622Y-154711830D01*
X131770535Y-154427164D01*
X131850282Y-154129544D01*
X131890500Y-153824060D01*
X131890500Y-153515940D01*
X131850282Y-153210456D01*
X131770535Y-152912836D01*
X131652622Y-152628170D01*
X131652620Y-152628167D01*
X131652618Y-152628162D01*
X131588200Y-152516588D01*
X131498562Y-152361330D01*
X131339752Y-152154365D01*
X131325312Y-152135546D01*
X131325310Y-152135544D01*
X131317683Y-152125604D01*
X131310991Y-152116883D01*
X131310989Y-152116881D01*
X131310986Y-152116877D01*
X131093122Y-151899013D01*
X131093115Y-151899007D01*
X130848674Y-151711441D01*
X130848673Y-151711440D01*
X130848670Y-151711438D01*
X130737180Y-151647069D01*
X130581837Y-151557381D01*
X130581826Y-151557376D01*
X130297162Y-151439464D01*
X129999542Y-151359717D01*
X129694069Y-151319501D01*
X129694066Y-151319500D01*
X129694060Y-151319500D01*
X129385940Y-151319500D01*
X129385934Y-151319500D01*
X129385930Y-151319501D01*
X129080457Y-151359717D01*
X128782837Y-151439464D01*
X128498173Y-151557376D01*
X128498162Y-151557381D01*
X128231325Y-151711441D01*
X127986884Y-151899007D01*
X127986877Y-151899013D01*
X127769013Y-152116877D01*
X127769007Y-152116884D01*
X127581441Y-152361325D01*
X127427381Y-152628162D01*
X127427376Y-152628173D01*
X127309464Y-152912837D01*
X127229717Y-153210457D01*
X127189501Y-153515930D01*
X127189500Y-153515946D01*
X83630500Y-153515946D01*
X83630500Y-153515940D01*
X83590282Y-153210456D01*
X83510535Y-152912836D01*
X83392622Y-152628170D01*
X83392620Y-152628167D01*
X83392618Y-152628162D01*
X83328200Y-152516588D01*
X83238562Y-152361330D01*
X83079752Y-152154365D01*
X83050992Y-152116884D01*
X83050986Y-152116877D01*
X82833122Y-151899013D01*
X82833115Y-151899007D01*
X82588674Y-151711441D01*
X82588673Y-151711440D01*
X82588670Y-151711438D01*
X82477180Y-151647069D01*
X82321837Y-151557381D01*
X82321826Y-151557376D01*
X82037162Y-151439464D01*
X81739542Y-151359717D01*
X81434069Y-151319501D01*
X81434066Y-151319500D01*
X81434060Y-151319500D01*
X81125940Y-151319500D01*
X81125934Y-151319500D01*
X81125930Y-151319501D01*
X80820457Y-151359717D01*
X80522837Y-151439464D01*
X80238173Y-151557376D01*
X80238162Y-151557381D01*
X79971325Y-151711441D01*
X79726884Y-151899007D01*
X79726877Y-151899013D01*
X79509013Y-152116877D01*
X79509007Y-152116884D01*
X79321441Y-152361325D01*
X79167381Y-152628162D01*
X79167376Y-152628173D01*
X79049464Y-152912837D01*
X78969717Y-153210457D01*
X78929501Y-153515930D01*
X78929500Y-153515946D01*
X77470000Y-153515946D01*
X77470000Y-73505946D01*
X78929500Y-73505946D01*
X78929500Y-73814053D01*
X78929501Y-73814069D01*
X78969717Y-74119542D01*
X79049464Y-74417162D01*
X79167376Y-74701826D01*
X79167381Y-74701837D01*
X79204063Y-74765371D01*
X79321438Y-74968670D01*
X79321440Y-74968673D01*
X79321441Y-74968674D01*
X79509007Y-75213115D01*
X79509013Y-75213122D01*
X79726877Y-75430986D01*
X79726883Y-75430991D01*
X79971330Y-75618562D01*
X80142830Y-75717578D01*
X80238162Y-75772618D01*
X80238167Y-75772620D01*
X80238170Y-75772622D01*
X80522836Y-75890535D01*
X80820456Y-75970282D01*
X81125940Y-76010500D01*
X81125947Y-76010500D01*
X81434053Y-76010500D01*
X81434060Y-76010500D01*
X81739544Y-75970282D01*
X82037164Y-75890535D01*
X82321830Y-75772622D01*
X82588670Y-75618562D01*
X82833117Y-75430991D01*
X83050991Y-75213117D01*
X83238562Y-74968670D01*
X83392622Y-74701830D01*
X83510535Y-74417164D01*
X83590282Y-74119544D01*
X83630500Y-73814060D01*
X83630500Y-73505946D01*
X127189500Y-73505946D01*
X127189500Y-73814053D01*
X127189501Y-73814069D01*
X127229717Y-74119542D01*
X127309464Y-74417162D01*
X127427376Y-74701826D01*
X127427381Y-74701837D01*
X127464063Y-74765371D01*
X127581438Y-74968670D01*
X127581440Y-74968673D01*
X127581441Y-74968674D01*
X127769007Y-75213115D01*
X127769013Y-75213122D01*
X127986877Y-75430986D01*
X127986883Y-75430991D01*
X128231330Y-75618562D01*
X128402830Y-75717578D01*
X128498162Y-75772618D01*
X128498167Y-75772620D01*
X128498170Y-75772622D01*
X128782836Y-75890535D01*
X129080456Y-75970282D01*
X129385940Y-76010500D01*
X129385947Y-76010500D01*
X129694053Y-76010500D01*
X129694060Y-76010500D01*
X129999544Y-75970282D01*
X130297164Y-75890535D01*
X130581830Y-75772622D01*
X130848670Y-75618562D01*
X131056937Y-75458753D01*
X135810000Y-75458753D01*
X135810000Y-75671246D01*
X135843242Y-75881127D01*
X135843242Y-75881130D01*
X135908904Y-76083217D01*
X136005375Y-76272550D01*
X136044728Y-76326716D01*
X136677037Y-75694408D01*
X136694075Y-75757993D01*
X136759901Y-75872007D01*
X136852993Y-75965099D01*
X136967007Y-76030925D01*
X137030590Y-76047962D01*
X136398282Y-76680269D01*
X136398282Y-76680270D01*
X136452449Y-76719624D01*
X136641782Y-76816095D01*
X136843870Y-76881757D01*
X137053754Y-76915000D01*
X137266246Y-76915000D01*
X137476127Y-76881757D01*
X137476130Y-76881757D01*
X137678217Y-76816095D01*
X137867554Y-76719622D01*
X137921716Y-76680270D01*
X137921717Y-76680270D01*
X137289408Y-76047962D01*
X137352993Y-76030925D01*
X137467007Y-75965099D01*
X137560099Y-75872007D01*
X137625925Y-75757993D01*
X137642962Y-75694408D01*
X138313181Y-76364628D01*
X138346666Y-76425951D01*
X138349500Y-76452300D01*
X138349500Y-76462865D01*
X138349501Y-76462876D01*
X138355908Y-76522483D01*
X138406202Y-76657328D01*
X138406206Y-76657335D01*
X138492452Y-76772544D01*
X138492455Y-76772547D01*
X138607665Y-76858794D01*
X138607667Y-76858794D01*
X138607669Y-76858796D01*
X138618830Y-76862958D01*
X138674764Y-76904826D01*
X138699184Y-76970289D01*
X138699500Y-76979141D01*
X138699500Y-81770858D01*
X138679815Y-81837897D01*
X138627011Y-81883652D01*
X138618847Y-81887034D01*
X138607669Y-81891204D01*
X138607664Y-81891206D01*
X138492455Y-81977452D01*
X138492452Y-81977455D01*
X138406206Y-82092664D01*
X138406202Y-82092671D01*
X138355908Y-82227517D01*
X138349501Y-82287116D01*
X138349500Y-82287135D01*
X138349500Y-82297690D01*
X138329815Y-82364729D01*
X138313181Y-82385371D01*
X137642962Y-83055590D01*
X137625925Y-82992007D01*
X137560099Y-82877993D01*
X137467007Y-82784901D01*
X137352993Y-82719075D01*
X137289409Y-82702037D01*
X137921716Y-82069728D01*
X137867550Y-82030375D01*
X137678217Y-81933904D01*
X137476129Y-81868242D01*
X137266246Y-81835000D01*
X137053754Y-81835000D01*
X136843872Y-81868242D01*
X136843869Y-81868242D01*
X136641782Y-81933904D01*
X136452439Y-82030380D01*
X136398282Y-82069727D01*
X136398282Y-82069728D01*
X137030591Y-82702037D01*
X136967007Y-82719075D01*
X136852993Y-82784901D01*
X136759901Y-82877993D01*
X136694075Y-82992007D01*
X136677037Y-83055591D01*
X136044728Y-82423282D01*
X136044727Y-82423282D01*
X136005380Y-82477439D01*
X135908904Y-82666782D01*
X135843242Y-82868869D01*
X135843242Y-82868872D01*
X135810000Y-83078753D01*
X135810000Y-83291246D01*
X135843242Y-83501127D01*
X135843242Y-83501130D01*
X135908904Y-83703217D01*
X136005375Y-83892550D01*
X136044728Y-83946716D01*
X136677037Y-83314408D01*
X136694075Y-83377993D01*
X136759901Y-83492007D01*
X136852993Y-83585099D01*
X136967007Y-83650925D01*
X137030590Y-83667962D01*
X136398282Y-84300269D01*
X136398282Y-84300270D01*
X136452449Y-84339624D01*
X136641782Y-84436095D01*
X136843870Y-84501757D01*
X137053754Y-84535000D01*
X137266246Y-84535000D01*
X137476127Y-84501757D01*
X137476130Y-84501757D01*
X137678217Y-84436095D01*
X137867554Y-84339622D01*
X137921716Y-84300270D01*
X137921717Y-84300270D01*
X137289408Y-83667962D01*
X137352993Y-83650925D01*
X137467007Y-83585099D01*
X137560099Y-83492007D01*
X137625925Y-83377993D01*
X137642962Y-83314408D01*
X138313181Y-83984628D01*
X138346666Y-84045951D01*
X138349500Y-84072300D01*
X138349500Y-84082865D01*
X138349501Y-84082876D01*
X138355908Y-84142483D01*
X138406202Y-84277328D01*
X138406206Y-84277335D01*
X138492452Y-84392544D01*
X138492455Y-84392547D01*
X138607665Y-84478794D01*
X138607667Y-84478794D01*
X138607669Y-84478796D01*
X138618830Y-84482958D01*
X138674764Y-84524826D01*
X138699184Y-84590289D01*
X138699500Y-84599141D01*
X138699500Y-88659237D01*
X138679815Y-88726276D01*
X138675818Y-88732122D01*
X138587715Y-88853386D01*
X138494781Y-89035776D01*
X138431522Y-89230465D01*
X138399500Y-89432648D01*
X138399500Y-89637351D01*
X138431522Y-89839534D01*
X138494781Y-90034223D01*
X138587715Y-90216613D01*
X138708028Y-90382213D01*
X138852786Y-90526971D01*
X139007749Y-90639556D01*
X139018390Y-90647287D01*
X139134607Y-90706503D01*
X139200776Y-90740218D01*
X139200778Y-90740218D01*
X139200781Y-90740220D01*
X139305137Y-90774127D01*
X139395465Y-90803477D01*
X139496557Y-90819488D01*
X139597648Y-90835500D01*
X139597649Y-90835500D01*
X139802351Y-90835500D01*
X139802352Y-90835500D01*
X140004534Y-90803477D01*
X140199219Y-90740220D01*
X140381610Y-90647287D01*
X140474590Y-90579732D01*
X140547213Y-90526971D01*
X140547215Y-90526968D01*
X140547219Y-90526966D01*
X140691966Y-90382219D01*
X140691968Y-90382215D01*
X140691971Y-90382213D01*
X140744732Y-90309590D01*
X140812287Y-90216610D01*
X140905220Y-90034219D01*
X140968477Y-89839534D01*
X141000500Y-89637352D01*
X141000500Y-89432648D01*
X140968477Y-89230466D01*
X140905220Y-89035781D01*
X140905218Y-89035778D01*
X140905218Y-89035776D01*
X140871503Y-88969607D01*
X140812287Y-88853390D01*
X140799654Y-88836003D01*
X140724182Y-88732122D01*
X140700702Y-88666316D01*
X140700500Y-88659237D01*
X140700500Y-84599141D01*
X140720185Y-84532102D01*
X140772989Y-84486347D01*
X140781149Y-84482966D01*
X140792331Y-84478796D01*
X140907546Y-84392546D01*
X140993796Y-84277331D01*
X140997960Y-84266165D01*
X141039829Y-84210234D01*
X141105293Y-84185816D01*
X141114141Y-84185500D01*
X148984238Y-84185500D01*
X149051277Y-84205185D01*
X149057119Y-84209179D01*
X149178390Y-84297287D01*
X149261481Y-84339624D01*
X149360776Y-84390218D01*
X149360778Y-84390218D01*
X149360781Y-84390220D01*
X149465137Y-84424127D01*
X149555465Y-84453477D01*
X149656557Y-84469488D01*
X149757648Y-84485500D01*
X149757649Y-84485500D01*
X149962351Y-84485500D01*
X149962352Y-84485500D01*
X150164534Y-84453477D01*
X150359219Y-84390220D01*
X150541610Y-84297287D01*
X150662877Y-84209181D01*
X150728683Y-84185702D01*
X150735762Y-84185500D01*
X158605859Y-84185500D01*
X158672898Y-84205185D01*
X158718653Y-84257989D01*
X158722030Y-84266140D01*
X158726204Y-84277331D01*
X158726205Y-84277332D01*
X158726206Y-84277335D01*
X158812452Y-84392544D01*
X158812455Y-84392547D01*
X158927665Y-84478794D01*
X158927667Y-84478794D01*
X158927669Y-84478796D01*
X158938830Y-84482958D01*
X158994764Y-84524826D01*
X159019184Y-84590289D01*
X159019500Y-84599141D01*
X159019500Y-88659237D01*
X158999815Y-88726276D01*
X158995818Y-88732122D01*
X158907715Y-88853386D01*
X158814781Y-89035776D01*
X158751522Y-89230465D01*
X158719500Y-89432648D01*
X158719500Y-89637351D01*
X158751522Y-89839534D01*
X158814781Y-90034223D01*
X158907715Y-90216613D01*
X159028028Y-90382213D01*
X159172786Y-90526971D01*
X159327749Y-90639556D01*
X159338390Y-90647287D01*
X159454607Y-90706503D01*
X159520776Y-90740218D01*
X159520778Y-90740218D01*
X159520781Y-90740220D01*
X159625137Y-90774127D01*
X159715465Y-90803477D01*
X159816557Y-90819488D01*
X159917648Y-90835500D01*
X159917649Y-90835500D01*
X160122351Y-90835500D01*
X160122352Y-90835500D01*
X160324534Y-90803477D01*
X160519219Y-90740220D01*
X160701610Y-90647287D01*
X160794590Y-90579732D01*
X160867213Y-90526971D01*
X160867215Y-90526968D01*
X160867219Y-90526966D01*
X161011966Y-90382219D01*
X161011968Y-90382215D01*
X161011971Y-90382213D01*
X161064732Y-90309590D01*
X161132287Y-90216610D01*
X161225220Y-90034219D01*
X161288477Y-89839534D01*
X161320500Y-89637352D01*
X161320500Y-89432648D01*
X161288477Y-89230466D01*
X161225220Y-89035781D01*
X161225218Y-89035778D01*
X161225218Y-89035776D01*
X161191503Y-88969607D01*
X161132287Y-88853390D01*
X161119654Y-88836003D01*
X161044182Y-88732122D01*
X161020702Y-88666316D01*
X161020500Y-88659237D01*
X161020500Y-84599141D01*
X161040185Y-84532102D01*
X161092989Y-84486347D01*
X161101149Y-84482966D01*
X161112331Y-84478796D01*
X161227546Y-84392546D01*
X161313796Y-84277331D01*
X161317960Y-84266165D01*
X161359829Y-84210234D01*
X161425293Y-84185816D01*
X161434141Y-84185500D01*
X169714218Y-84185500D01*
X169781257Y-84205185D01*
X169801899Y-84221819D01*
X171683181Y-86103101D01*
X171716666Y-86164424D01*
X171719500Y-86190782D01*
X171719500Y-141485858D01*
X171699815Y-141552897D01*
X171647011Y-141598652D01*
X171638847Y-141602034D01*
X171627669Y-141606204D01*
X171627664Y-141606206D01*
X171512455Y-141692452D01*
X171512452Y-141692455D01*
X171426202Y-141807669D01*
X171422154Y-141815084D01*
X171421342Y-141815895D01*
X171421078Y-141817015D01*
X171396679Y-141840557D01*
X171372748Y-141864489D01*
X171371355Y-141864994D01*
X171370799Y-141865531D01*
X171337515Y-141877273D01*
X171275582Y-141889592D01*
X171254812Y-141893724D01*
X171158167Y-141912947D01*
X171158161Y-141912949D01*
X171104834Y-141935037D01*
X171104834Y-141935038D01*
X171059315Y-141953892D01*
X170976089Y-141988366D01*
X170976079Y-141988371D01*
X170812219Y-142097859D01*
X170742540Y-142167538D01*
X170672861Y-142237218D01*
X170672858Y-142237221D01*
X169542221Y-143367858D01*
X169542218Y-143367861D01*
X169493910Y-143416169D01*
X169402859Y-143507219D01*
X169293371Y-143671080D01*
X169293364Y-143671093D01*
X169255863Y-143761632D01*
X169224625Y-143837048D01*
X169224624Y-143837052D01*
X169217948Y-143853167D01*
X169217947Y-143853171D01*
X169179500Y-144046454D01*
X169179500Y-146852544D01*
X169213615Y-147024053D01*
X169213616Y-147024053D01*
X169217950Y-147045838D01*
X169293364Y-147227907D01*
X169293371Y-147227920D01*
X169402859Y-147391780D01*
X169402860Y-147391781D01*
X169402861Y-147391782D01*
X169542218Y-147531139D01*
X169542219Y-147531139D01*
X169549286Y-147538206D01*
X169549285Y-147538206D01*
X169549289Y-147538209D01*
X171683181Y-149672101D01*
X171716666Y-149733424D01*
X171719500Y-149759782D01*
X171719500Y-151620858D01*
X171699815Y-151687897D01*
X171647011Y-151733652D01*
X171638847Y-151737034D01*
X171627669Y-151741204D01*
X171627664Y-151741206D01*
X171512455Y-151827452D01*
X171512452Y-151827455D01*
X171426206Y-151942664D01*
X171426202Y-151942671D01*
X171420682Y-151957473D01*
X171378811Y-152013407D01*
X171313346Y-152037824D01*
X171245073Y-152022972D01*
X171195668Y-151973567D01*
X171180500Y-151914140D01*
X171180500Y-150396456D01*
X171152571Y-150256053D01*
X171152571Y-150256048D01*
X171142053Y-150203172D01*
X171142052Y-150203165D01*
X171066632Y-150021086D01*
X171066631Y-150021085D01*
X171066628Y-150021079D01*
X170957140Y-149857219D01*
X170957137Y-149857215D01*
X162804209Y-141704289D01*
X162804206Y-141704285D01*
X162804206Y-141704286D01*
X162797139Y-141697219D01*
X162797139Y-141697218D01*
X162657782Y-141557861D01*
X162657781Y-141557860D01*
X162657780Y-141557859D01*
X162493920Y-141448371D01*
X162493911Y-141448366D01*
X162421315Y-141418296D01*
X162365165Y-141395038D01*
X162311836Y-141372949D01*
X162311832Y-141372948D01*
X162311828Y-141372946D01*
X162215188Y-141353724D01*
X162118544Y-141334500D01*
X162118541Y-141334500D01*
X161514141Y-141334500D01*
X161447102Y-141314815D01*
X161401347Y-141262011D01*
X161397969Y-141253859D01*
X161393796Y-141242669D01*
X161393793Y-141242665D01*
X161393793Y-141242664D01*
X161307547Y-141127455D01*
X161307544Y-141127452D01*
X161192335Y-141041206D01*
X161192328Y-141041202D01*
X161101167Y-141007202D01*
X161045233Y-140965331D01*
X161020816Y-140899867D01*
X161020500Y-140891020D01*
X161020500Y-136504749D01*
X161040185Y-136437710D01*
X161070190Y-136405482D01*
X161127546Y-136362546D01*
X161213796Y-136247331D01*
X161264091Y-136112483D01*
X161270500Y-136052873D01*
X161270499Y-134457128D01*
X161264091Y-134397517D01*
X161213796Y-134262669D01*
X161213795Y-134262668D01*
X161213793Y-134262664D01*
X161127547Y-134147455D01*
X161127544Y-134147452D01*
X161012335Y-134061206D01*
X161012328Y-134061202D01*
X160877482Y-134010908D01*
X160877483Y-134010908D01*
X160817883Y-134004501D01*
X160817881Y-134004500D01*
X160817873Y-134004500D01*
X160817865Y-134004500D01*
X160754267Y-134004500D01*
X160687228Y-133984815D01*
X160641473Y-133932011D01*
X160631529Y-133862853D01*
X160660554Y-133799297D01*
X160681381Y-133780182D01*
X160834646Y-133668828D01*
X160973828Y-133529646D01*
X161089524Y-133370405D01*
X161178884Y-133195025D01*
X161239709Y-133007826D01*
X161270500Y-132813422D01*
X161270500Y-132616577D01*
X161239709Y-132422173D01*
X161178882Y-132234970D01*
X161089523Y-132059594D01*
X160973828Y-131900354D01*
X160834646Y-131761172D01*
X160736365Y-131689766D01*
X160675403Y-131645474D01*
X160498787Y-131555485D01*
X160447990Y-131507511D01*
X160431195Y-131439690D01*
X160453732Y-131373555D01*
X160498787Y-131334515D01*
X160675403Y-131244525D01*
X160675402Y-131244525D01*
X160675405Y-131244524D01*
X160834646Y-131128828D01*
X160973828Y-130989646D01*
X161089524Y-130830405D01*
X161178884Y-130655025D01*
X161239709Y-130467826D01*
X161270500Y-130273422D01*
X161270500Y-130076577D01*
X161239709Y-129882173D01*
X161178882Y-129694970D01*
X161146464Y-129631347D01*
X161089524Y-129519595D01*
X161085547Y-129514121D01*
X161044182Y-129457186D01*
X161020702Y-129391380D01*
X161020500Y-129384301D01*
X161020500Y-125239141D01*
X161040185Y-125172102D01*
X161092989Y-125126347D01*
X161101149Y-125122966D01*
X161112331Y-125118796D01*
X161227546Y-125032546D01*
X161313796Y-124917331D01*
X161364091Y-124782483D01*
X161370500Y-124722873D01*
X161370499Y-122927128D01*
X161364091Y-122867517D01*
X161313796Y-122732669D01*
X161313795Y-122732668D01*
X161313793Y-122732664D01*
X161227547Y-122617455D01*
X161227544Y-122617452D01*
X161112335Y-122531206D01*
X161112332Y-122531205D01*
X161112331Y-122531204D01*
X161101161Y-122527038D01*
X161045231Y-122485166D01*
X161020816Y-122419701D01*
X161020500Y-122410858D01*
X161020500Y-119994749D01*
X161040185Y-119927710D01*
X161070190Y-119895482D01*
X161127546Y-119852546D01*
X161213796Y-119737331D01*
X161264091Y-119602483D01*
X161270500Y-119542873D01*
X161270499Y-117947128D01*
X161264091Y-117887517D01*
X161213796Y-117752669D01*
X161213795Y-117752668D01*
X161213793Y-117752664D01*
X161127547Y-117637455D01*
X161127544Y-117637452D01*
X161012335Y-117551206D01*
X161012328Y-117551202D01*
X160877482Y-117500908D01*
X160877483Y-117500908D01*
X160817883Y-117494501D01*
X160817881Y-117494500D01*
X160817873Y-117494500D01*
X160817865Y-117494500D01*
X160754267Y-117494500D01*
X160687228Y-117474815D01*
X160641473Y-117422011D01*
X160631529Y-117352853D01*
X160660554Y-117289297D01*
X160681381Y-117270182D01*
X160834646Y-117158828D01*
X160973828Y-117019646D01*
X161089524Y-116860405D01*
X161178884Y-116685025D01*
X161239709Y-116497826D01*
X161270500Y-116303422D01*
X161270500Y-116106577D01*
X161239709Y-115912173D01*
X161178882Y-115724970D01*
X161089523Y-115549594D01*
X160973828Y-115390354D01*
X160834646Y-115251172D01*
X160736365Y-115179766D01*
X160675403Y-115135474D01*
X160498787Y-115045485D01*
X160447990Y-114997511D01*
X160431195Y-114929690D01*
X160453732Y-114863555D01*
X160498787Y-114824515D01*
X160675403Y-114734525D01*
X160675402Y-114734525D01*
X160675405Y-114734524D01*
X160834646Y-114618828D01*
X160973828Y-114479646D01*
X161089524Y-114320405D01*
X161178884Y-114145025D01*
X161239709Y-113957826D01*
X161270500Y-113763422D01*
X161270500Y-113566577D01*
X161239709Y-113372173D01*
X161178882Y-113184970D01*
X161146464Y-113121347D01*
X161089524Y-113009595D01*
X161085547Y-113004121D01*
X161044182Y-112947186D01*
X161020702Y-112881380D01*
X161020500Y-112874301D01*
X161020500Y-108729141D01*
X161040185Y-108662102D01*
X161092989Y-108616347D01*
X161101149Y-108612966D01*
X161112331Y-108608796D01*
X161227546Y-108522546D01*
X161313796Y-108407331D01*
X161364091Y-108272483D01*
X161370500Y-108212873D01*
X161370499Y-106417128D01*
X161364091Y-106357517D01*
X161313796Y-106222669D01*
X161313795Y-106222668D01*
X161313793Y-106222664D01*
X161227547Y-106107455D01*
X161227544Y-106107452D01*
X161112335Y-106021206D01*
X161112332Y-106021205D01*
X161112331Y-106021204D01*
X161101161Y-106017038D01*
X161045231Y-105975166D01*
X161020816Y-105909701D01*
X161020500Y-105900858D01*
X161020500Y-100570761D01*
X161040185Y-100503722D01*
X161044165Y-100497899D01*
X161132287Y-100376610D01*
X161225220Y-100194219D01*
X161288477Y-99999534D01*
X161320500Y-99797352D01*
X161320500Y-99592648D01*
X161288477Y-99390466D01*
X161225220Y-99195781D01*
X161225218Y-99195778D01*
X161225218Y-99195776D01*
X161191503Y-99129607D01*
X161132287Y-99013390D01*
X161124556Y-99002749D01*
X161011971Y-98847786D01*
X160867213Y-98703028D01*
X160701613Y-98582715D01*
X160701612Y-98582714D01*
X160701610Y-98582713D01*
X160644653Y-98553691D01*
X160519223Y-98489781D01*
X160324534Y-98426522D01*
X160149995Y-98398878D01*
X160122352Y-98394500D01*
X159917648Y-98394500D01*
X159893329Y-98398351D01*
X159715465Y-98426522D01*
X159520776Y-98489781D01*
X159338386Y-98582715D01*
X159172786Y-98703028D01*
X159028028Y-98847786D01*
X158907715Y-99013386D01*
X158814781Y-99195776D01*
X158751522Y-99390465D01*
X158719500Y-99592648D01*
X158719500Y-99797351D01*
X158751522Y-99999534D01*
X158814781Y-100194223D01*
X158907713Y-100376610D01*
X158995819Y-100497877D01*
X159019298Y-100563681D01*
X159019500Y-100570761D01*
X159019500Y-105900858D01*
X158999815Y-105967897D01*
X158947011Y-106013652D01*
X158938847Y-106017034D01*
X158927669Y-106021204D01*
X158927664Y-106021206D01*
X158812455Y-106107452D01*
X158812452Y-106107455D01*
X158726206Y-106222664D01*
X158726202Y-106222671D01*
X158675908Y-106357517D01*
X158669501Y-106417116D01*
X158669501Y-106417123D01*
X158669500Y-106417135D01*
X158669500Y-108212870D01*
X158669501Y-108212876D01*
X158675908Y-108272483D01*
X158726202Y-108407328D01*
X158726206Y-108407335D01*
X158812452Y-108522544D01*
X158812455Y-108522547D01*
X158927665Y-108608794D01*
X158927667Y-108608794D01*
X158927669Y-108608796D01*
X158938830Y-108612958D01*
X158994764Y-108654826D01*
X159019184Y-108720289D01*
X159019500Y-108729141D01*
X159019500Y-112874301D01*
X158999815Y-112941340D01*
X158995818Y-112947186D01*
X158950478Y-113009591D01*
X158861117Y-113184970D01*
X158800290Y-113372173D01*
X158769500Y-113566577D01*
X158769500Y-113763422D01*
X158800290Y-113957826D01*
X158861117Y-114145029D01*
X158950476Y-114320405D01*
X159066172Y-114479646D01*
X159205354Y-114618828D01*
X159364595Y-114734524D01*
X159487992Y-114797397D01*
X159541213Y-114824515D01*
X159592009Y-114872489D01*
X159608804Y-114940310D01*
X159586267Y-115006445D01*
X159541213Y-115045485D01*
X159364591Y-115135478D01*
X159302186Y-115180818D01*
X159236380Y-115204298D01*
X159229301Y-115204500D01*
X151274141Y-115204500D01*
X151207102Y-115184815D01*
X151161347Y-115132011D01*
X151157969Y-115123859D01*
X151153796Y-115112669D01*
X151153793Y-115112665D01*
X151153793Y-115112664D01*
X151067547Y-114997455D01*
X151067544Y-114997452D01*
X150952335Y-114911206D01*
X150952328Y-114911202D01*
X150817482Y-114860908D01*
X150817483Y-114860908D01*
X150757883Y-114854501D01*
X150757881Y-114854500D01*
X150757873Y-114854500D01*
X150757864Y-114854500D01*
X148962129Y-114854500D01*
X148962123Y-114854501D01*
X148902516Y-114860908D01*
X148767671Y-114911202D01*
X148767664Y-114911206D01*
X148652455Y-114997452D01*
X148652452Y-114997455D01*
X148566206Y-115112664D01*
X148566204Y-115112668D01*
X148566204Y-115112669D01*
X148562039Y-115123834D01*
X148520171Y-115179766D01*
X148454707Y-115204184D01*
X148445859Y-115204500D01*
X140490699Y-115204500D01*
X140423660Y-115184815D01*
X140417814Y-115180818D01*
X140355406Y-115135476D01*
X140178787Y-115045485D01*
X140127990Y-114997511D01*
X140111195Y-114929690D01*
X140133732Y-114863555D01*
X140178787Y-114824515D01*
X140355403Y-114734525D01*
X140355402Y-114734525D01*
X140355405Y-114734524D01*
X140514646Y-114618828D01*
X140653828Y-114479646D01*
X140769524Y-114320405D01*
X140858884Y-114145025D01*
X140919709Y-113957826D01*
X140950500Y-113763422D01*
X140950500Y-113566577D01*
X140919709Y-113372173D01*
X140858882Y-113184970D01*
X140826464Y-113121347D01*
X140769524Y-113009595D01*
X140765547Y-113004121D01*
X140724182Y-112947186D01*
X140700702Y-112881380D01*
X140700500Y-112874301D01*
X140700500Y-108729141D01*
X140720185Y-108662102D01*
X140772989Y-108616347D01*
X140781149Y-108612966D01*
X140792331Y-108608796D01*
X140907546Y-108522546D01*
X140993796Y-108407331D01*
X141044091Y-108272483D01*
X141050500Y-108212873D01*
X141050499Y-106417128D01*
X141044091Y-106357517D01*
X140993796Y-106222669D01*
X140993795Y-106222668D01*
X140993793Y-106222664D01*
X140907547Y-106107455D01*
X140907544Y-106107452D01*
X140792335Y-106021206D01*
X140792332Y-106021205D01*
X140792331Y-106021204D01*
X140781161Y-106017038D01*
X140725231Y-105975166D01*
X140700816Y-105909701D01*
X140700500Y-105900858D01*
X140700500Y-100570761D01*
X140720185Y-100503722D01*
X140724165Y-100497899D01*
X140812287Y-100376610D01*
X140905220Y-100194219D01*
X140968477Y-99999534D01*
X141000500Y-99797352D01*
X141000500Y-99592648D01*
X140968477Y-99390466D01*
X140905220Y-99195781D01*
X140905218Y-99195778D01*
X140905218Y-99195776D01*
X140871503Y-99129607D01*
X140812287Y-99013390D01*
X140804556Y-99002749D01*
X140691971Y-98847786D01*
X140547213Y-98703028D01*
X140381613Y-98582715D01*
X140381612Y-98582714D01*
X140381610Y-98582713D01*
X140324653Y-98553691D01*
X140199223Y-98489781D01*
X140004534Y-98426522D01*
X139829995Y-98398878D01*
X139802352Y-98394500D01*
X139597648Y-98394500D01*
X139573329Y-98398351D01*
X139395465Y-98426522D01*
X139200776Y-98489781D01*
X139018386Y-98582715D01*
X138852786Y-98703028D01*
X138708028Y-98847786D01*
X138587715Y-99013386D01*
X138494781Y-99195776D01*
X138431522Y-99390465D01*
X138399500Y-99592648D01*
X138399500Y-99797351D01*
X138431522Y-99999534D01*
X138494781Y-100194223D01*
X138587713Y-100376610D01*
X138675819Y-100497877D01*
X138699298Y-100563681D01*
X138699500Y-100570761D01*
X138699500Y-105900858D01*
X138679815Y-105967897D01*
X138627011Y-106013652D01*
X138618847Y-106017034D01*
X138607669Y-106021204D01*
X138607664Y-106021206D01*
X138492455Y-106107452D01*
X138492452Y-106107455D01*
X138406206Y-106222664D01*
X138406202Y-106222671D01*
X138355908Y-106357517D01*
X138349501Y-106417116D01*
X138349501Y-106417123D01*
X138349500Y-106417135D01*
X138349500Y-108212870D01*
X138349501Y-108212876D01*
X138355908Y-108272483D01*
X138406202Y-108407328D01*
X138406206Y-108407335D01*
X138492452Y-108522544D01*
X138492455Y-108522547D01*
X138607665Y-108608794D01*
X138607667Y-108608794D01*
X138607669Y-108608796D01*
X138618830Y-108612958D01*
X138674764Y-108654826D01*
X138699184Y-108720289D01*
X138699500Y-108729141D01*
X138699500Y-112874301D01*
X138679815Y-112941340D01*
X138675818Y-112947186D01*
X138630478Y-113009591D01*
X138541117Y-113184970D01*
X138480290Y-113372173D01*
X138449500Y-113566577D01*
X138449500Y-113763422D01*
X138480290Y-113957826D01*
X138541117Y-114145029D01*
X138630476Y-114320405D01*
X138746172Y-114479646D01*
X138885354Y-114618828D01*
X139044595Y-114734524D01*
X139167992Y-114797397D01*
X139221213Y-114824515D01*
X139272009Y-114872489D01*
X139288804Y-114940310D01*
X139266267Y-115006445D01*
X139221213Y-115045485D01*
X139044594Y-115135476D01*
X138983635Y-115179766D01*
X138885354Y-115251172D01*
X138885352Y-115251174D01*
X138885351Y-115251174D01*
X138746174Y-115390351D01*
X138746174Y-115390352D01*
X138746172Y-115390354D01*
X138696485Y-115458741D01*
X138630476Y-115549594D01*
X138541117Y-115724970D01*
X138480290Y-115912173D01*
X138449500Y-116106577D01*
X138449500Y-116303422D01*
X138480290Y-116497826D01*
X138541117Y-116685029D01*
X138630476Y-116860405D01*
X138746172Y-117019646D01*
X138885354Y-117158828D01*
X139038621Y-117270184D01*
X139081285Y-117325512D01*
X139087264Y-117395125D01*
X139054658Y-117456920D01*
X138993819Y-117491278D01*
X138965736Y-117494500D01*
X138902130Y-117494500D01*
X138902123Y-117494501D01*
X138842516Y-117500908D01*
X138707671Y-117551202D01*
X138707664Y-117551206D01*
X138592455Y-117637452D01*
X138592452Y-117637455D01*
X138506206Y-117752664D01*
X138506202Y-117752671D01*
X138455908Y-117887517D01*
X138449501Y-117947116D01*
X138449501Y-117947123D01*
X138449500Y-117947135D01*
X138449500Y-119542870D01*
X138449501Y-119542876D01*
X138455908Y-119602483D01*
X138506202Y-119737328D01*
X138506203Y-119737329D01*
X138506204Y-119737331D01*
X138592452Y-119852543D01*
X138592455Y-119852547D01*
X138649810Y-119895482D01*
X138691682Y-119951415D01*
X138699500Y-119994749D01*
X138699500Y-122410858D01*
X138679815Y-122477897D01*
X138627011Y-122523652D01*
X138618847Y-122527034D01*
X138607669Y-122531204D01*
X138607664Y-122531206D01*
X138492455Y-122617452D01*
X138492452Y-122617455D01*
X138406206Y-122732664D01*
X138406202Y-122732671D01*
X138355908Y-122867517D01*
X138349501Y-122927116D01*
X138349501Y-122927123D01*
X138349500Y-122927135D01*
X138349500Y-124722870D01*
X138349501Y-124722876D01*
X138355908Y-124782483D01*
X138406202Y-124917328D01*
X138406206Y-124917335D01*
X138492452Y-125032544D01*
X138492455Y-125032547D01*
X138607665Y-125118794D01*
X138607667Y-125118794D01*
X138607669Y-125118796D01*
X138618830Y-125122958D01*
X138674764Y-125164826D01*
X138699184Y-125230289D01*
X138699500Y-125239141D01*
X138699500Y-129384301D01*
X138679815Y-129451340D01*
X138675818Y-129457186D01*
X138630478Y-129519591D01*
X138541117Y-129694970D01*
X138480290Y-129882173D01*
X138449500Y-130076577D01*
X138449500Y-130273422D01*
X138480290Y-130467826D01*
X138541117Y-130655029D01*
X138630476Y-130830405D01*
X138746172Y-130989646D01*
X138885354Y-131128828D01*
X139044595Y-131244524D01*
X139167992Y-131307397D01*
X139221213Y-131334515D01*
X139272009Y-131382489D01*
X139288804Y-131450310D01*
X139266267Y-131516445D01*
X139221213Y-131555485D01*
X139044594Y-131645476D01*
X138983635Y-131689766D01*
X138885354Y-131761172D01*
X138885352Y-131761174D01*
X138885351Y-131761174D01*
X138746174Y-131900351D01*
X138746174Y-131900352D01*
X138746172Y-131900354D01*
X138696485Y-131968741D01*
X138630476Y-132059594D01*
X138541117Y-132234970D01*
X138480290Y-132422173D01*
X138449500Y-132616577D01*
X138449500Y-132813422D01*
X138480290Y-133007826D01*
X138541117Y-133195029D01*
X138630476Y-133370405D01*
X138746172Y-133529646D01*
X138885354Y-133668828D01*
X139038621Y-133780184D01*
X139081285Y-133835512D01*
X139087264Y-133905125D01*
X139054658Y-133966920D01*
X138993819Y-134001278D01*
X138965736Y-134004500D01*
X138902130Y-134004500D01*
X138902123Y-134004501D01*
X138842516Y-134010908D01*
X138707671Y-134061202D01*
X138707664Y-134061206D01*
X138592455Y-134147452D01*
X138592452Y-134147455D01*
X138506206Y-134262664D01*
X138506202Y-134262671D01*
X138455908Y-134397517D01*
X138449501Y-134457116D01*
X138449501Y-134457123D01*
X138449500Y-134457135D01*
X138449500Y-136052870D01*
X138449501Y-136052876D01*
X138455908Y-136112483D01*
X138506202Y-136247328D01*
X138506203Y-136247329D01*
X138506204Y-136247331D01*
X138592452Y-136362543D01*
X138592455Y-136362547D01*
X138649810Y-136405482D01*
X138691682Y-136461415D01*
X138699500Y-136504749D01*
X138699500Y-141460858D01*
X138679815Y-141527897D01*
X138627011Y-141573652D01*
X138618847Y-141577034D01*
X138607669Y-141581204D01*
X138607664Y-141581206D01*
X138492455Y-141667452D01*
X138492452Y-141667455D01*
X138406206Y-141782664D01*
X138406202Y-141782671D01*
X138355908Y-141917517D01*
X138349501Y-141977116D01*
X138349500Y-141977135D01*
X138349500Y-143772870D01*
X138349501Y-143772876D01*
X138355908Y-143832483D01*
X138406202Y-143967328D01*
X138406206Y-143967335D01*
X138492452Y-144082544D01*
X138492455Y-144082547D01*
X138607665Y-144168794D01*
X138607667Y-144168794D01*
X138607669Y-144168796D01*
X138618830Y-144172958D01*
X138674764Y-144214826D01*
X138699184Y-144280289D01*
X138699500Y-144289141D01*
X138699500Y-147215342D01*
X138679815Y-147282381D01*
X138675818Y-147288228D01*
X138656135Y-147315318D01*
X138568916Y-147486493D01*
X138509553Y-147669197D01*
X138479500Y-147858945D01*
X138479500Y-148051054D01*
X138509553Y-148240802D01*
X138568916Y-148423506D01*
X138568918Y-148423509D01*
X138656135Y-148594681D01*
X138769055Y-148750102D01*
X138904898Y-148885945D01*
X139060319Y-148998865D01*
X139231491Y-149086082D01*
X139231495Y-149086084D01*
X139296890Y-149107332D01*
X139354566Y-149146769D01*
X139381765Y-149211127D01*
X139369851Y-149279974D01*
X139322607Y-149331450D01*
X139296893Y-149343194D01*
X139231677Y-149364384D01*
X139060578Y-149451564D01*
X139031352Y-149472798D01*
X139031351Y-149472798D01*
X139653554Y-150095000D01*
X139647339Y-150095000D01*
X139545606Y-150122259D01*
X139454394Y-150174920D01*
X139379920Y-150249394D01*
X139327259Y-150340606D01*
X139300000Y-150442339D01*
X139300000Y-150448553D01*
X138677798Y-149826351D01*
X138677798Y-149826352D01*
X138656564Y-149855578D01*
X138569383Y-150026678D01*
X138510040Y-150209315D01*
X138480000Y-150398984D01*
X138480000Y-150591015D01*
X138510040Y-150780684D01*
X138569383Y-150963321D01*
X138656561Y-151134415D01*
X138677798Y-151163646D01*
X139300000Y-150541445D01*
X139300000Y-150547661D01*
X139327259Y-150649394D01*
X139379920Y-150740606D01*
X139454394Y-150815080D01*
X139545606Y-150867741D01*
X139647339Y-150895000D01*
X139653554Y-150895000D01*
X139031351Y-151517200D01*
X139031352Y-151517201D01*
X139060577Y-151538434D01*
X139231678Y-151625616D01*
X139297703Y-151647069D01*
X139355378Y-151686507D01*
X139382576Y-151750866D01*
X139370661Y-151819712D01*
X139323417Y-151871188D01*
X139297703Y-151882931D01*
X139231678Y-151904383D01*
X139060578Y-151991564D01*
X139031352Y-152012798D01*
X139031351Y-152012798D01*
X139653554Y-152635000D01*
X139647339Y-152635000D01*
X139545606Y-152662259D01*
X139454394Y-152714920D01*
X139379920Y-152789394D01*
X139327259Y-152880606D01*
X139300000Y-152982339D01*
X139300000Y-152988553D01*
X138677798Y-152366351D01*
X138677798Y-152366352D01*
X138656564Y-152395578D01*
X138569383Y-152566678D01*
X138510040Y-152749315D01*
X138480000Y-152938984D01*
X138480000Y-153131015D01*
X138510040Y-153320684D01*
X138569383Y-153503321D01*
X138656561Y-153674415D01*
X138677798Y-153703646D01*
X139300000Y-153081445D01*
X139300000Y-153087661D01*
X139327259Y-153189394D01*
X139379920Y-153280606D01*
X139454394Y-153355080D01*
X139545606Y-153407741D01*
X139647339Y-153435000D01*
X139653554Y-153435000D01*
X139031351Y-154057200D01*
X139031352Y-154057201D01*
X139060577Y-154078434D01*
X139231678Y-154165616D01*
X139414315Y-154224959D01*
X139603985Y-154255000D01*
X139796015Y-154255000D01*
X139985684Y-154224959D01*
X140168321Y-154165616D01*
X140339419Y-154078436D01*
X140368646Y-154057201D01*
X140368646Y-154057200D01*
X139746447Y-153435000D01*
X139752661Y-153435000D01*
X139854394Y-153407741D01*
X139945606Y-153355080D01*
X140020080Y-153280606D01*
X140072741Y-153189394D01*
X140100000Y-153087661D01*
X140100000Y-153081446D01*
X140722200Y-153703646D01*
X140722201Y-153703646D01*
X140743436Y-153674419D01*
X140830616Y-153503321D01*
X140889958Y-153320684D01*
X140906818Y-153214240D01*
X140906818Y-153214239D01*
X140920000Y-153131013D01*
X140920000Y-152938985D01*
X140889959Y-152749315D01*
X140830616Y-152566678D01*
X140743434Y-152395577D01*
X140722201Y-152366352D01*
X140722200Y-152366351D01*
X140100000Y-152988552D01*
X140100000Y-152982339D01*
X140072741Y-152880606D01*
X140020080Y-152789394D01*
X139945606Y-152714920D01*
X139854394Y-152662259D01*
X139752661Y-152635000D01*
X139746447Y-152635000D01*
X140244290Y-152137155D01*
X148510000Y-152137155D01*
X148510000Y-152785000D01*
X149426988Y-152785000D01*
X149394075Y-152842007D01*
X149360000Y-152969174D01*
X149360000Y-153100826D01*
X149394075Y-153227993D01*
X149426988Y-153285000D01*
X148510000Y-153285000D01*
X148510000Y-153932844D01*
X148516401Y-153992372D01*
X148516403Y-153992379D01*
X148566645Y-154127086D01*
X148566649Y-154127093D01*
X148652809Y-154242187D01*
X148652812Y-154242190D01*
X148767906Y-154328350D01*
X148767913Y-154328354D01*
X148902620Y-154378596D01*
X148902627Y-154378598D01*
X148962155Y-154384999D01*
X148962172Y-154385000D01*
X149610000Y-154385000D01*
X149610000Y-153468012D01*
X149667007Y-153500925D01*
X149794174Y-153535000D01*
X149925826Y-153535000D01*
X150052993Y-153500925D01*
X150110000Y-153468012D01*
X150110000Y-154385000D01*
X150757828Y-154385000D01*
X150757844Y-154384999D01*
X150817372Y-154378598D01*
X150817379Y-154378596D01*
X150952086Y-154328354D01*
X150952093Y-154328350D01*
X151067187Y-154242190D01*
X151067190Y-154242187D01*
X151153350Y-154127093D01*
X151153354Y-154127086D01*
X151203596Y-153992379D01*
X151203598Y-153992372D01*
X151209999Y-153932844D01*
X151210000Y-153932827D01*
X151210000Y-153285000D01*
X150293012Y-153285000D01*
X150325925Y-153227993D01*
X150360000Y-153100826D01*
X150360000Y-152969174D01*
X150325925Y-152842007D01*
X150293012Y-152785000D01*
X151210000Y-152785000D01*
X151210000Y-152137172D01*
X151209999Y-152137155D01*
X158670000Y-152137155D01*
X158670000Y-152785000D01*
X159586988Y-152785000D01*
X159554075Y-152842007D01*
X159520000Y-152969174D01*
X159520000Y-153100826D01*
X159554075Y-153227993D01*
X159586988Y-153285000D01*
X158670000Y-153285000D01*
X158670000Y-153932844D01*
X158676401Y-153992372D01*
X158676403Y-153992379D01*
X158726645Y-154127086D01*
X158726649Y-154127093D01*
X158812809Y-154242187D01*
X158812812Y-154242190D01*
X158927906Y-154328350D01*
X158927913Y-154328354D01*
X159062620Y-154378596D01*
X159062627Y-154378598D01*
X159122155Y-154384999D01*
X159122172Y-154385000D01*
X159770000Y-154385000D01*
X159770000Y-153468012D01*
X159827007Y-153500925D01*
X159954174Y-153535000D01*
X160085826Y-153535000D01*
X160212993Y-153500925D01*
X160270000Y-153468012D01*
X160270000Y-154385000D01*
X160917828Y-154385000D01*
X160917844Y-154384999D01*
X160977372Y-154378598D01*
X160977379Y-154378596D01*
X161112086Y-154328354D01*
X161112093Y-154328350D01*
X161227187Y-154242190D01*
X161227190Y-154242187D01*
X161313350Y-154127093D01*
X161313354Y-154127086D01*
X161338496Y-154059678D01*
X161363596Y-153992379D01*
X161363598Y-153992372D01*
X161369999Y-153932844D01*
X161370000Y-153932827D01*
X161370000Y-153285000D01*
X160453012Y-153285000D01*
X160485925Y-153227993D01*
X160520000Y-153100826D01*
X160520000Y-152969174D01*
X160485925Y-152842007D01*
X160453012Y-152785000D01*
X161370000Y-152785000D01*
X161370000Y-152137172D01*
X161369999Y-152137155D01*
X161363598Y-152077627D01*
X161363597Y-152077623D01*
X161338495Y-152010321D01*
X161338494Y-152010319D01*
X161313354Y-151942913D01*
X161313350Y-151942906D01*
X161227190Y-151827812D01*
X161227187Y-151827809D01*
X161112093Y-151741649D01*
X161112086Y-151741645D01*
X160977379Y-151691403D01*
X160977372Y-151691401D01*
X160917844Y-151685000D01*
X160270000Y-151685000D01*
X160270000Y-152601988D01*
X160212993Y-152569075D01*
X160085826Y-152535000D01*
X159954174Y-152535000D01*
X159827007Y-152569075D01*
X159770000Y-152601988D01*
X159770000Y-151685000D01*
X159122155Y-151685000D01*
X159062627Y-151691401D01*
X159062620Y-151691403D01*
X158927913Y-151741645D01*
X158927906Y-151741649D01*
X158812812Y-151827809D01*
X158812809Y-151827812D01*
X158726649Y-151942906D01*
X158726645Y-151942913D01*
X158676403Y-152077620D01*
X158676401Y-152077627D01*
X158670000Y-152137155D01*
X151209999Y-152137155D01*
X151203598Y-152077627D01*
X151203596Y-152077620D01*
X151153354Y-151942913D01*
X151153350Y-151942906D01*
X151067190Y-151827812D01*
X151067187Y-151827809D01*
X150952093Y-151741649D01*
X150952086Y-151741645D01*
X150817379Y-151691403D01*
X150817372Y-151691401D01*
X150757844Y-151685000D01*
X150110000Y-151685000D01*
X150110000Y-152601988D01*
X150052993Y-152569075D01*
X149925826Y-152535000D01*
X149794174Y-152535000D01*
X149667007Y-152569075D01*
X149610000Y-152601988D01*
X149610000Y-151685000D01*
X148962155Y-151685000D01*
X148902627Y-151691401D01*
X148902620Y-151691403D01*
X148767913Y-151741645D01*
X148767906Y-151741649D01*
X148652812Y-151827809D01*
X148652809Y-151827812D01*
X148566649Y-151942906D01*
X148566645Y-151942913D01*
X148516403Y-152077620D01*
X148516401Y-152077627D01*
X148510000Y-152137155D01*
X140244290Y-152137155D01*
X140335275Y-152046170D01*
X140368646Y-152012798D01*
X140339415Y-151991561D01*
X140168319Y-151904383D01*
X140102297Y-151882931D01*
X140044621Y-151843493D01*
X140017423Y-151779135D01*
X140029338Y-151710288D01*
X140076582Y-151658813D01*
X140102297Y-151647069D01*
X140168319Y-151625616D01*
X140339419Y-151538436D01*
X140368646Y-151517201D01*
X140368646Y-151517200D01*
X139746447Y-150895000D01*
X139752661Y-150895000D01*
X139854394Y-150867741D01*
X139945606Y-150815080D01*
X140020080Y-150740606D01*
X140072741Y-150649394D01*
X140100000Y-150547661D01*
X140100000Y-150541446D01*
X140722200Y-151163646D01*
X140722201Y-151163646D01*
X140743436Y-151134419D01*
X140830616Y-150963321D01*
X140889959Y-150780684D01*
X140920000Y-150591015D01*
X140920000Y-150398984D01*
X140889959Y-150209315D01*
X140830616Y-150026678D01*
X140743434Y-149855577D01*
X140722201Y-149826352D01*
X140722200Y-149826351D01*
X140100000Y-150448552D01*
X140100000Y-150442339D01*
X140072741Y-150340606D01*
X140020080Y-150249394D01*
X139945606Y-150174920D01*
X139854394Y-150122259D01*
X139752661Y-150095000D01*
X139746447Y-150095000D01*
X140368646Y-149472798D01*
X140339415Y-149451561D01*
X140168321Y-149364383D01*
X140103107Y-149343194D01*
X140045432Y-149303756D01*
X140018234Y-149239397D01*
X140030149Y-149170551D01*
X140077394Y-149119075D01*
X140103109Y-149107332D01*
X140168504Y-149086084D01*
X140168506Y-149086082D01*
X140168509Y-149086082D01*
X140339681Y-148998865D01*
X140495102Y-148885945D01*
X140630945Y-148750102D01*
X140743865Y-148594681D01*
X140831082Y-148423509D01*
X140890447Y-148240801D01*
X140920500Y-148051055D01*
X140920500Y-147858945D01*
X140890447Y-147669199D01*
X140831082Y-147486491D01*
X140743865Y-147315319D01*
X140724181Y-147288227D01*
X140700702Y-147222422D01*
X140700500Y-147215342D01*
X140700500Y-144289141D01*
X140720185Y-144222102D01*
X140772989Y-144176347D01*
X140781149Y-144172966D01*
X140792331Y-144168796D01*
X140794131Y-144167449D01*
X140874153Y-144107544D01*
X140907546Y-144082546D01*
X140993796Y-143967331D01*
X140997960Y-143956165D01*
X141039829Y-143900234D01*
X141105293Y-143875816D01*
X141114141Y-143875500D01*
X145551001Y-143875500D01*
X145582025Y-143869328D01*
X145647647Y-143856275D01*
X145744295Y-143837051D01*
X145797624Y-143814961D01*
X145926373Y-143761632D01*
X146090241Y-143652139D01*
X146229598Y-143512782D01*
X146229598Y-143512780D01*
X146239806Y-143502573D01*
X146239807Y-143502570D01*
X150637139Y-139105241D01*
X150746632Y-138941373D01*
X150822051Y-138759294D01*
X150860500Y-138566000D01*
X150860500Y-134129141D01*
X150880185Y-134062102D01*
X150932989Y-134016347D01*
X150941149Y-134012966D01*
X150952331Y-134008796D01*
X150958069Y-134004501D01*
X151046413Y-133938366D01*
X151067546Y-133922546D01*
X151153796Y-133807331D01*
X151157960Y-133796165D01*
X151199829Y-133740234D01*
X151265293Y-133715816D01*
X151274141Y-133715500D01*
X159229301Y-133715500D01*
X159249721Y-133721496D01*
X159270970Y-133722711D01*
X159292442Y-133734040D01*
X159296340Y-133735185D01*
X159302185Y-133739181D01*
X159336969Y-133764452D01*
X159358618Y-133780181D01*
X159401285Y-133835511D01*
X159407265Y-133905124D01*
X159374659Y-133966919D01*
X159313821Y-134001277D01*
X159285736Y-134004500D01*
X159222130Y-134004500D01*
X159222123Y-134004501D01*
X159162516Y-134010908D01*
X159027671Y-134061202D01*
X159027664Y-134061206D01*
X158912455Y-134147452D01*
X158912452Y-134147455D01*
X158826206Y-134262664D01*
X158826202Y-134262671D01*
X158775908Y-134397517D01*
X158769501Y-134457116D01*
X158769501Y-134457123D01*
X158769500Y-134457135D01*
X158769500Y-136052870D01*
X158769501Y-136052876D01*
X158775908Y-136112483D01*
X158826202Y-136247328D01*
X158826203Y-136247329D01*
X158826204Y-136247331D01*
X158912452Y-136362543D01*
X158912455Y-136362547D01*
X158969810Y-136405482D01*
X159011682Y-136461415D01*
X159019500Y-136504749D01*
X159019500Y-140970277D01*
X158999815Y-141037316D01*
X158969812Y-141069543D01*
X158892452Y-141127455D01*
X158806206Y-141242664D01*
X158806202Y-141242671D01*
X158755908Y-141377517D01*
X158749501Y-141437116D01*
X158749500Y-141437135D01*
X158749500Y-143232870D01*
X158749501Y-143232876D01*
X158755908Y-143292483D01*
X158806202Y-143427328D01*
X158806206Y-143427335D01*
X158892452Y-143542544D01*
X158892455Y-143542547D01*
X159007664Y-143628793D01*
X159007671Y-143628797D01*
X159052618Y-143645561D01*
X159142517Y-143679091D01*
X159202127Y-143685500D01*
X159212685Y-143685499D01*
X159279723Y-143705179D01*
X159300372Y-143721818D01*
X159970591Y-144392037D01*
X159907007Y-144409075D01*
X159792993Y-144474901D01*
X159699901Y-144567993D01*
X159634075Y-144682007D01*
X159617037Y-144745591D01*
X158984728Y-144113282D01*
X158984727Y-144113282D01*
X158945380Y-144167439D01*
X158848904Y-144356782D01*
X158783242Y-144558869D01*
X158783242Y-144558872D01*
X158750000Y-144768753D01*
X158750000Y-144981246D01*
X158783242Y-145191127D01*
X158783242Y-145191130D01*
X158848904Y-145393217D01*
X158945375Y-145582550D01*
X158984728Y-145636716D01*
X159617036Y-145004407D01*
X159634075Y-145067993D01*
X159699901Y-145182007D01*
X159792993Y-145275099D01*
X159907007Y-145340925D01*
X159970590Y-145357962D01*
X159338282Y-145990269D01*
X159338282Y-145990270D01*
X159392449Y-146029624D01*
X159581782Y-146126095D01*
X159783870Y-146191757D01*
X159993754Y-146225000D01*
X160206246Y-146225000D01*
X160416127Y-146191757D01*
X160416130Y-146191757D01*
X160618217Y-146126095D01*
X160807554Y-146029622D01*
X160861716Y-145990270D01*
X160861717Y-145990270D01*
X160229408Y-145357962D01*
X160292993Y-145340925D01*
X160407007Y-145275099D01*
X160500099Y-145182007D01*
X160565925Y-145067993D01*
X160582962Y-145004408D01*
X161215270Y-145636717D01*
X161215270Y-145636716D01*
X161254622Y-145582554D01*
X161351095Y-145393217D01*
X161416757Y-145191130D01*
X161416757Y-145191127D01*
X161450000Y-144981246D01*
X161450000Y-144768753D01*
X161416757Y-144558872D01*
X161416757Y-144558869D01*
X161351095Y-144356782D01*
X161254624Y-144167449D01*
X161215270Y-144113282D01*
X161215269Y-144113282D01*
X160582962Y-144745590D01*
X160565925Y-144682007D01*
X160500099Y-144567993D01*
X160407007Y-144474901D01*
X160292993Y-144409075D01*
X160229409Y-144392037D01*
X160899627Y-143721818D01*
X160960950Y-143688333D01*
X160987307Y-143685499D01*
X160997872Y-143685499D01*
X161057483Y-143679091D01*
X161192331Y-143628796D01*
X161307546Y-143542546D01*
X161393796Y-143427331D01*
X161397960Y-143416165D01*
X161411228Y-143398441D01*
X161420428Y-143378297D01*
X161431758Y-143371015D01*
X161439829Y-143360234D01*
X161460577Y-143352495D01*
X161479206Y-143340523D01*
X161501121Y-143337371D01*
X161505293Y-143335816D01*
X161514141Y-143335500D01*
X161554218Y-143335500D01*
X161621257Y-143355185D01*
X161641899Y-143371819D01*
X169143181Y-150873101D01*
X169176666Y-150934424D01*
X169179500Y-150960782D01*
X169179500Y-152074800D01*
X169159815Y-152141839D01*
X169150506Y-152154365D01*
X169024949Y-152327182D01*
X169020202Y-152336499D01*
X168972227Y-152387293D01*
X168904405Y-152404087D01*
X168838271Y-152381548D01*
X168799234Y-152336495D01*
X168794626Y-152327452D01*
X168755270Y-152273282D01*
X168755269Y-152273282D01*
X168122962Y-152905590D01*
X168105925Y-152842007D01*
X168040099Y-152727993D01*
X167947007Y-152634901D01*
X167832993Y-152569075D01*
X167769409Y-152552037D01*
X168401716Y-151919728D01*
X168347550Y-151880375D01*
X168158217Y-151783904D01*
X167956129Y-151718242D01*
X167746246Y-151685000D01*
X167533754Y-151685000D01*
X167323872Y-151718242D01*
X167323869Y-151718242D01*
X167121782Y-151783904D01*
X166932439Y-151880380D01*
X166878282Y-151919727D01*
X166878282Y-151919728D01*
X167510591Y-152552037D01*
X167447007Y-152569075D01*
X167332993Y-152634901D01*
X167239901Y-152727993D01*
X167174075Y-152842007D01*
X167157037Y-152905591D01*
X166524728Y-152273282D01*
X166524727Y-152273282D01*
X166485380Y-152327439D01*
X166388904Y-152516782D01*
X166323242Y-152718869D01*
X166323242Y-152718872D01*
X166290000Y-152928753D01*
X166290000Y-153141246D01*
X166323242Y-153351127D01*
X166323242Y-153351130D01*
X166388904Y-153553217D01*
X166485375Y-153742550D01*
X166524728Y-153796716D01*
X167157037Y-153164408D01*
X167174075Y-153227993D01*
X167239901Y-153342007D01*
X167332993Y-153435099D01*
X167447007Y-153500925D01*
X167510590Y-153517962D01*
X166878282Y-154150269D01*
X166878282Y-154150270D01*
X166932449Y-154189624D01*
X167121782Y-154286095D01*
X167323870Y-154351757D01*
X167533754Y-154385000D01*
X167746246Y-154385000D01*
X167956127Y-154351757D01*
X167956130Y-154351757D01*
X168158217Y-154286095D01*
X168347554Y-154189622D01*
X168401716Y-154150270D01*
X168401717Y-154150270D01*
X167769408Y-153517962D01*
X167832993Y-153500925D01*
X167947007Y-153435099D01*
X168040099Y-153342007D01*
X168105925Y-153227993D01*
X168122962Y-153164409D01*
X168755270Y-153796717D01*
X168755270Y-153796716D01*
X168794622Y-153742555D01*
X168799232Y-153733507D01*
X168847205Y-153682709D01*
X168915025Y-153665912D01*
X168981161Y-153688447D01*
X169020204Y-153733504D01*
X169024949Y-153742817D01*
X169149890Y-153914786D01*
X169300213Y-154065109D01*
X169472179Y-154190048D01*
X169472181Y-154190049D01*
X169472184Y-154190051D01*
X169661588Y-154286557D01*
X169863757Y-154352246D01*
X170073713Y-154385500D01*
X170073714Y-154385500D01*
X170286286Y-154385500D01*
X170286287Y-154385500D01*
X170496243Y-154352246D01*
X170698412Y-154286557D01*
X170887816Y-154190051D01*
X170974471Y-154127093D01*
X171059784Y-154065110D01*
X171059784Y-154065109D01*
X171059792Y-154065104D01*
X171173329Y-153951566D01*
X171234648Y-153918084D01*
X171304340Y-153923068D01*
X171360274Y-153964939D01*
X171377189Y-153995917D01*
X171426202Y-154127328D01*
X171426206Y-154127335D01*
X171512452Y-154242544D01*
X171512455Y-154242547D01*
X171627664Y-154328793D01*
X171627671Y-154328797D01*
X171762517Y-154379091D01*
X171762516Y-154379091D01*
X171769444Y-154379835D01*
X171822127Y-154385500D01*
X173617872Y-154385499D01*
X173677483Y-154379091D01*
X173812331Y-154328796D01*
X173927546Y-154242546D01*
X174013796Y-154127331D01*
X174064091Y-153992483D01*
X174070500Y-153932873D01*
X174070500Y-153515946D01*
X180529500Y-153515946D01*
X180529500Y-153824053D01*
X180529501Y-153824069D01*
X180569717Y-154129542D01*
X180649464Y-154427162D01*
X180767376Y-154711826D01*
X180767381Y-154711837D01*
X180860014Y-154872280D01*
X180921438Y-154978670D01*
X180921440Y-154978673D01*
X180921441Y-154978674D01*
X181109007Y-155223115D01*
X181109013Y-155223122D01*
X181326877Y-155440986D01*
X181326883Y-155440991D01*
X181571330Y-155628562D01*
X181742830Y-155727578D01*
X181838162Y-155782618D01*
X181838167Y-155782620D01*
X181838170Y-155782622D01*
X182122836Y-155900535D01*
X182420456Y-155980282D01*
X182725940Y-156020500D01*
X182725947Y-156020500D01*
X183034053Y-156020500D01*
X183034060Y-156020500D01*
X183339544Y-155980282D01*
X183637164Y-155900535D01*
X183921830Y-155782622D01*
X184188670Y-155628562D01*
X184433117Y-155440991D01*
X184650991Y-155223117D01*
X184838562Y-154978670D01*
X184992622Y-154711830D01*
X185110535Y-154427164D01*
X185190282Y-154129544D01*
X185230500Y-153824060D01*
X185230500Y-153515946D01*
X242759500Y-153515946D01*
X242759500Y-153824053D01*
X242759501Y-153824069D01*
X242799717Y-154129542D01*
X242879464Y-154427162D01*
X242997376Y-154711826D01*
X242997381Y-154711837D01*
X243090014Y-154872280D01*
X243151438Y-154978670D01*
X243151440Y-154978673D01*
X243151441Y-154978674D01*
X243339007Y-155223115D01*
X243339013Y-155223122D01*
X243556877Y-155440986D01*
X243556883Y-155440991D01*
X243801330Y-155628562D01*
X243972830Y-155727578D01*
X244068162Y-155782618D01*
X244068167Y-155782620D01*
X244068170Y-155782622D01*
X244352836Y-155900535D01*
X244650456Y-155980282D01*
X244955940Y-156020500D01*
X244955947Y-156020500D01*
X245264053Y-156020500D01*
X245264060Y-156020500D01*
X245569544Y-155980282D01*
X245867164Y-155900535D01*
X246151830Y-155782622D01*
X246418670Y-155628562D01*
X246663117Y-155440991D01*
X246880991Y-155223117D01*
X247068562Y-154978670D01*
X247222622Y-154711830D01*
X247340535Y-154427164D01*
X247420282Y-154129544D01*
X247460500Y-153824060D01*
X247460500Y-153515940D01*
X247420282Y-153210456D01*
X247340535Y-152912836D01*
X247222622Y-152628170D01*
X247222620Y-152628167D01*
X247222618Y-152628162D01*
X247158200Y-152516588D01*
X247068562Y-152361330D01*
X246909752Y-152154365D01*
X246880992Y-152116884D01*
X246880986Y-152116877D01*
X246663122Y-151899013D01*
X246663115Y-151899007D01*
X246418674Y-151711441D01*
X246418673Y-151711440D01*
X246418670Y-151711438D01*
X246307180Y-151647069D01*
X246151837Y-151557381D01*
X246151826Y-151557376D01*
X245867162Y-151439464D01*
X245569542Y-151359717D01*
X245264069Y-151319501D01*
X245264066Y-151319500D01*
X245264060Y-151319500D01*
X244955940Y-151319500D01*
X244955934Y-151319500D01*
X244955930Y-151319501D01*
X244650457Y-151359717D01*
X244352837Y-151439464D01*
X244068173Y-151557376D01*
X244068162Y-151557381D01*
X243801325Y-151711441D01*
X243556884Y-151899007D01*
X243556877Y-151899013D01*
X243339013Y-152116877D01*
X243339007Y-152116884D01*
X243151441Y-152361325D01*
X242997381Y-152628162D01*
X242997376Y-152628173D01*
X242879464Y-152912837D01*
X242799717Y-153210457D01*
X242759501Y-153515930D01*
X242759500Y-153515946D01*
X185230500Y-153515946D01*
X185230500Y-153515940D01*
X185190282Y-153210456D01*
X185110535Y-152912836D01*
X184992622Y-152628170D01*
X184992620Y-152628167D01*
X184992618Y-152628162D01*
X184928200Y-152516588D01*
X184838562Y-152361330D01*
X184679752Y-152154365D01*
X184650992Y-152116884D01*
X184650986Y-152116877D01*
X184433122Y-151899013D01*
X184433115Y-151899007D01*
X184188674Y-151711441D01*
X184188673Y-151711440D01*
X184188670Y-151711438D01*
X184077180Y-151647069D01*
X183921837Y-151557381D01*
X183921826Y-151557376D01*
X183637162Y-151439464D01*
X183339542Y-151359717D01*
X183034069Y-151319501D01*
X183034066Y-151319500D01*
X183034060Y-151319500D01*
X182725940Y-151319500D01*
X182725934Y-151319500D01*
X182725930Y-151319501D01*
X182420457Y-151359717D01*
X182122837Y-151439464D01*
X181838173Y-151557376D01*
X181838162Y-151557381D01*
X181571325Y-151711441D01*
X181326884Y-151899007D01*
X181326877Y-151899013D01*
X181109013Y-152116877D01*
X181109007Y-152116884D01*
X180921441Y-152361325D01*
X180767381Y-152628162D01*
X180767376Y-152628173D01*
X180649464Y-152912837D01*
X180569717Y-153210457D01*
X180529501Y-153515930D01*
X180529500Y-153515946D01*
X174070500Y-153515946D01*
X174070499Y-153035000D01*
X174070499Y-152137129D01*
X174070498Y-152137123D01*
X174070328Y-152135546D01*
X174064103Y-152077627D01*
X174064091Y-152077516D01*
X174013797Y-151942671D01*
X174013793Y-151942664D01*
X173927547Y-151827455D01*
X173927544Y-151827452D01*
X173812335Y-151741206D01*
X173812332Y-151741205D01*
X173812331Y-151741204D01*
X173801161Y-151737038D01*
X173745231Y-151695166D01*
X173720816Y-151629701D01*
X173720500Y-151620858D01*
X173720500Y-149195456D01*
X173720499Y-149195454D01*
X173682052Y-149002170D01*
X173682050Y-149002163D01*
X173680685Y-148998867D01*
X173680683Y-148998862D01*
X173633911Y-148885945D01*
X173633910Y-148885943D01*
X173606635Y-148820093D01*
X173606634Y-148820092D01*
X173606632Y-148820086D01*
X173497139Y-148656218D01*
X173357782Y-148516861D01*
X173357781Y-148516860D01*
X171216819Y-146375898D01*
X171183334Y-146314575D01*
X171180500Y-146288217D01*
X171180500Y-145853503D01*
X171200185Y-145786464D01*
X171252989Y-145740709D01*
X171322147Y-145730765D01*
X171385703Y-145759790D01*
X171422431Y-145815185D01*
X171468904Y-145958217D01*
X171565375Y-146147550D01*
X171604728Y-146201716D01*
X172237036Y-145569407D01*
X172254075Y-145632993D01*
X172319901Y-145747007D01*
X172412993Y-145840099D01*
X172527007Y-145905925D01*
X172590590Y-145922962D01*
X171958282Y-146555269D01*
X171958282Y-146555270D01*
X172012449Y-146594624D01*
X172201782Y-146691095D01*
X172403870Y-146756757D01*
X172613754Y-146790000D01*
X172826246Y-146790000D01*
X173036127Y-146756757D01*
X173036130Y-146756757D01*
X173238217Y-146691095D01*
X173427554Y-146594622D01*
X173481716Y-146555270D01*
X173481717Y-146555270D01*
X172849408Y-145922962D01*
X172912993Y-145905925D01*
X173027007Y-145840099D01*
X173120099Y-145747007D01*
X173185925Y-145632993D01*
X173202962Y-145569408D01*
X173835270Y-146201717D01*
X173835270Y-146201716D01*
X173874622Y-146147554D01*
X173971095Y-145958217D01*
X174036757Y-145756130D01*
X174036757Y-145756127D01*
X174070000Y-145546246D01*
X174070000Y-145333753D01*
X174036757Y-145123872D01*
X174036757Y-145123869D01*
X173971095Y-144921782D01*
X173874624Y-144732449D01*
X173835270Y-144678282D01*
X173835269Y-144678282D01*
X173202962Y-145310590D01*
X173185925Y-145247007D01*
X173120099Y-145132993D01*
X173027007Y-145039901D01*
X172912993Y-144974075D01*
X172849409Y-144957037D01*
X173519627Y-144286818D01*
X173580950Y-144253333D01*
X173607307Y-144250499D01*
X173617872Y-144250499D01*
X173677483Y-144244091D01*
X173812331Y-144193796D01*
X173927546Y-144107546D01*
X174013796Y-143992331D01*
X174064091Y-143857483D01*
X174070500Y-143797873D01*
X174070499Y-142002128D01*
X174064091Y-141942517D01*
X174061301Y-141935037D01*
X174013797Y-141807671D01*
X174013793Y-141807664D01*
X173927547Y-141692455D01*
X173927544Y-141692452D01*
X173812335Y-141606206D01*
X173812332Y-141606205D01*
X173812331Y-141606204D01*
X173801161Y-141602038D01*
X173745231Y-141560166D01*
X173720816Y-141494701D01*
X173720500Y-141485858D01*
X173720500Y-85626456D01*
X173682052Y-85433170D01*
X173682051Y-85433169D01*
X173682051Y-85433165D01*
X173682049Y-85433160D01*
X173606635Y-85251092D01*
X173606628Y-85251079D01*
X173497140Y-85087219D01*
X173497139Y-85087218D01*
X173357782Y-84947861D01*
X173357781Y-84947860D01*
X170964208Y-82554288D01*
X170964206Y-82554285D01*
X170964206Y-82554286D01*
X170957139Y-82547219D01*
X170957139Y-82547218D01*
X170817782Y-82407861D01*
X170817781Y-82407860D01*
X170817780Y-82407859D01*
X170653920Y-82298371D01*
X170653911Y-82298366D01*
X170581315Y-82268296D01*
X170525165Y-82245038D01*
X170471836Y-82222949D01*
X170471832Y-82222948D01*
X170471828Y-82222946D01*
X170375188Y-82203724D01*
X170278544Y-82184500D01*
X170278541Y-82184500D01*
X161434141Y-82184500D01*
X161367102Y-82164815D01*
X161321347Y-82112011D01*
X161317969Y-82103859D01*
X161313796Y-82092669D01*
X161313793Y-82092665D01*
X161313793Y-82092664D01*
X161227547Y-81977455D01*
X161227544Y-81977452D01*
X161112335Y-81891206D01*
X161112328Y-81891202D01*
X160977482Y-81840908D01*
X160977483Y-81840908D01*
X160917883Y-81834501D01*
X160917881Y-81834500D01*
X160917873Y-81834500D01*
X160917864Y-81834500D01*
X159122129Y-81834500D01*
X159122123Y-81834501D01*
X159062516Y-81840908D01*
X158927671Y-81891202D01*
X158927664Y-81891206D01*
X158812455Y-81977452D01*
X158812452Y-81977455D01*
X158726206Y-82092664D01*
X158726204Y-82092668D01*
X158726204Y-82092669D01*
X158722039Y-82103834D01*
X158680171Y-82159766D01*
X158614707Y-82184184D01*
X158605859Y-82184500D01*
X150735762Y-82184500D01*
X150668723Y-82164815D01*
X150662877Y-82160818D01*
X150541613Y-82072715D01*
X150541612Y-82072714D01*
X150541610Y-82072713D01*
X150458527Y-82030380D01*
X150359223Y-81979781D01*
X150164534Y-81916522D01*
X149978382Y-81887039D01*
X149962352Y-81884500D01*
X149757648Y-81884500D01*
X149741618Y-81887039D01*
X149555465Y-81916522D01*
X149360776Y-81979781D01*
X149178386Y-82072715D01*
X149057123Y-82160818D01*
X148991317Y-82184298D01*
X148984238Y-82184500D01*
X141114141Y-82184500D01*
X141047102Y-82164815D01*
X141001347Y-82112011D01*
X140997969Y-82103859D01*
X140993796Y-82092669D01*
X140993793Y-82092665D01*
X140993793Y-82092664D01*
X140907547Y-81977455D01*
X140907544Y-81977452D01*
X140792335Y-81891206D01*
X140792332Y-81891205D01*
X140792331Y-81891204D01*
X140781161Y-81887038D01*
X140725231Y-81845166D01*
X140700816Y-81779701D01*
X140700500Y-81770858D01*
X140700500Y-78082682D01*
X148560000Y-78082682D01*
X148560000Y-78287317D01*
X148592009Y-78489417D01*
X148655244Y-78684031D01*
X148748141Y-78866350D01*
X148748147Y-78866359D01*
X148780523Y-78910921D01*
X148780524Y-78910922D01*
X149460000Y-78231446D01*
X149460000Y-78237661D01*
X149487259Y-78339394D01*
X149539920Y-78430606D01*
X149614394Y-78505080D01*
X149705606Y-78557741D01*
X149807339Y-78585000D01*
X149813553Y-78585000D01*
X149134076Y-79264474D01*
X149178650Y-79296859D01*
X149360968Y-79389755D01*
X149555582Y-79452990D01*
X149757683Y-79485000D01*
X149962317Y-79485000D01*
X150164417Y-79452990D01*
X150359031Y-79389755D01*
X150541349Y-79296859D01*
X150585921Y-79264474D01*
X149906447Y-78585000D01*
X149912661Y-78585000D01*
X150014394Y-78557741D01*
X150105606Y-78505080D01*
X150180080Y-78430606D01*
X150232741Y-78339394D01*
X150260000Y-78237661D01*
X150260000Y-78231447D01*
X150939474Y-78910921D01*
X150971859Y-78866349D01*
X151064755Y-78684031D01*
X151127990Y-78489417D01*
X151160000Y-78287317D01*
X151160000Y-78082682D01*
X151127990Y-77880582D01*
X151064755Y-77685968D01*
X150971859Y-77503650D01*
X150939474Y-77459077D01*
X150939474Y-77459076D01*
X150260000Y-78138551D01*
X150260000Y-78132339D01*
X150232741Y-78030606D01*
X150180080Y-77939394D01*
X150105606Y-77864920D01*
X150014394Y-77812259D01*
X149912661Y-77785000D01*
X149906446Y-77785000D01*
X150585922Y-77105524D01*
X150585921Y-77105523D01*
X150541359Y-77073147D01*
X150541350Y-77073141D01*
X150359031Y-76980244D01*
X150164417Y-76917009D01*
X149962317Y-76885000D01*
X149757683Y-76885000D01*
X149555582Y-76917009D01*
X149360968Y-76980244D01*
X149178644Y-77073143D01*
X149134077Y-77105523D01*
X149134077Y-77105524D01*
X149813554Y-77785000D01*
X149807339Y-77785000D01*
X149705606Y-77812259D01*
X149614394Y-77864920D01*
X149539920Y-77939394D01*
X149487259Y-78030606D01*
X149460000Y-78132339D01*
X149460000Y-78138553D01*
X148780524Y-77459077D01*
X148780523Y-77459077D01*
X148748143Y-77503644D01*
X148655244Y-77685968D01*
X148592009Y-77880582D01*
X148560000Y-78082682D01*
X140700500Y-78082682D01*
X140700500Y-76979141D01*
X140720185Y-76912102D01*
X140772989Y-76866347D01*
X140781149Y-76862966D01*
X140792331Y-76858796D01*
X140907546Y-76772546D01*
X140993796Y-76657331D01*
X141044091Y-76522483D01*
X141050500Y-76462873D01*
X141050499Y-74667128D01*
X141044091Y-74607517D01*
X140993796Y-74472669D01*
X140993795Y-74472668D01*
X140993793Y-74472664D01*
X140907547Y-74357455D01*
X140907544Y-74357452D01*
X140792335Y-74271206D01*
X140792328Y-74271202D01*
X140657482Y-74220908D01*
X140657483Y-74220908D01*
X140597883Y-74214501D01*
X140597881Y-74214500D01*
X140597873Y-74214500D01*
X140597864Y-74214500D01*
X138802129Y-74214500D01*
X138802123Y-74214501D01*
X138742516Y-74220908D01*
X138607671Y-74271202D01*
X138607664Y-74271206D01*
X138492455Y-74357452D01*
X138492452Y-74357455D01*
X138406206Y-74472664D01*
X138406202Y-74472671D01*
X138355908Y-74607517D01*
X138349501Y-74667116D01*
X138349501Y-74667123D01*
X138349500Y-74667135D01*
X138349500Y-74677690D01*
X138329815Y-74744729D01*
X138313181Y-74765371D01*
X137642962Y-75435590D01*
X137625925Y-75372007D01*
X137560099Y-75257993D01*
X137467007Y-75164901D01*
X137352993Y-75099075D01*
X137289409Y-75082037D01*
X137921716Y-74449728D01*
X137867550Y-74410375D01*
X137678217Y-74313904D01*
X137476129Y-74248242D01*
X137266246Y-74215000D01*
X137053754Y-74215000D01*
X136843872Y-74248242D01*
X136843869Y-74248242D01*
X136641782Y-74313904D01*
X136452439Y-74410380D01*
X136398282Y-74449727D01*
X136398282Y-74449728D01*
X137030591Y-75082037D01*
X136967007Y-75099075D01*
X136852993Y-75164901D01*
X136759901Y-75257993D01*
X136694075Y-75372007D01*
X136677037Y-75435591D01*
X136044728Y-74803282D01*
X136044727Y-74803282D01*
X136005380Y-74857439D01*
X135908904Y-75046782D01*
X135843242Y-75248869D01*
X135843242Y-75248872D01*
X135810000Y-75458753D01*
X131056937Y-75458753D01*
X131093117Y-75430991D01*
X131093122Y-75430986D01*
X131157909Y-75366200D01*
X131310986Y-75213122D01*
X131310991Y-75213117D01*
X131498562Y-74968670D01*
X131652622Y-74701830D01*
X131770535Y-74417164D01*
X131850282Y-74119544D01*
X131890500Y-73814060D01*
X131890500Y-73505946D01*
X180529500Y-73505946D01*
X180529500Y-73814053D01*
X180529501Y-73814069D01*
X180569717Y-74119542D01*
X180649464Y-74417162D01*
X180767376Y-74701826D01*
X180767381Y-74701837D01*
X180804063Y-74765371D01*
X180921438Y-74968670D01*
X180921440Y-74968673D01*
X180921441Y-74968674D01*
X181109007Y-75213115D01*
X181109013Y-75213122D01*
X181326877Y-75430986D01*
X181326883Y-75430991D01*
X181571330Y-75618562D01*
X181742830Y-75717578D01*
X181838162Y-75772618D01*
X181838167Y-75772620D01*
X181838170Y-75772622D01*
X182122836Y-75890535D01*
X182420456Y-75970282D01*
X182725940Y-76010500D01*
X182725947Y-76010500D01*
X183034053Y-76010500D01*
X183034060Y-76010500D01*
X183339544Y-75970282D01*
X183637164Y-75890535D01*
X183921830Y-75772622D01*
X184188670Y-75618562D01*
X184433117Y-75430991D01*
X184650991Y-75213117D01*
X184838562Y-74968670D01*
X184992622Y-74701830D01*
X185110535Y-74417164D01*
X185190282Y-74119544D01*
X185230500Y-73814060D01*
X185230500Y-73505946D01*
X242759500Y-73505946D01*
X242759500Y-73814053D01*
X242759501Y-73814069D01*
X242799717Y-74119542D01*
X242879464Y-74417162D01*
X242997376Y-74701826D01*
X242997381Y-74701837D01*
X243034063Y-74765371D01*
X243151438Y-74968670D01*
X243151440Y-74968673D01*
X243151441Y-74968674D01*
X243339007Y-75213115D01*
X243339013Y-75213122D01*
X243556877Y-75430986D01*
X243556883Y-75430991D01*
X243801330Y-75618562D01*
X243972830Y-75717578D01*
X244068162Y-75772618D01*
X244068167Y-75772620D01*
X244068170Y-75772622D01*
X244352836Y-75890535D01*
X244650456Y-75970282D01*
X244955940Y-76010500D01*
X244955947Y-76010500D01*
X245264053Y-76010500D01*
X245264060Y-76010500D01*
X245569544Y-75970282D01*
X245867164Y-75890535D01*
X246151830Y-75772622D01*
X246418670Y-75618562D01*
X246663117Y-75430991D01*
X246880991Y-75213117D01*
X247068562Y-74968670D01*
X247222622Y-74701830D01*
X247340535Y-74417164D01*
X247420282Y-74119544D01*
X247460500Y-73814060D01*
X247460500Y-73505940D01*
X247420282Y-73200456D01*
X247340535Y-72902836D01*
X247222622Y-72618170D01*
X247222620Y-72618167D01*
X247222618Y-72618162D01*
X247167578Y-72522830D01*
X247068562Y-72351330D01*
X246880991Y-72106883D01*
X246880986Y-72106877D01*
X246663122Y-71889013D01*
X246663115Y-71889007D01*
X246418674Y-71701441D01*
X246418673Y-71701440D01*
X246418670Y-71701438D01*
X246312280Y-71640014D01*
X246151837Y-71547381D01*
X246151826Y-71547376D01*
X245867162Y-71429464D01*
X245569542Y-71349717D01*
X245264069Y-71309501D01*
X245264066Y-71309500D01*
X245264060Y-71309500D01*
X244955940Y-71309500D01*
X244955934Y-71309500D01*
X244955930Y-71309501D01*
X244650457Y-71349717D01*
X244352837Y-71429464D01*
X244068173Y-71547376D01*
X244068162Y-71547381D01*
X243801325Y-71701441D01*
X243556884Y-71889007D01*
X243556877Y-71889013D01*
X243339013Y-72106877D01*
X243339007Y-72106884D01*
X243151441Y-72351325D01*
X242997381Y-72618162D01*
X242997376Y-72618173D01*
X242879464Y-72902837D01*
X242799717Y-73200457D01*
X242759501Y-73505930D01*
X242759500Y-73505946D01*
X185230500Y-73505946D01*
X185230500Y-73505940D01*
X185190282Y-73200456D01*
X185110535Y-72902836D01*
X184992622Y-72618170D01*
X184992620Y-72618167D01*
X184992618Y-72618162D01*
X184937578Y-72522830D01*
X184838562Y-72351330D01*
X184650991Y-72106883D01*
X184650986Y-72106877D01*
X184433122Y-71889013D01*
X184433115Y-71889007D01*
X184188674Y-71701441D01*
X184188673Y-71701440D01*
X184188670Y-71701438D01*
X184082280Y-71640014D01*
X183921837Y-71547381D01*
X183921826Y-71547376D01*
X183637162Y-71429464D01*
X183339542Y-71349717D01*
X183034069Y-71309501D01*
X183034066Y-71309500D01*
X183034060Y-71309500D01*
X182725940Y-71309500D01*
X182725934Y-71309500D01*
X182725930Y-71309501D01*
X182420457Y-71349717D01*
X182122837Y-71429464D01*
X181838173Y-71547376D01*
X181838162Y-71547381D01*
X181571325Y-71701441D01*
X181326884Y-71889007D01*
X181326877Y-71889013D01*
X181109013Y-72106877D01*
X181109007Y-72106884D01*
X180921441Y-72351325D01*
X180767381Y-72618162D01*
X180767376Y-72618173D01*
X180649464Y-72902837D01*
X180569717Y-73200457D01*
X180529501Y-73505930D01*
X180529500Y-73505946D01*
X131890500Y-73505946D01*
X131890500Y-73505940D01*
X131850282Y-73200456D01*
X131770535Y-72902836D01*
X131652622Y-72618170D01*
X131652620Y-72618167D01*
X131652618Y-72618162D01*
X131597578Y-72522830D01*
X131498562Y-72351330D01*
X131310991Y-72106883D01*
X131310986Y-72106877D01*
X131093122Y-71889013D01*
X131093115Y-71889007D01*
X130848674Y-71701441D01*
X130848673Y-71701440D01*
X130848670Y-71701438D01*
X130742280Y-71640014D01*
X130581837Y-71547381D01*
X130581826Y-71547376D01*
X130297162Y-71429464D01*
X129999542Y-71349717D01*
X129694069Y-71309501D01*
X129694066Y-71309500D01*
X129694060Y-71309500D01*
X129385940Y-71309500D01*
X129385934Y-71309500D01*
X129385930Y-71309501D01*
X129080457Y-71349717D01*
X128782837Y-71429464D01*
X128498173Y-71547376D01*
X128498162Y-71547381D01*
X128231325Y-71701441D01*
X127986884Y-71889007D01*
X127986877Y-71889013D01*
X127769013Y-72106877D01*
X127769007Y-72106884D01*
X127581441Y-72351325D01*
X127427381Y-72618162D01*
X127427376Y-72618173D01*
X127309464Y-72902837D01*
X127229717Y-73200457D01*
X127189501Y-73505930D01*
X127189500Y-73505946D01*
X83630500Y-73505946D01*
X83630500Y-73505940D01*
X83590282Y-73200456D01*
X83510535Y-72902836D01*
X83392622Y-72618170D01*
X83392620Y-72618167D01*
X83392618Y-72618162D01*
X83337578Y-72522830D01*
X83238562Y-72351330D01*
X83050991Y-72106883D01*
X83050986Y-72106877D01*
X82833122Y-71889013D01*
X82833115Y-71889007D01*
X82588674Y-71701441D01*
X82588673Y-71701440D01*
X82588670Y-71701438D01*
X82482280Y-71640014D01*
X82321837Y-71547381D01*
X82321826Y-71547376D01*
X82037162Y-71429464D01*
X81739542Y-71349717D01*
X81434069Y-71309501D01*
X81434066Y-71309500D01*
X81434060Y-71309500D01*
X81125940Y-71309500D01*
X81125934Y-71309500D01*
X81125930Y-71309501D01*
X80820457Y-71349717D01*
X80522837Y-71429464D01*
X80238173Y-71547376D01*
X80238162Y-71547381D01*
X79971325Y-71701441D01*
X79726884Y-71889007D01*
X79726877Y-71889013D01*
X79509013Y-72106877D01*
X79509007Y-72106884D01*
X79321441Y-72351325D01*
X79167381Y-72618162D01*
X79167376Y-72618173D01*
X79049464Y-72902837D01*
X78969717Y-73200457D01*
X78929501Y-73505930D01*
X78929500Y-73505946D01*
X77470000Y-73505946D01*
X77470000Y-69974000D01*
X77489685Y-69906961D01*
X77542489Y-69861206D01*
X77594000Y-69850000D01*
X248796000Y-69850000D01*
X248863039Y-69869685D01*
G37*
%TD.AperFunction*%
%TD*%
%TA.AperFunction,Conductor*%
%TO.N,Gnd*%
G36*
X148512898Y-133735185D02*
G01*
X148558653Y-133787989D01*
X148562030Y-133796140D01*
X148566204Y-133807331D01*
X148566205Y-133807332D01*
X148566206Y-133807335D01*
X148652452Y-133922544D01*
X148652455Y-133922547D01*
X148767665Y-134008794D01*
X148767667Y-134008794D01*
X148767669Y-134008796D01*
X148778830Y-134012958D01*
X148834764Y-134054826D01*
X148859184Y-134120289D01*
X148859500Y-134129141D01*
X148859500Y-138001676D01*
X148839815Y-138068715D01*
X148823181Y-138089357D01*
X145074358Y-141838181D01*
X145013035Y-141871666D01*
X144986677Y-141874500D01*
X141114141Y-141874500D01*
X141047102Y-141854815D01*
X141001347Y-141802011D01*
X140997969Y-141793859D01*
X140993796Y-141782669D01*
X140993793Y-141782665D01*
X140993793Y-141782664D01*
X140907547Y-141667455D01*
X140907544Y-141667452D01*
X140792335Y-141581206D01*
X140792332Y-141581205D01*
X140792331Y-141581204D01*
X140781161Y-141577038D01*
X140725231Y-141535166D01*
X140700816Y-141469701D01*
X140700500Y-141460858D01*
X140700500Y-136504749D01*
X140720185Y-136437710D01*
X140750190Y-136405482D01*
X140807546Y-136362546D01*
X140893796Y-136247331D01*
X140944091Y-136112483D01*
X140950500Y-136052873D01*
X140950499Y-134457128D01*
X140944091Y-134397517D01*
X140893796Y-134262669D01*
X140893795Y-134262668D01*
X140893793Y-134262664D01*
X140807547Y-134147455D01*
X140807544Y-134147452D01*
X140692335Y-134061206D01*
X140692328Y-134061202D01*
X140557482Y-134010908D01*
X140557483Y-134010908D01*
X140497883Y-134004501D01*
X140497881Y-134004500D01*
X140497873Y-134004500D01*
X140497865Y-134004500D01*
X140434267Y-134004500D01*
X140404010Y-133995615D01*
X140373292Y-133988472D01*
X140370740Y-133985846D01*
X140367228Y-133984815D01*
X140346580Y-133960986D01*
X140324597Y-133938366D01*
X140323869Y-133934777D01*
X140321473Y-133932011D01*
X140316985Y-133900798D01*
X140310722Y-133869888D01*
X140312050Y-133866476D01*
X140311529Y-133862853D01*
X140324628Y-133834168D01*
X140336071Y-133804779D01*
X140339629Y-133801320D01*
X140340554Y-133799297D01*
X140361382Y-133780182D01*
X140417814Y-133739182D01*
X140483620Y-133715702D01*
X140490699Y-133715500D01*
X148445859Y-133715500D01*
X148512898Y-133735185D01*
G37*
%TD.AperFunction*%
%TD*%
%TA.AperFunction,Conductor*%
%TO.N,Gnd*%
G36*
X148512898Y-117225185D02*
G01*
X148558653Y-117277989D01*
X148562030Y-117286140D01*
X148566204Y-117297331D01*
X148566205Y-117297332D01*
X148566206Y-117297335D01*
X148652452Y-117412544D01*
X148652455Y-117412547D01*
X148767665Y-117498794D01*
X148767667Y-117498794D01*
X148767669Y-117498796D01*
X148778830Y-117502958D01*
X148834764Y-117544826D01*
X148859184Y-117610289D01*
X148859500Y-117619141D01*
X148859500Y-118843541D01*
X148859500Y-118843543D01*
X148859499Y-118843543D01*
X148897947Y-119036829D01*
X148897950Y-119036839D01*
X148973364Y-119218907D01*
X148973371Y-119218920D01*
X149082860Y-119382781D01*
X149082863Y-119382785D01*
X149226537Y-119526459D01*
X149226559Y-119526479D01*
X154159735Y-124459655D01*
X154159764Y-124459686D01*
X154302214Y-124602136D01*
X154302218Y-124602139D01*
X154466079Y-124711628D01*
X154466092Y-124711635D01*
X154594833Y-124764961D01*
X154637133Y-124782482D01*
X154648164Y-124787051D01*
X154744812Y-124806275D01*
X154793135Y-124815887D01*
X154841458Y-124825500D01*
X154841459Y-124825500D01*
X154841460Y-124825500D01*
X155038540Y-124825500D01*
X158605859Y-124825500D01*
X158672898Y-124845185D01*
X158718653Y-124897989D01*
X158722030Y-124906140D01*
X158726204Y-124917331D01*
X158726205Y-124917332D01*
X158726206Y-124917335D01*
X158812452Y-125032544D01*
X158812455Y-125032547D01*
X158927665Y-125118794D01*
X158927667Y-125118794D01*
X158927669Y-125118796D01*
X158938830Y-125122958D01*
X158994764Y-125164826D01*
X159019184Y-125230289D01*
X159019500Y-125239141D01*
X159019500Y-129384301D01*
X158999815Y-129451340D01*
X158995818Y-129457186D01*
X158950478Y-129519591D01*
X158861117Y-129694970D01*
X158800290Y-129882173D01*
X158769500Y-130076577D01*
X158769500Y-130273422D01*
X158800290Y-130467826D01*
X158861117Y-130655029D01*
X158950476Y-130830405D01*
X159066172Y-130989646D01*
X159205354Y-131128828D01*
X159364595Y-131244524D01*
X159487992Y-131307397D01*
X159541213Y-131334515D01*
X159592009Y-131382489D01*
X159608804Y-131450310D01*
X159586267Y-131516445D01*
X159541213Y-131555485D01*
X159364591Y-131645478D01*
X159302186Y-131690818D01*
X159236380Y-131714298D01*
X159229301Y-131714500D01*
X151274141Y-131714500D01*
X151207102Y-131694815D01*
X151161347Y-131642011D01*
X151157969Y-131633859D01*
X151153796Y-131622669D01*
X151153793Y-131622665D01*
X151153793Y-131622664D01*
X151067547Y-131507455D01*
X151067544Y-131507452D01*
X150952335Y-131421206D01*
X150952328Y-131421202D01*
X150817482Y-131370908D01*
X150817483Y-131370908D01*
X150757883Y-131364501D01*
X150757881Y-131364500D01*
X150757873Y-131364500D01*
X150757864Y-131364500D01*
X148962129Y-131364500D01*
X148962123Y-131364501D01*
X148902516Y-131370908D01*
X148767671Y-131421202D01*
X148767664Y-131421206D01*
X148652455Y-131507452D01*
X148652452Y-131507455D01*
X148566206Y-131622664D01*
X148566204Y-131622668D01*
X148566204Y-131622669D01*
X148562039Y-131633834D01*
X148520171Y-131689766D01*
X148454707Y-131714184D01*
X148445859Y-131714500D01*
X140490699Y-131714500D01*
X140423660Y-131694815D01*
X140417814Y-131690818D01*
X140355406Y-131645476D01*
X140178787Y-131555485D01*
X140127990Y-131507511D01*
X140111195Y-131439690D01*
X140133732Y-131373555D01*
X140178787Y-131334515D01*
X140355403Y-131244525D01*
X140355402Y-131244525D01*
X140355405Y-131244524D01*
X140514646Y-131128828D01*
X140653828Y-130989646D01*
X140769524Y-130830405D01*
X140858884Y-130655025D01*
X140919709Y-130467826D01*
X140950500Y-130273422D01*
X140950500Y-130076577D01*
X140919709Y-129882173D01*
X140858882Y-129694970D01*
X140826464Y-129631347D01*
X140769524Y-129519595D01*
X140765547Y-129514121D01*
X140724182Y-129457186D01*
X140700702Y-129391380D01*
X140700500Y-129384301D01*
X140700500Y-125239141D01*
X140720185Y-125172102D01*
X140772989Y-125126347D01*
X140781149Y-125122966D01*
X140792331Y-125118796D01*
X140907546Y-125032546D01*
X140993796Y-124917331D01*
X141044091Y-124782483D01*
X141050500Y-124722873D01*
X141050499Y-122927128D01*
X141044091Y-122867517D01*
X140993796Y-122732669D01*
X140993795Y-122732668D01*
X140993793Y-122732664D01*
X140907547Y-122617455D01*
X140907544Y-122617452D01*
X140792335Y-122531206D01*
X140792332Y-122531205D01*
X140792331Y-122531204D01*
X140781161Y-122527038D01*
X140725231Y-122485166D01*
X140700816Y-122419701D01*
X140700500Y-122410858D01*
X140700500Y-119994749D01*
X140720185Y-119927710D01*
X140750190Y-119895482D01*
X140807546Y-119852546D01*
X140893796Y-119737331D01*
X140944091Y-119602483D01*
X140950500Y-119542873D01*
X140950499Y-117947128D01*
X140944091Y-117887517D01*
X140893796Y-117752669D01*
X140893795Y-117752668D01*
X140893793Y-117752664D01*
X140807547Y-117637455D01*
X140807544Y-117637452D01*
X140692335Y-117551206D01*
X140692328Y-117551202D01*
X140557482Y-117500908D01*
X140557483Y-117500908D01*
X140497883Y-117494501D01*
X140497881Y-117494500D01*
X140497873Y-117494500D01*
X140497865Y-117494500D01*
X140434267Y-117494500D01*
X140404010Y-117485615D01*
X140373292Y-117478472D01*
X140370740Y-117475846D01*
X140367228Y-117474815D01*
X140346580Y-117450986D01*
X140324597Y-117428366D01*
X140323869Y-117424777D01*
X140321473Y-117422011D01*
X140316985Y-117390798D01*
X140310722Y-117359888D01*
X140312050Y-117356476D01*
X140311529Y-117352853D01*
X140324628Y-117324168D01*
X140336071Y-117294779D01*
X140339629Y-117291320D01*
X140340554Y-117289297D01*
X140361382Y-117270182D01*
X140417814Y-117229182D01*
X140483620Y-117205702D01*
X140490699Y-117205500D01*
X148445859Y-117205500D01*
X148512898Y-117225185D01*
G37*
%TD.AperFunction*%
%TA.AperFunction,Conductor*%
G36*
X159296340Y-117225185D02*
G01*
X159302185Y-117229181D01*
X159336969Y-117254452D01*
X159358618Y-117270181D01*
X159401285Y-117325511D01*
X159407265Y-117395124D01*
X159374659Y-117456919D01*
X159313821Y-117491277D01*
X159285736Y-117494500D01*
X159222130Y-117494500D01*
X159222123Y-117494501D01*
X159162516Y-117500908D01*
X159027671Y-117551202D01*
X159027664Y-117551206D01*
X158912455Y-117637452D01*
X158912452Y-117637455D01*
X158826206Y-117752664D01*
X158826202Y-117752671D01*
X158775908Y-117887517D01*
X158769501Y-117947116D01*
X158769501Y-117947123D01*
X158769500Y-117947135D01*
X158769500Y-119542870D01*
X158769501Y-119542876D01*
X158775908Y-119602483D01*
X158826202Y-119737328D01*
X158826203Y-119737329D01*
X158826204Y-119737331D01*
X158912452Y-119852543D01*
X158912455Y-119852547D01*
X158969810Y-119895482D01*
X159011682Y-119951415D01*
X159019500Y-119994749D01*
X159019500Y-122410858D01*
X158999815Y-122477897D01*
X158947011Y-122523652D01*
X158938847Y-122527034D01*
X158927669Y-122531204D01*
X158927664Y-122531206D01*
X158812455Y-122617452D01*
X158812452Y-122617455D01*
X158726206Y-122732664D01*
X158726204Y-122732668D01*
X158726204Y-122732669D01*
X158722039Y-122743834D01*
X158680171Y-122799766D01*
X158614707Y-122824184D01*
X158605859Y-122824500D01*
X155405782Y-122824500D01*
X155338743Y-122804815D01*
X155318101Y-122788181D01*
X150896819Y-118366899D01*
X150863334Y-118305576D01*
X150860500Y-118279218D01*
X150860500Y-117619141D01*
X150880185Y-117552102D01*
X150932989Y-117506347D01*
X150941149Y-117502966D01*
X150952331Y-117498796D01*
X150958069Y-117494501D01*
X151046413Y-117428366D01*
X151067546Y-117412546D01*
X151153796Y-117297331D01*
X151157960Y-117286165D01*
X151199829Y-117230234D01*
X151265293Y-117205816D01*
X151274141Y-117205500D01*
X159229301Y-117205500D01*
X159296340Y-117225185D01*
G37*
%TD.AperFunction*%
%TD*%
M02*
